<svg width="1024" height="1024" viewBox="0 0 1024 1024" fill="none" xmlns="http://www.w3.org/2000/svg">
<rect width="1024" height="1024" fill="#EB5D18"/>
<path fill-rule="evenodd" clip-rule="evenodd" d="M862.079 310.005C834.787 262.733 782.372 233.215 714.383 223.975C737.199 264.809 755.153 312.567 766.954 364.926C811.287 405.837 846.703 450.577 871.255 495.907C914.825 576.348 925.12 660.818 886.327 728.01C850.113 790.734 779.446 823.947 695.851 830.103C648.723 899.419 584.627 944.011 512.2 944.011C492.68 944.011 473.661 940.748 455.376 934.58C448.049 932.109 444.113 924.167 446.584 916.84C449.055 909.514 456.998 905.578 464.324 908.049C479.841 913.282 495.841 916.011 512.2 916.011C566.783 916.011 618.554 885.378 660.551 831.118C613.78 830.461 563.444 822.13 512.2 806.171C454.602 824.109 398.148 832.41 346.615 831.008C255.166 828.521 176.865 795.202 138.072 728.01C101.858 665.286 108.428 587.48 144.895 512.007C108.428 436.535 101.858 358.728 138.072 296.004C144.631 284.643 152.359 274.206 161.129 264.706C166.374 259.024 175.231 258.67 180.912 263.915C186.594 269.159 186.948 278.016 181.703 283.698C174.313 291.704 167.825 300.471 162.321 310.004C135.028 357.276 135.672 417.428 161.665 480.929C185.62 440.753 218.002 401.325 257.446 364.926C270.709 306.075 291.748 253.033 318.729 209.104C366.608 131.151 434.613 80 512.2 80C584.628 80 648.726 124.593 695.854 193.912C779.447 200.067 850.114 233.281 886.327 296.005C895.714 312.262 902.256 329.629 906.124 347.768C907.737 355.33 902.915 362.767 895.353 364.38C887.791 365.993 880.353 361.17 878.74 353.608C875.461 338.231 869.946 323.631 862.079 310.005ZM177.764 514.771C177.265 513.85 176.771 512.928 176.282 512.007C176.771 511.086 177.265 510.165 177.765 509.243C195.397 476.689 219.233 444.125 248.546 413.06C243.909 444.858 241.462 477.988 241.462 512.005C241.462 541.7 243.326 570.703 246.879 598.723C247.852 606.394 254.859 611.823 262.529 610.851C270.2 609.878 275.629 602.871 274.657 595.201C271.253 568.357 269.462 540.531 269.462 512.005C269.462 465.585 274.203 421.056 282.901 379.623C314.435 351.373 350.629 325.001 390.831 301.79C488.925 245.155 591.266 218.663 677.023 220.996C678.072 221.024 679.117 221.057 680.16 221.094C680.713 221.978 681.263 222.865 681.811 223.758C701.188 255.306 717.471 292.231 729.718 333.151C704.498 313.235 677.03 294.55 647.569 277.541C619.842 261.533 591.727 247.803 563.65 236.344C556.491 233.423 548.319 236.858 545.398 244.016C542.476 251.175 545.911 259.347 553.07 262.269C579.96 273.243 606.933 286.412 633.569 301.79C673.77 325 709.964 351.372 741.498 379.622C750.196 421.055 754.938 465.585 754.938 512.005C754.938 625.275 726.71 727.15 681.811 800.253C681.262 801.146 680.711 802.036 680.157 802.92C679.115 802.957 678.071 802.99 677.023 803.018C640.014 804.025 599.896 799.665 558.336 789.811C588.193 777.928 618.108 763.482 647.569 746.473C670.248 733.379 691.737 719.299 711.921 704.435C718.148 699.851 719.478 691.087 714.894 684.861C710.309 678.635 701.545 677.304 695.319 681.889C675.974 696.133 655.355 709.646 633.569 722.224C593.367 745.435 552.432 763.594 512.2 776.777C471.968 763.593 431.032 745.435 390.831 722.224C292.736 665.589 218.623 590.206 177.764 514.771ZM376.831 277.541C347.37 294.551 319.901 313.236 294.681 333.151C306.928 292.231 323.211 255.306 342.588 223.758C387.627 150.428 447.989 108 512.2 108C566.785 108 618.556 138.634 660.554 192.896C572.774 194.129 472.358 222.389 376.831 277.541ZM376.831 746.473C406.292 763.482 436.207 777.928 466.065 789.812C424.504 799.665 384.385 804.026 347.376 803.019C261.351 800.679 194.426 769.618 162.321 714.01C135.029 666.739 135.673 606.587 161.665 543.086C206.622 618.488 281.304 691.321 376.831 746.473ZM782.938 512.005C782.938 477.988 780.49 444.858 775.853 413.06C805.167 444.125 829.002 476.689 846.635 509.243C887.621 584.912 894.184 658.402 862.078 714.01C834.786 761.281 782.371 790.799 714.381 800.04C757.203 723.404 782.938 622.31 782.938 512.005Z" fill="#F9CBCC"/>
<g filter="url(#filter0_dddd_3116_291)">
<path d="M790.581 416.45C794.523 420.572 796.494 425.947 796.494 432.577V595.456C796.494 602.265 794.523 607.64 790.581 611.941C786.639 616.062 781.443 618.212 774.992 618.212C768.004 618.212 762.449 615.703 758.149 610.686L660.851 486.153V595.635C660.851 602.444 658.881 607.819 655.118 612.12C651.355 616.241 646.338 618.391 639.887 618.391C633.436 618.391 628.419 616.241 624.477 612.12C620.535 607.998 618.743 602.444 618.743 595.635V432.756C618.743 426.126 620.714 420.751 624.656 416.63C628.598 412.508 633.795 410.358 640.245 410.358C647.413 410.358 652.968 412.867 656.73 417.884L754.027 541.521V432.577C754.027 425.947 755.998 420.572 759.761 416.45C763.703 412.329 768.721 410.179 774.813 410.179C781.443 410.358 786.639 412.329 790.581 416.45Z" fill="white"/>
<path d="M445.472 612.12C441.35 607.999 439.379 602.623 439.379 595.635V433.115C439.379 426.306 441.171 421.109 444.934 417.346C448.697 413.584 453.893 411.792 460.702 411.792H533.63C555.849 411.792 573.23 417.347 585.594 428.635C597.957 439.924 604.229 455.513 604.229 475.761C604.229 495.829 597.957 511.597 585.594 522.886C573.23 534.175 555.849 539.729 533.63 539.729H484.892V595.814C484.892 602.802 482.921 608.357 478.8 612.299C474.679 616.42 469.303 618.391 462.315 618.391C455.148 618.212 449.593 616.241 445.472 612.12ZM527.717 505.326C550.295 505.326 561.762 495.471 561.762 475.94C561.762 456.229 550.474 446.374 527.717 446.374H484.713V505.326H527.717Z" fill="white"/>
<path d="M398.167 413.046C401.392 411.075 405.155 410 409.277 410C415.011 410 420.386 411.971 425.045 415.734C429.704 419.676 432.033 424.335 432.033 429.889C432.033 432.756 431.316 435.623 430.062 438.669L351.579 604.236C349.429 608.715 346.204 612.12 342.083 614.629C337.782 616.958 333.123 618.212 328.106 618.212C323.089 618.212 318.43 616.958 314.13 614.629C309.829 612.299 306.604 608.715 304.633 604.236L225.971 438.669C224.538 435.982 224 433.115 224 430.248C224 424.514 226.329 419.676 231.347 415.734C236.184 411.792 241.56 410 247.652 410C251.773 410 255.357 411.075 258.762 413.046C262.166 415.017 264.675 418.063 266.467 422.185L328.644 558.006L390.821 422.185C392.433 418.063 394.942 415.017 398.167 413.046Z" fill="white"/>
</g>
<defs>
<filter id="filter0_dddd_3116_291" x="184" y="381" width="652.494" height="288.391" filterUnits="userSpaceOnUse" color-interpolation-filters="sRGB">
<feFlood flood-opacity="0" result="BackgroundImageFix"/>
<feColorMatrix in="SourceAlpha" type="matrix" values="0 0 0 0 0 0 0 0 0 0 0 0 0 0 0 0 0 0 127 0" result="hardAlpha"/>
<feOffset dy="11"/>
<feGaussianBlur stdDeviation="20"/>
<feComposite in2="hardAlpha" operator="out"/>
<feColorMatrix type="matrix" values="0 0 0 0 0.661768 0 0 0 0 0.216407 0 0 0 0 0 0 0 0 0.6 0"/>
<feBlend mode="normal" in2="BackgroundImageFix" result="effect1_dropShadow_3116_291"/>
<feColorMatrix in="SourceAlpha" type="matrix" values="0 0 0 0 0 0 0 0 0 0 0 0 0 0 0 0 0 0 127 0" result="hardAlpha"/>
<feOffset dx="1" dy="1"/>
<feGaussianBlur stdDeviation="2"/>
<feComposite in2="hardAlpha" operator="out"/>
<feColorMatrix type="matrix" values="0 0 0 0 0.522298 0 0 0 0 0.188792 0 0 0 0 0.0267355 0 0 0 0.5 0"/>
<feBlend mode="normal" in2="effect1_dropShadow_3116_291" result="effect2_dropShadow_3116_291"/>
<feColorMatrix in="SourceAlpha" type="matrix" values="0 0 0 0 0 0 0 0 0 0 0 0 0 0 0 0 0 0 127 0" result="hardAlpha"/>
<feOffset dy="-4"/>
<feGaussianBlur stdDeviation="5"/>
<feComposite in2="hardAlpha" operator="out"/>
<feColorMatrix type="matrix" values="0 0 0 0 0.522298 0 0 0 0 0.188792 0 0 0 0 0.0267355 0 0 0 0.2 0"/>
<feBlend mode="normal" in2="effect2_dropShadow_3116_291" result="effect3_dropShadow_3116_291"/>
<feColorMatrix in="SourceAlpha" type="matrix" values="0 0 0 0 0 0 0 0 0 0 0 0 0 0 0 0 0 0 127 0" result="hardAlpha"/>
<feOffset/>
<feGaussianBlur stdDeviation="2"/>
<feComposite in2="hardAlpha" operator="out"/>
<feColorMatrix type="matrix" values="0 0 0 0 0.243359 0 0 0 0 0.0887678 0 0 0 0 0.0136494 0 0 0 0.2 0"/>
<feBlend mode="normal" in2="effect3_dropShadow_3116_291" result="effect4_dropShadow_3116_291"/>
<feBlend mode="normal" in="SourceGraphic" in2="effect4_dropShadow_3116_291" result="shape"/>
</filter>
</defs>
</svg>
