<?xml version="1.0" encoding="UTF-8"?>
<svg id="WHITE" xmlns="http://www.w3.org/2000/svg" version="1.1" viewBox="0 0 2032.97 1133.35">
  <defs>
    <style>
      .cls-1 {
        fill: #eb5d18;
      }

      .cls-1, .cls-2, .cls-3 {
        stroke-width: 0px;
      }

      .cls-2 {
        fill: #223a80;
      }

      .cls-3 {
        fill: #f9cbcc;
      }
    </style>
  </defs>
  <path id="ATOM" class="cls-3" d="M1030.32,637.22c-1.87-15.88-2.66-31.79-2.43-47.73-2.27.99-4.95,1.66-8.08,2.02h-.08s-.08.02-.08.02l-5,.5c-2.1.21-3.87.62-5.29,1.21.11,12.2.75,24.39,1.99,36.58.68,6.59-.11,13.31,2.19,19.83,1.86,5.23,5.27,6.67,10.18,5.94,4.88-.75,6.52-4.15,6.59-8.63.04-3.25.01-6.5.01-9.74ZM920.88,620.04c.38.61.79,1.14,1.24,1.58,1.92,1.89,5.2,2.85,9.75,2.85,1.83,0,3.48-.15,4.93-.45.5-1.32,1.01-2.65,1.52-3.98h-17.44ZM962.59,627.94c-1.17-1.44-2.71-2.17-4.6-2.17-.7,0-1.56.17-2.61.52,2.65,3.75,5.35,7.46,8.12,11.12.57-1.12.85-2.33.85-3.61,0-2.45-.58-4.4-1.76-5.86ZM1030.32,637.22c-1.87-15.88-2.66-31.79-2.43-47.73-2.27.99-4.95,1.66-8.08,2.02h-.08s-.08.02-.08.02l-5,.5c-2.1.21-3.87.62-5.29,1.21.11,12.2.75,24.39,1.99,36.58.68,6.59-.11,13.31,2.19,19.83,1.86,5.23,5.27,6.67,10.18,5.94,4.88-.75,6.52-4.15,6.59-8.63.04-3.25.01-6.5.01-9.74ZM920.88,620.04c.38.61.79,1.14,1.24,1.58,1.92,1.89,5.2,2.85,9.75,2.85,1.83,0,3.48-.15,4.93-.45.5-1.32,1.01-2.65,1.52-3.98h-17.44ZM962.59,627.94c-1.17-1.44-2.71-2.17-4.6-2.17-.7,0-1.56.17-2.61.52,2.65,3.75,5.35,7.46,8.12,11.12.57-1.12.85-2.33.85-3.61,0-2.45-.58-4.4-1.76-5.86ZM920.88,620.04c.38.61.79,1.14,1.24,1.58,1.92,1.89,5.2,2.85,9.75,2.85,1.83,0,3.48-.15,4.93-.45.5-1.32,1.01-2.65,1.52-3.98h-17.44ZM962.59,627.94c-1.17-1.44-2.71-2.17-4.6-2.17-.7,0-1.56.17-2.61.52,2.65,3.75,5.35,7.46,8.12,11.12.57-1.12.85-2.33.85-3.61,0-2.45-.58-4.4-1.76-5.86ZM920.88,620.04c.38.61.79,1.14,1.24,1.58,1.92,1.89,5.2,2.85,9.75,2.85,1.83,0,3.48-.15,4.93-.45.5-1.32,1.01-2.65,1.52-3.98h-17.44ZM958.44,598.43c-4.27-6.55-3.82-11.99.13-18.41.05-.08.1-.16.15-.24-2.83-4.43-6.48-7.96-10.94-10.6-1.04-.61-2.11-1.17-3.21-1.66h-.01c-.23.06-.48.1-.75.1-1.1,0-1.78-.54-2.28-1.29-3.94-1.34-8.28-2-13.01-2-2.56,0-5.03.19-7.41.59,1.86,4.45,3.88,8.83,6.06,13.16.17.34.34.68.49,1.02.44-.03.9-.04,1.36-.04,5.58,0,9.94,1.76,13.06,5.27,3.13,3.52,4.8,8.68,5.03,15.49h-19.47s-.03.07-.05.1c-1.79,3.69-3.5,7.39-5.1,11.12h36.17c2.98,0,4.91-1.19,5.79-3.56-2.04-2.99-4.04-6.01-6.01-9.05ZM962.59,627.94c-1.17-1.44-2.71-2.17-4.6-2.17-.7,0-1.56.17-2.61.52,2.65,3.75,5.35,7.46,8.12,11.12.57-1.12.85-2.33.85-3.61,0-2.45-.58-4.4-1.76-5.86ZM920.88,620.04c.38.61.79,1.14,1.24,1.58,1.92,1.89,5.2,2.85,9.75,2.85,1.83,0,3.48-.15,4.93-.45.5-1.32,1.01-2.65,1.52-3.98h-17.44ZM962.59,627.94c-1.17-1.44-2.71-2.17-4.6-2.17-.7,0-1.56.17-2.61.52,2.65,3.75,5.35,7.46,8.12,11.12.57-1.12.85-2.33.85-3.61,0-2.45-.58-4.4-1.76-5.86ZM920.88,620.04c.38.61.79,1.14,1.24,1.58,1.92,1.89,5.2,2.85,9.75,2.85,1.83,0,3.48-.15,4.93-.45.5-1.32,1.01-2.65,1.52-3.98h-17.44ZM962.59,627.94c-1.17-1.44-2.71-2.17-4.6-2.17-.7,0-1.56.17-2.61.52,2.65,3.75,5.35,7.46,8.12,11.12.57-1.12.85-2.33.85-3.61,0-2.45-.58-4.4-1.76-5.86ZM973.72,620.69v18.47c0,3.24.98,5.72,2.93,7.45,1.96,1.73,4.44,2.6,7.45,2.6s5.53-.87,7.54-2.6c.49-.42.93-.9,1.31-1.42-6.72-7.94-13.11-16.11-19.23-24.5ZM920.88,620.04c.38.61.79,1.14,1.24,1.58,1.92,1.89,5.2,2.85,9.75,2.85,1.83,0,3.48-.15,4.93-.45.5-1.32,1.01-2.65,1.52-3.98h-17.44ZM962.59,627.94c-1.17-1.44-2.71-2.17-4.6-2.17-.7,0-1.56.17-2.61.52,2.65,3.75,5.35,7.46,8.12,11.12.57-1.12.85-2.33.85-3.61,0-2.45-.58-4.4-1.76-5.86ZM973.72,620.69v18.47c0,3.24.98,5.72,2.93,7.45,1.96,1.73,4.44,2.6,7.45,2.6s5.53-.87,7.54-2.6c.49-.42.93-.9,1.31-1.42-6.72-7.94-13.11-16.11-19.23-24.5ZM1026.29,566.5c-1.45-1.26-3.36-1.88-5.74-1.88-.36,0-.74.01-1.12.04l-2.34.17c-2.49.15-4.86.59-7.12,1.31-.32,5.89-.52,11.78-.59,17.67,1.36-.33,2.81-.57,4.36-.73l5.02-.51c3.79-.44,6.42-1.39,7.87-2.84.18-.18.35-.37.51-.58.15-.19.29-.4.41-.61.04-.06.07-.12.09-.18.13-.18.22-.39.31-.59.11-.25.21-.51.3-.77h0c.08-2.22.17-4.43.26-6.64h0c-.36-1.61-1.1-2.9-2.22-3.86ZM1030.32,637.22c-1.87-15.88-2.66-31.79-2.43-47.73-2.27.99-4.95,1.66-8.08,2.02h-.08s-.08.02-.08.02l-5,.5c-2.1.21-3.87.62-5.29,1.21.11,12.2.75,24.39,1.99,36.58.68,6.59-.11,13.31,2.19,19.83,1.86,5.23,5.27,6.67,10.18,5.94,4.88-.75,6.52-4.15,6.59-8.63.04-3.25.01-6.5.01-9.74ZM920.88,620.04c.38.61.79,1.14,1.24,1.58,1.92,1.89,5.2,2.85,9.75,2.85,1.83,0,3.48-.15,4.93-.45.5-1.32,1.01-2.65,1.52-3.98h-17.44ZM962.59,627.94c-1.17-1.44-2.71-2.17-4.6-2.17-.7,0-1.56.17-2.61.52,2.65,3.75,5.35,7.46,8.12,11.12.57-1.12.85-2.33.85-3.61,0-2.45-.58-4.4-1.76-5.86ZM973.72,620.69v18.47c0,3.24.98,5.72,2.93,7.45,1.96,1.73,4.44,2.6,7.45,2.6s5.53-.87,7.54-2.6c.49-.42.93-.9,1.31-1.42-6.72-7.94-13.11-16.11-19.23-24.5ZM1026.29,566.5c-1.45-1.26-3.36-1.88-5.74-1.88-.36,0-.74.01-1.12.04l-2.34.17c-2.49.15-4.86.59-7.12,1.31-.32,5.89-.52,11.78-.59,17.67,1.36-.33,2.81-.57,4.36-.73l5.02-.51c3.79-.44,6.42-1.39,7.87-2.84.18-.18.35-.37.51-.58.15-.19.29-.4.41-.61.04-.06.07-.12.09-.18.13-.18.22-.39.31-.59.11-.25.21-.51.3-.77h0c.08-2.22.17-4.43.26-6.64h0c-.36-1.61-1.1-2.9-2.22-3.86ZM1030.32,637.22c-1.87-15.88-2.66-31.79-2.43-47.73-2.27.99-4.95,1.66-8.08,2.02h-.08s-.08.02-.08.02l-5,.5c-2.1.21-3.87.62-5.29,1.21.11,12.2.75,24.39,1.99,36.58.68,6.59-.11,13.31,2.19,19.83,1.86,5.23,5.27,6.67,10.18,5.94,4.88-.75,6.52-4.15,6.59-8.63.04-3.25.01-6.5.01-9.74ZM920.88,620.04c.38.61.79,1.14,1.24,1.58,1.92,1.89,5.2,2.85,9.75,2.85,1.83,0,3.48-.15,4.93-.45.5-1.32,1.01-2.65,1.52-3.98h-17.44ZM962.59,627.94c-1.17-1.44-2.71-2.17-4.6-2.17-.7,0-1.56.17-2.61.52,2.65,3.75,5.35,7.46,8.12,11.12.57-1.12.85-2.33.85-3.61,0-2.45-.58-4.4-1.76-5.86ZM973.72,620.69v18.47c0,3.24.98,5.72,2.93,7.45,1.96,1.73,4.44,2.6,7.45,2.6s5.53-.87,7.54-2.6c.49-.42.93-.9,1.31-1.42-6.72-7.94-13.11-16.11-19.23-24.5ZM1026.29,566.5c-1.45-1.26-3.36-1.88-5.74-1.88-.36,0-.74.01-1.12.04l-2.34.17c-2.49.15-4.86.59-7.12,1.31-.32,5.89-.52,11.78-.59,17.67,1.36-.33,2.81-.57,4.36-.73l5.02-.51c3.79-.44,6.42-1.39,7.87-2.84.18-.18.35-.37.51-.58.15-.19.29-.4.41-.61.04-.06.07-.12.09-.18.13-.18.22-.39.31-.59.11-.25.21-.51.3-.77h0c.08-2.22.17-4.43.26-6.64h0c-.36-1.61-1.1-2.9-2.22-3.86ZM1030.32,637.22c-1.87-15.88-2.66-31.79-2.43-47.73-2.27.99-4.95,1.66-8.08,2.02h-.08s-.08.02-.08.02l-5,.5c-2.1.21-3.87.62-5.29,1.21.11,12.2.75,24.39,1.99,36.58.68,6.59-.11,13.31,2.19,19.83,1.86,5.23,5.27,6.67,10.18,5.94,4.88-.75,6.52-4.15,6.59-8.63.04-3.25.01-6.5.01-9.74ZM1492.09,598.68c-21.58-44.16-52.13-81.47-88.2-114.5-2.67-2.45-4.19-5.3-4.84-8.82-2.44-13.36-6.68-26.24-10.52-39.23-6.34-21.46-15.18-41.95-25.07-62-.82-1.67-2.34-3.43-.89-5.28,1.33-1.7,3.18-.25,4.81-.16,13.06.71,25.67,3.95,38.1,7.55,32.33,9.35,58.79,26.9,76.58,56.18,4.61,7.58,7.52,15.79,10.12,24.2,1.76,5.69,6.73,8.54,11.34,7.27,5.08-1.4,7.49-6.22,6.13-12.39-.29-1.31-.66-2.6-1.07-3.87-9.49-29.1-27.73-51.63-52.96-68.33-29.91-19.82-63.82-27.63-99.05-30.26-6.34-.47-10.13-2.65-13.31-7.79-13.47-21.64-30.79-39.83-51.14-55.05-24.18-18.09-51.43-28.49-81.75-28.84-24.42-.29-47.15,7.25-67.95,19.66-36.88,22-62.01,54.85-82.2,91.89-18.24,33.43-29.73,69.34-38.48,106.21-.81,3.36-2.36,5.8-4.89,8.08-21.2,19.09-40.29,40.12-57.1,63.18-3.31,4.54-6.43,9.21-9.58,13.85.75.38,1.47.79,2.19,1.21,4.52,2.67,8.4,6.08,11.59,10.19.41-.63.83-1.26,1.26-1.88,0,0,0-.02,0-.02,2.52-3.75,5.13-7.41,7.81-11.04,9.26-12.58,19.3-24.56,29.5-36.43,2.23-2.59,4.93-4.79,7.45-7.11.96-.88,2.04-2.08,3.48-1.39,1.54.73.98,2.36.86,3.6-.98,10.24-2.15,20.47-3.07,30.72-.26,2.87-.49,5.73-.69,8.6,1.92-.42,3.89-.7,5.91-.83l2.27-.16c.61-.05,1.22-.07,1.81-.07,3.59,0,6.4.87,8.53,1.98.83-15.92,2.19-31.79,5.16-47.52,1-5.24,1.44-10.58,2.35-15.85.74-4.28,2.75-7.32,6.01-9.94,29.37-23.61,60.3-44.87,93.54-62.7,28.69-15.36,58.73-27.26,89.76-36.99,21.01-6.59,42.34-11.53,64.03-14.6,14.3-2.03,28.75-3.66,43.32-3.24,4.66.14,6.86,2.53,8.73,6.08,8.7,16.56,16.77,33.4,22.99,51.11,3.24,9.18,6.13,18.44,8.94,27.73.53,1.72,1.62,4.14-.14,5.38-2.05,1.44-3.28-1.1-4.66-2.2-21.16-16.72-44.08-30.75-67.47-44.04-13.78-7.81-28.03-14.67-42.42-21.26-3.75-1.72-6.94-1.68-10.18.68-3.18,2.33-3.62,5.6-3.25,9.21.37,3.67,3.33,5.03,5.98,6.39,10.35,5.3,20.89,10.24,31.22,15.59,17.12,8.87,33.59,18.83,49.54,29.7,15.3,10.43,29.85,21.78,44.46,33.1,5.44,4.2,7.42,9.48,8.37,15.54,5.8,36.86,8.43,73.95,6.92,111.24-1.13,28.26-4.61,56.26-10.36,83.98-6.69,32.27-16.73,63.41-30.66,93.27-3.05,6.56-6.6,12.88-9.93,19.32-1.46,2.86-3.85,3.99-7,4.05-15.12.25-30.03-1.8-45-3.59-14.05-1.66-27.8-4.7-41.56-7.81-1.95-.44-4.84-.13-4.95-2.83-.09-2.23,2.67-2.49,4.32-3.17,27.07-11.12,52.83-24.84,77.8-40.03,11.21-6.85,22.02-14.37,32.84-21.83,6.8-4.7,7.92-8.94,4.36-13.74-3.81-5.16-9.4-5.78-15.6-1.17-25.68,19.08-53.25,35.01-81.95,49-16.82,8.2-34.15,15.25-51.95,21.06-3.19,1.03-5.94.3-8.87-.76-34.94-12.64-68.51-28.27-99.78-48.31-36.86-23.62-71.75-49.8-101.46-82.36-1.22-1.33-2.42-2.67-3.61-4.02-.47.51-.95.97-1.41,1.36-3.63,3.13-8.26,4.78-13.41,4.78-1.44,0-2.83-.13-4.16-.38,10.68,12.46,22.12,24.26,34.36,35.38,24.32,22.09,50.05,42.38,78.2,59.5,25.77,15.68,52.09,30.25,80.15,41.48,1.52.61,3.77,1,3.76,3.02-.02,2.12-2.24,2.31-3.87,2.7-30.88,7.34-62.13,12.27-93.93,11.44-33.49-.88-66.36-6.01-95.94-22.83-28.92-16.46-48.91-40.33-55.94-73.82-1.9-9.09-2.2-18.17-2.24-30.49-.48-8.45.35-17.1,2.07-25.84-6.45-.44-12.36-1.76-17.68-3.95-2.99,15.47-3.99,31.38-2.53,47.83,2.38,26.62,12.1,50.01,28.98,70.29,25.17,30.25,59.22,44.98,96.74,52.34,27.05,5.3,54.34,6.07,81.99,3.21,27.46-2.85,54.27-7.92,80.71-15.53,8.42-2.42,16.52-4.21,25.68-1.24,32.41,10.51,65.83,16.08,99.8,18.42,1.67.11,3.67-.17,4.48,1.81.78,1.93-.78,3.23-1.8,4.53-9.67,12.35-19.8,24.3-31.88,34.36-31.4,26.13-66.27,39.62-107.62,29.05-5.39-1.38-10.04,1.5-11.49,6.72-1.22,4.39,1.92,9.43,6.94,10.8,10.15,2.75,20.44,4.7,28.43,4.5,15.87.03,28.82-2.43,41.35-6.35,21.05-6.57,39.34-18.09,55.96-32.63,16.51-14.45,30.5-30.91,41.97-49.54,1.56-2.52,3.64-2.99,6.2-3.27,16.09-1.76,32.17-3.35,47.95-7.48,27.78-7.26,53.11-18.77,74.17-38.82,22.07-21,35.08-46.75,38.52-76.68,4.35-38.06-4.68-73.97-21.34-108.06ZM1320.1,348.78c-35.44,1.64-69.99,8.8-103.68,19.3-46.84,14.6-90.67,35.97-131.78,62.82-11.34,7.4-22.77,14.64-33.19,23.36-1.1.93-2.22,2.45-3.95,1.62-1.48-.71-1.05-2.28-1.02-4.31,2.4-7.31,4.95-15.3,7.65-23.24,12.33-36.28,29.84-69.71,54.75-99.05,18.91-22.28,41.35-39.9,69.46-48.46,26.39-8.04,52.81-6.4,78.17,5.32,27.58,12.75,48.73,33,66.37,57.3,2.97,4.09,1.55,5.13-2.78,5.34ZM1418.45,797.72c-16.11,6.34-32.79,9.9-49.91,11.78-1.95.2-4.44,1.29-5.82-.93-1.2-1.93.58-3.58,1.42-5.23,15.96-31.91,27.1-65.47,35.02-100.23,11.19-49.16,13.36-98.97,10.97-149.06-.48-10.15-.79-20.59-3.54-30.62-.1-.35-.17-.76-.16-1.12.1-2.57-1.5-6.03,1.31-7.35,2.8-1.3,3.91,2.32,5.53,3.96,22.14,22.39,40.82,47.41,55.89,75.03,16.09,29.51,27.71,61.95,26.66,94.1,1.47,52.19-30.05,91.04-77.37,109.67ZM1011.35,629.82c.68,6.59-.11,13.31,2.19,19.83,1.86,5.23,5.27,6.67,10.18,5.94,4.88-.75,6.52-4.15,6.59-8.63.04-3.25.01-6.5.01-9.74-1.87-15.88-2.66-31.79-2.43-47.73-2.27.99-4.95,1.66-8.08,2.02h-.08s-.08.02-.08.02l-5,.5c-2.1.21-3.87.62-5.29,1.21.11,12.2.75,24.39,1.99,36.58ZM1026.63,579.73c.18-.18.35-.37.51-.58.15-.19.29-.4.41-.61.04-.06.07-.12.09-.18.13-.18.22-.39.31-.59.11-.25.21-.51.3-.77h0c.08-2.22.17-4.43.26-6.64h0c-.36-1.61-1.1-2.9-2.22-3.86-1.45-1.26-3.36-1.88-5.74-1.88-.36,0-.74.01-1.12.04l-2.34.17c-2.49.15-4.86.59-7.12,1.31-.32,5.89-.52,11.78-.59,17.67,1.36-.33,2.81-.57,4.36-.73l5.02-.51c3.79-.44,6.42-1.39,7.87-2.84ZM984.1,649.21c3.02,0,5.53-.87,7.54-2.6.49-.42.93-.9,1.31-1.42-6.72-7.94-13.11-16.11-19.23-24.5v18.47c0,3.24.98,5.72,2.93,7.45,1.96,1.73,4.44,2.6,7.45,2.6ZM964.35,633.8c0-2.45-.58-4.4-1.76-5.86-1.17-1.44-2.71-2.17-4.6-2.17-.7,0-1.56.17-2.61.52,2.65,3.75,5.35,7.46,8.12,11.12.57-1.12.85-2.33.85-3.61ZM931.87,624.47c1.83,0,3.48-.15,4.93-.45.5-1.32,1.01-2.65,1.52-3.98h-17.44c.38.61.79,1.14,1.24,1.58,1.92,1.89,5.2,2.85,9.75,2.85ZM933.44,633.44c-.51.02-1.04.03-1.57.03-6.97,0-12.3-1.78-15.97-5.34-1.95,5.72-3.65,11.5-5.07,17.34,5.17,2.37,11.09,3.7,17.76,4,1.38-5.32,3.02-10.67,4.85-16.03ZM1030.32,637.22c-1.87-15.88-2.66-31.79-2.43-47.73-2.27.99-4.95,1.66-8.08,2.02h-.08s-.08.02-.08.02l-5,.5c-2.1.21-3.87.62-5.29,1.21.11,12.2.75,24.39,1.99,36.58.68,6.59-.11,13.31,2.19,19.83,1.86,5.23,5.27,6.67,10.18,5.94,4.88-.75,6.52-4.15,6.59-8.63.04-3.25.01-6.5.01-9.74ZM1026.29,566.5c-1.45-1.26-3.36-1.88-5.74-1.88-.36,0-.74.01-1.12.04l-2.34.17c-2.49.15-4.86.59-7.12,1.31-.32,5.89-.52,11.78-.59,17.67,1.36-.33,2.81-.57,4.36-.73l5.02-.51c3.79-.44,6.42-1.39,7.87-2.84.18-.18.35-.37.51-.58.15-.19.29-.4.41-.61.04-.06.07-.12.09-.18.13-.18.22-.39.31-.59.11-.25.21-.51.3-.77h0c.08-2.22.17-4.43.26-6.64h0c-.36-1.61-1.1-2.9-2.22-3.86ZM973.72,620.69v18.47c0,3.24.98,5.72,2.93,7.45,1.96,1.73,4.44,2.6,7.45,2.6s5.53-.87,7.54-2.6c.49-.42.93-.9,1.31-1.42-6.72-7.94-13.11-16.11-19.23-24.5ZM962.59,627.94c-1.17-1.44-2.71-2.17-4.6-2.17-.7,0-1.56.17-2.61.52,2.65,3.75,5.35,7.46,8.12,11.12.57-1.12.85-2.33.85-3.61,0-2.45-.58-4.4-1.76-5.86ZM920.88,620.04c.38.61.79,1.14,1.24,1.58,1.92,1.89,5.2,2.85,9.75,2.85,1.83,0,3.48-.15,4.93-.45.5-1.32,1.01-2.65,1.52-3.98h-17.44ZM1026.29,566.5c-1.45-1.26-3.36-1.88-5.74-1.88-.36,0-.74.01-1.12.04l-2.34.17c-2.49.15-4.86.59-7.12,1.31-.32,5.89-.52,11.78-.59,17.67,1.36-.33,2.81-.57,4.36-.73l5.02-.51c3.79-.44,6.42-1.39,7.87-2.84.18-.18.35-.37.51-.58.15-.19.29-.4.41-.61.04-.06.07-.12.09-.18.13-.18.22-.39.31-.59.11-.25.21-.51.3-.77h0c.08-2.22.17-4.43.26-6.64h0c-.36-1.61-1.1-2.9-2.22-3.86ZM1030.32,637.22c-1.87-15.88-2.66-31.79-2.43-47.73-2.27.99-4.95,1.66-8.08,2.02h-.08s-.08.02-.08.02l-5,.5c-2.1.21-3.87.62-5.29,1.21.11,12.2.75,24.39,1.99,36.58.68,6.59-.11,13.31,2.19,19.83,1.86,5.23,5.27,6.67,10.18,5.94,4.88-.75,6.52-4.15,6.59-8.63.04-3.25.01-6.5.01-9.74ZM973.72,620.69v18.47c0,3.24.98,5.72,2.93,7.45,1.96,1.73,4.44,2.6,7.45,2.6s5.53-.87,7.54-2.6c.49-.42.93-.9,1.31-1.42-6.72-7.94-13.11-16.11-19.23-24.5ZM962.59,627.94c-1.17-1.44-2.71-2.17-4.6-2.17-.7,0-1.56.17-2.61.52,2.65,3.75,5.35,7.46,8.12,11.12.57-1.12.85-2.33.85-3.61,0-2.45-.58-4.4-1.76-5.86ZM920.88,620.04c.38.61.79,1.14,1.24,1.58,1.92,1.89,5.2,2.85,9.75,2.85,1.83,0,3.48-.15,4.93-.45.5-1.32,1.01-2.65,1.52-3.98h-17.44ZM973.72,620.69v18.47c0,3.24.98,5.72,2.93,7.45,1.96,1.73,4.44,2.6,7.45,2.6s5.53-.87,7.54-2.6c.49-.42.93-.9,1.31-1.42-6.72-7.94-13.11-16.11-19.23-24.5ZM962.59,627.94c-1.17-1.44-2.71-2.17-4.6-2.17-.7,0-1.56.17-2.61.52,2.65,3.75,5.35,7.46,8.12,11.12.57-1.12.85-2.33.85-3.61,0-2.45-.58-4.4-1.76-5.86ZM920.88,620.04c.38.61.79,1.14,1.24,1.58,1.92,1.89,5.2,2.85,9.75,2.85,1.83,0,3.48-.15,4.93-.45.5-1.32,1.01-2.65,1.52-3.98h-17.44ZM962.59,627.94c-1.17-1.44-2.71-2.17-4.6-2.17-.7,0-1.56.17-2.61.52,2.65,3.75,5.35,7.46,8.12,11.12.57-1.12.85-2.33.85-3.61,0-2.45-.58-4.4-1.76-5.86ZM920.88,620.04c.38.61.79,1.14,1.24,1.58,1.92,1.89,5.2,2.85,9.75,2.85,1.83,0,3.48-.15,4.93-.45.5-1.32,1.01-2.65,1.52-3.98h-17.44ZM962.59,627.94c-1.17-1.44-2.71-2.17-4.6-2.17-.7,0-1.56.17-2.61.52,2.65,3.75,5.35,7.46,8.12,11.12.57-1.12.85-2.33.85-3.61,0-2.45-.58-4.4-1.76-5.86ZM920.88,620.04c.38.61.79,1.14,1.24,1.58,1.92,1.89,5.2,2.85,9.75,2.85,1.83,0,3.48-.15,4.93-.45.5-1.32,1.01-2.65,1.52-3.98h-17.44ZM920.88,620.04c.38.61.79,1.14,1.24,1.58,1.92,1.89,5.2,2.85,9.75,2.85,1.83,0,3.48-.15,4.93-.45.5-1.32,1.01-2.65,1.52-3.98h-17.44ZM962.59,627.94c-1.17-1.44-2.71-2.17-4.6-2.17-.7,0-1.56.17-2.61.52,2.65,3.75,5.35,7.46,8.12,11.12.57-1.12.85-2.33.85-3.61,0-2.45-.58-4.4-1.76-5.86ZM935.76,590.82c-.13-.18-.26-.35-.4-.51-.82-.93-2.15-1.98-5.11-2.21.06.9.06,1.8,0,2.72h5.51ZM920.88,620.04c.38.61.79,1.14,1.24,1.58,1.92,1.89,5.2,2.85,9.75,2.85,1.83,0,3.48-.15,4.93-.45.5-1.32,1.01-2.65,1.52-3.98h-17.44ZM962.59,627.94c-1.17-1.44-2.71-2.17-4.6-2.17-.7,0-1.56.17-2.61.52,2.65,3.75,5.35,7.46,8.12,11.12.57-1.12.85-2.33.85-3.61,0-2.45-.58-4.4-1.76-5.86ZM920.88,620.04c.38.61.79,1.14,1.24,1.58,1.92,1.89,5.2,2.85,9.75,2.85,1.83,0,3.48-.15,4.93-.45.5-1.32,1.01-2.65,1.52-3.98h-17.44ZM962.59,627.94c-1.17-1.44-2.71-2.17-4.6-2.17-.7,0-1.56.17-2.61.52,2.65,3.75,5.35,7.46,8.12,11.12.57-1.12.85-2.33.85-3.61,0-2.45-.58-4.4-1.76-5.86ZM1030.32,637.22c-1.87-15.88-2.66-31.79-2.43-47.73-2.27.99-4.95,1.66-8.08,2.02h-.08s-.08.02-.08.02l-5,.5c-2.1.21-3.87.62-5.29,1.21.11,12.2.75,24.39,1.99,36.58.68,6.59-.11,13.31,2.19,19.83,1.86,5.23,5.27,6.67,10.18,5.94,4.88-.75,6.52-4.15,6.59-8.63.04-3.25.01-6.5.01-9.74ZM950.75,395.55c-5.05-1.59-8.11,2.04-10.83,4.9-15.28,16.11-25.65,35.09-30.84,56.65-5.27,21.85-4.75,43.8-.54,65.85,2.19,11.46,5.26,22.62,9.23,33.44,3.44-.71,7.04-1.06,10.75-1.06,2.97,0,5.84.22,8.59.68-6.92-18.17-11.75-36.76-12.95-56.43-1.59-26.16,3.24-50.43,17.43-72.7,3.64-5.72,8.55-10.24,12.72-15.42,4.93-6.14,3.11-13.83-3.56-15.91ZM920.88,620.04c.38.61.79,1.14,1.24,1.58,1.92,1.89,5.2,2.85,9.75,2.85,1.83,0,3.48-.15,4.93-.45.5-1.32,1.01-2.65,1.52-3.98h-17.44ZM962.59,627.94c-1.17-1.44-2.71-2.17-4.6-2.17-.7,0-1.56.17-2.61.52,2.65,3.75,5.35,7.46,8.12,11.12.57-1.12.85-2.33.85-3.61,0-2.45-.58-4.4-1.76-5.86ZM1030.32,637.22c-1.87-15.88-2.66-31.79-2.43-47.73-2.27.99-4.95,1.66-8.08,2.02h-.08s-.08.02-.08.02l-5,.5c-2.1.21-3.87.62-5.29,1.21.11,12.2.75,24.39,1.99,36.58.68,6.59-.11,13.31,2.19,19.83,1.86,5.23,5.27,6.67,10.18,5.94,4.88-.75,6.52-4.15,6.59-8.63.04-3.25.01-6.5.01-9.74Z"/>
  <g id="VPN">
    <path id="N" class="cls-2" d="M1367.13,537.65c2.21,2.32,3.32,5.32,3.32,8.99v90.91c0,3.78-1.11,6.83-3.32,9.16-2.22,2.32-5.11,3.48-8.67,3.48-3.89,0-7.02-1.4-9.4-4.21l-54.29-69.52v61.09c0,3.78-1.05,6.83-3.16,9.16-2.11,2.32-4.94,3.48-8.51,3.48s-6.43-1.16-8.59-3.48c-2.16-2.32-3.24-5.37-3.24-9.16v-90.91c0-3.67,1.11-6.67,3.32-8.99,2.21-2.32,5.11-3.48,8.67-3.48,4,0,7.08,1.4,9.24,4.21l54.29,69.03v-60.77c0-3.67,1.08-6.67,3.24-8.99,2.16-2.32,4.97-3.48,8.43-3.48s6.45,1.16,8.67,3.48Z"/>
    <path id="P" class="cls-2" d="M1174.53,646.79c-2.27-2.27-3.4-5.35-3.4-9.24v-90.75c0-3.78,1.03-6.7,3.08-8.75,2.05-2.05,4.97-3.08,8.75-3.08h40.67c12.42,0,22.09,3.13,29.01,9.4,6.91,6.27,10.37,15.02,10.37,26.25s-3.46,19.99-10.37,26.25c-6.92,6.27-16.58,9.4-29.01,9.4h-27.22v31.28c0,3.89-1.13,6.97-3.4,9.24-2.27,2.27-5.35,3.4-9.24,3.4s-6.97-1.13-9.24-3.4ZM1220.39,587.16c12.64,0,18.96-5.45,18.96-16.37s-6.32-16.53-18.96-16.53h-23.98v32.9h23.98Z"/>
    <path id="V" class="cls-2" d="M1148.12,535.7c1.84-1.13,3.89-1.7,6.16-1.7,3.24,0,6.16,1.08,8.75,3.24,2.59,2.16,3.89,4.81,3.89,7.94,0,1.62-.38,3.24-1.13,4.86l-43.75,92.37c-1.19,2.49-2.97,4.4-5.35,5.75-2.38,1.35-4.97,2.03-7.78,2.03s-5.4-.68-7.78-2.03c-2.38-1.35-4.16-3.27-5.35-5.75l-43.75-92.37c-.76-1.51-1.13-3.08-1.13-4.7,0-3.24,1.35-5.94,4.05-8.1,2.7-2.16,5.72-3.24,9.07-3.24,2.27,0,4.35.57,6.24,1.7,1.89,1.13,3.32,2.84,4.29,5.11l34.68,75.84,34.68-75.84c.97-2.27,2.38-3.97,4.21-5.11Z"/>
  </g>
  <g id="BRIGHTER">
    <path id="R" class="cls-1" d="M1026.29,566.5c1.67,1.45,2.51,3.63,2.51,6.53s-.73,5.25-2.18,6.7c-1.45,1.45-4.08,2.4-7.87,2.85l-5.02.5c-6.59.67-11.41,2.9-14.48,6.7-3.07,3.8-4.61,8.54-4.61,14.23v35.16c0,3.24-1,5.72-3.01,7.45s-4.52,2.6-7.53,2.6-5.5-.87-7.45-2.6c-1.95-1.73-2.93-4.21-2.93-7.45v-64.79c0-3.12.98-5.53,2.93-7.2,1.95-1.67,4.38-2.51,7.28-2.51s5.24.81,7.03,2.43c1.78,1.62,2.68,3.93,2.68,6.95v6.7c2.12-4.91,5.27-8.71,9.46-11.38s8.84-4.19,13.98-4.52l2.34-.17c2.9-.22,5.19.39,6.86,1.84Z"/>
    <path id="E" class="cls-1" d="M962.59,627.94c1.17,1.45,1.76,3.41,1.76,5.86,0,3.46-2.07,6.36-6.19,8.71-3.79,2.12-8.09,3.82-12.89,5.11-4.8,1.28-9.38,1.93-13.73,1.93-13.17,0-23.61-3.79-31.31-11.38-7.7-7.59-11.55-17.97-11.55-31.14,0-8.37,1.67-15.79,5.02-22.27,3.35-6.47,8.06-11.49,14.15-15.07,6.08-3.57,12.98-5.36,20.68-5.36s13.78,1.62,19.25,4.85c5.47,3.24,9.71,7.81,12.72,13.73,3.01,5.92,4.52,12.89,4.52,20.93,0,4.8-2.12,7.2-6.36,7.2h-49.39c.67,7.7,2.84,13.37,6.53,16.99,3.68,3.63,9.04,5.44,16.07,5.44,3.57,0,6.72-.45,9.46-1.34,2.73-.89,5.83-2.12,9.29-3.68,3.35-1.78,5.8-2.68,7.37-2.68,1.9,0,3.43.73,4.6,2.18ZM915.38,584.41c-3.41,3.57-5.44,8.71-6.11,15.4h37.84c-.23-6.81-1.9-11.97-5.02-15.49-3.13-3.52-7.48-5.27-13.06-5.27s-10.24,1.79-13.64,5.36Z"/>
    <path id="T" class="cls-1" d="M890.69,641.17c0,2.68-1.09,4.72-3.26,6.11s-5.27,1.98-9.29,1.76l-4.52-.34c-18.75-1.34-28.12-11.38-28.12-30.14v-36.5h-8.37c-3.01,0-5.33-.67-6.95-2.01-1.62-1.34-2.43-3.29-2.43-5.86s.81-4.52,2.43-5.86c1.62-1.34,3.93-2.01,6.95-2.01h8.37v-15.4c0-3.01.95-5.41,2.84-7.2,1.9-1.78,4.46-2.68,7.7-2.68s5.63.89,7.53,2.68c1.9,1.79,2.85,4.19,2.85,7.2v15.4h14.23c3.01,0,5.33.67,6.95,2.01,1.62,1.34,2.43,3.29,2.43,5.86s-.81,4.52-2.43,5.86c-1.62,1.34-3.93,2.01-6.95,2.01h-14.23v38c0,8.26,3.79,12.67,11.38,13.23l4.52.33c5.58.34,8.37,2.85,8.37,7.53Z"/>
    <path id="GH" class="cls-1" d="M799.47,564.33c-5.93,0-11.2,1.13-15.83,3.42-4.63,2.29-8.35,5.62-11.12,9.97v-39.01c0-2.9-.95-5.19-2.85-6.86-1.92-1.67-4.43-2.51-7.53-2.51s-5.67.89-7.63,2.68-2.92,4.13-2.92,7.03v39.68c-2.46-4.58-6.03-8.13-10.71-10.64-4.69-2.51-10.05-3.76-16.07-3.76-7.14,0-13.51,1.69-19.09,5.1s-9.91,8.2-12.98,14.4c-3.07,6.19-4.59,13.32-4.59,21.36s1.56,15.12,4.69,21.26,7.44,10.9,12.97,14.31c5.52,3.4,11.87,5.12,19.01,5.12,6.03,0,11.38-1.26,16.07-3.78,4.69-2.51,8.26-6.05,10.71-10.62v10.71c0,14.27-7.31,21.43-21.93,21.43-4.13,0-7.79-.45-10.98-1.34-3.18-.91-6.77-2.18-10.79-3.85-1.56-.67-3.07-1.26-4.52-1.77-1.45-.5-2.68-.74-3.68-.74-1.92,0-3.44.71-4.61,2.18-1.17,1.43-1.75,3.4-1.75,5.86,0,3.44,2.06,6.42,6.19,8.87,8.15,4.56,18.3,6.86,30.47,6.86,13.95,0,24.5-3.31,31.64-9.88,7.01-6.47,10.58-15.96,10.7-28.42.02-.02.02-.04,0-.06.13-.67.19-1.4.19-2.16v-37.33c0-6.36,1.8-11.44,5.43-15.24,3.63-3.79,8.46-5.69,14.49-5.69,5.12,0,8.89,1.36,11.29,4.09,2.4,2.73,3.61,7.07,3.61,12.98v41.19c0,3.13.93,5.58,2.85,7.37,1.9,1.77,4.45,2.68,7.7,2.68s5.77-.91,7.61-2.68c1.84-1.79,2.77-4.24,2.77-7.37v-41.19c0-22.43-9.62-33.65-28.8-33.65ZM745.98,623.1c-3.74,4.35-8.95,6.53-15.64,6.53s-11.78-2.18-15.57-6.53c-3.79-4.35-5.69-10.32-5.69-17.91s1.9-13.73,5.69-18.08c3.79-4.35,8.98-6.53,15.57-6.53s11.91,2.18,15.64,6.53c3.74,4.35,5.62,10.38,5.62,18.08s-1.88,13.56-5.62,17.91Z"/>
    <path id="I" class="cls-1" d="M663.56,546.66c-2.23-2.06-3.35-4.77-3.35-8.12s1.11-6.03,3.35-8.04c2.23-2.01,5.25-3.01,9.04-3.01s6.67,1,8.96,3.01c2.29,2.01,3.43,4.69,3.43,8.04s-1.12,6.06-3.35,8.12c-2.23,2.07-5.25,3.1-9.04,3.1s-6.81-1.03-9.04-3.1ZM665.15,646.61c-1.95-1.73-2.93-4.21-2.93-7.45v-64.62c0-3.24.98-5.69,2.93-7.37,1.95-1.67,4.44-2.51,7.45-2.51s5.52.84,7.53,2.51,3.01,4.13,3.01,7.37v64.62c0,3.24-1,5.72-3.01,7.45s-4.52,2.6-7.53,2.6-5.5-.87-7.45-2.6Z"/>
    <path id="R-2" data-name="R" class="cls-1" d="M655.32,566.5c1.67,1.45,2.51,3.63,2.51,6.53s-.73,5.25-2.18,6.7c-1.45,1.45-4.08,2.4-7.87,2.85l-5.02.5c-6.59.67-11.41,2.9-14.48,6.7-3.07,3.8-4.6,8.54-4.6,14.23v35.16c0,3.24-1,5.72-3.01,7.45s-4.52,2.6-7.53,2.6-5.5-.87-7.45-2.6c-1.95-1.73-2.93-4.21-2.93-7.45v-64.79c0-3.12.98-5.53,2.93-7.2,1.95-1.67,4.38-2.51,7.28-2.51s5.25.81,7.03,2.43c1.78,1.62,2.68,3.93,2.68,6.95v6.7c2.12-4.91,5.27-8.71,9.46-11.38s8.84-4.19,13.98-4.52l2.34-.17c2.9-.22,5.19.39,6.86,1.84Z"/>
    <path id="B" class="cls-1" d="M587.66,594.96c3.74,5.02,5.61,11.16,5.61,18.42,0,10.04-3.6,17.91-10.8,23.61-7.2,5.69-17.11,8.54-29.72,8.54h-43.19c-3.24,0-5.78-.89-7.62-2.68-1.84-1.78-2.76-4.3-2.76-7.53v-97.6c0-3.24.92-5.75,2.76-7.53,1.84-1.78,4.38-2.68,7.62-2.68h41.52c12.28,0,21.9,2.71,28.88,8.12,6.97,5.42,10.46,12.98,10.46,22.68,0,6.25-1.65,11.66-4.94,16.24-3.29,4.58-7.84,7.93-13.64,10.05,6.81,1.9,12.08,5.36,15.82,10.38ZM520.27,577.21h27.29c14.84,0,22.27-5.52,22.27-16.57,0-5.58-1.84-9.71-5.52-12.39-3.68-2.68-9.27-4.02-16.74-4.02h-27.29v32.98ZM567.48,624.59c3.57-2.79,5.36-7.14,5.36-13.06s-1.82-10.32-5.44-13.23c-3.63-2.9-9.29-4.35-16.99-4.35h-30.13v34.82h30.13c7.81,0,13.5-1.39,17.08-4.19Z"/>
  </g>
</svg>