<?xml version="1.0" encoding="UTF-8"?>
<svg xmlns="http://www.w3.org/2000/svg" version="1.1" viewBox="0 0 2033 1133.3">
  <defs>
    <style>
      .cls-1 {
        fill: #f9cbcc;
      }

      .cls-1, .cls-2, .cls-3, .cls-4 {
        stroke-width: 0px;
      }

      .cls-2 {
        fill: #eb5d18;
      }

      .cls-3 {
        fill: #223a80;
      }

      .cls-4 {
        fill: #fff;
      }
    </style>
  </defs>
  <g id="BG">
    <rect class="cls-3" x="2.5" width="2028.2" height="1134"/>
  </g>
  <g id="WHITE">
    <path id="ATOM" class="cls-1" d="M1030.3,637.2c-1.9-15.9-2.7-31.8-2.4-47.7-2.3,1-5,1.7-8.1,2h-.2s-5,.5-5,.5c-2.1.2-3.9.6-5.3,1.2.1,12.2.8,24.4,2,36.6.7,6.6-.1,13.3,2.2,19.8,1.9,5.2,5.3,6.7,10.2,5.9,4.9-.8,6.5-4.2,6.6-8.6,0-3.2,0-6.5,0-9.7h0ZM920.9,620c.4.6.8,1.1,1.2,1.6,1.9,1.9,5.2,2.8,9.8,2.8s3.5-.2,4.9-.5c.5-1.3,1-2.7,1.5-4h-17.4ZM962.6,627.9c-1.2-1.4-2.7-2.2-4.6-2.2s-1.6.2-2.6.5c2.7,3.8,5.3,7.5,8.1,11.1.6-1.1.8-2.3.8-3.6,0-2.5-.6-4.4-1.8-5.9h0ZM1030.3,637.2c-1.9-15.9-2.7-31.8-2.4-47.7-2.3,1-5,1.7-8.1,2h-.2s-5,.5-5,.5c-2.1.2-3.9.6-5.3,1.2.1,12.2.8,24.4,2,36.6.7,6.6-.1,13.3,2.2,19.8,1.9,5.2,5.3,6.7,10.2,5.9,4.9-.8,6.5-4.2,6.6-8.6,0-3.2,0-6.5,0-9.7h0ZM920.9,620c.4.6.8,1.1,1.2,1.6,1.9,1.9,5.2,2.8,9.8,2.8s3.5-.2,4.9-.5c.5-1.3,1-2.7,1.5-4h-17.4ZM962.6,627.9c-1.2-1.4-2.7-2.2-4.6-2.2s-1.6.2-2.6.5c2.7,3.8,5.3,7.5,8.1,11.1.6-1.1.8-2.3.8-3.6,0-2.5-.6-4.4-1.8-5.9h0ZM920.9,620c.4.6.8,1.1,1.2,1.6,1.9,1.9,5.2,2.8,9.8,2.8s3.5-.2,4.9-.5c.5-1.3,1-2.7,1.5-4h-17.4ZM962.6,627.9c-1.2-1.4-2.7-2.2-4.6-2.2s-1.6.2-2.6.5c2.7,3.8,5.3,7.5,8.1,11.1.6-1.1.8-2.3.8-3.6,0-2.5-.6-4.4-1.8-5.9h0ZM920.9,620c.4.6.8,1.1,1.2,1.6,1.9,1.9,5.2,2.8,9.8,2.8s3.5-.2,4.9-.5c.5-1.3,1-2.7,1.5-4h-17.4ZM958.4,598.4c-4.3-6.5-3.8-12,.1-18.4,0,0,0-.2.2-.2-2.8-4.4-6.5-8-10.9-10.6-1-.6-2.1-1.2-3.2-1.7h0c-.2,0-.5,0-.8,0-1.1,0-1.8-.5-2.3-1.3-3.9-1.3-8.3-2-13-2s-5,.2-7.4.6c1.9,4.5,3.9,8.8,6.1,13.2.2.3.3.7.5,1,.4,0,.9,0,1.4,0,5.6,0,9.9,1.8,13.1,5.3,3.1,3.5,4.8,8.7,5,15.5h-19.5s0,0,0,0c-1.8,3.7-3.5,7.4-5.1,11.1h36.2c3,0,4.9-1.2,5.8-3.6-2-3-4-6-6-9h0ZM962.6,627.9c-1.2-1.4-2.7-2.2-4.6-2.2s-1.6.2-2.6.5c2.7,3.8,5.3,7.5,8.1,11.1.6-1.1.8-2.3.8-3.6,0-2.5-.6-4.4-1.8-5.9h0ZM920.9,620c.4.6.8,1.1,1.2,1.6,1.9,1.9,5.2,2.8,9.8,2.8s3.5-.2,4.9-.5c.5-1.3,1-2.7,1.5-4h-17.4ZM962.6,627.9c-1.2-1.4-2.7-2.2-4.6-2.2s-1.6.2-2.6.5c2.7,3.8,5.3,7.5,8.1,11.1.6-1.1.8-2.3.8-3.6,0-2.5-.6-4.4-1.8-5.9h0ZM920.9,620c.4.6.8,1.1,1.2,1.6,1.9,1.9,5.2,2.8,9.8,2.8s3.5-.2,4.9-.5c.5-1.3,1-2.7,1.5-4h-17.4ZM962.6,627.9c-1.2-1.4-2.7-2.2-4.6-2.2s-1.6.2-2.6.5c2.7,3.8,5.3,7.5,8.1,11.1.6-1.1.8-2.3.8-3.6,0-2.5-.6-4.4-1.8-5.9h0ZM973.7,620.7v18.5c0,3.2,1,5.7,2.9,7.5,2,1.7,4.4,2.6,7.5,2.6s5.5-.9,7.5-2.6c.5-.4.9-.9,1.3-1.4-6.7-7.9-13.1-16.1-19.2-24.5ZM920.9,620c.4.6.8,1.1,1.2,1.6,1.9,1.9,5.2,2.8,9.8,2.8s3.5-.2,4.9-.5c.5-1.3,1-2.7,1.5-4h-17.4ZM962.6,627.9c-1.2-1.4-2.7-2.2-4.6-2.2s-1.6.2-2.6.5c2.7,3.8,5.3,7.5,8.1,11.1.6-1.1.8-2.3.8-3.6,0-2.5-.6-4.4-1.8-5.9h0ZM973.7,620.7v18.5c0,3.2,1,5.7,2.9,7.5,2,1.7,4.4,2.6,7.5,2.6s5.5-.9,7.5-2.6c.5-.4.9-.9,1.3-1.4-6.7-7.9-13.1-16.1-19.2-24.5ZM1026.3,566.5c-1.4-1.3-3.4-1.9-5.7-1.9s-.7,0-1.1,0l-2.3.2c-2.5.2-4.9.6-7.1,1.3-.3,5.9-.5,11.8-.6,17.7,1.4-.3,2.8-.6,4.4-.7l5-.5c3.8-.4,6.4-1.4,7.9-2.8.2-.2.3-.4.5-.6.2-.2.3-.4.4-.6,0,0,0-.1,0-.2.1-.2.2-.4.3-.6.1-.2.2-.5.3-.8h0c0-2.2.2-4.4.3-6.6h0c-.4-1.6-1.1-2.9-2.2-3.9h0ZM1030.3,637.2c-1.9-15.9-2.7-31.8-2.4-47.7-2.3,1-5,1.7-8.1,2h-.2s-5,.5-5,.5c-2.1.2-3.9.6-5.3,1.2.1,12.2.8,24.4,2,36.6.7,6.6-.1,13.3,2.2,19.8,1.9,5.2,5.3,6.7,10.2,5.9,4.9-.8,6.5-4.2,6.6-8.6,0-3.2,0-6.5,0-9.7h0ZM920.9,620c.4.6.8,1.1,1.2,1.6,1.9,1.9,5.2,2.8,9.8,2.8s3.5-.2,4.9-.5c.5-1.3,1-2.7,1.5-4h-17.4ZM962.6,627.9c-1.2-1.4-2.7-2.2-4.6-2.2s-1.6.2-2.6.5c2.7,3.8,5.3,7.5,8.1,11.1.6-1.1.8-2.3.8-3.6,0-2.5-.6-4.4-1.8-5.9h0ZM973.7,620.7v18.5c0,3.2,1,5.7,2.9,7.5,2,1.7,4.4,2.6,7.5,2.6s5.5-.9,7.5-2.6c.5-.4.9-.9,1.3-1.4-6.7-7.9-13.1-16.1-19.2-24.5ZM1026.3,566.5c-1.4-1.3-3.4-1.9-5.7-1.9s-.7,0-1.1,0l-2.3.2c-2.5.2-4.9.6-7.1,1.3-.3,5.9-.5,11.8-.6,17.7,1.4-.3,2.8-.6,4.4-.7l5-.5c3.8-.4,6.4-1.4,7.9-2.8.2-.2.3-.4.5-.6.2-.2.3-.4.4-.6,0,0,0-.1,0-.2.1-.2.2-.4.3-.6.1-.2.2-.5.3-.8h0c0-2.2.2-4.4.3-6.6h0c-.4-1.6-1.1-2.9-2.2-3.9h0ZM1030.3,637.2c-1.9-15.9-2.7-31.8-2.4-47.7-2.3,1-5,1.7-8.1,2h-.2s-5,.5-5,.5c-2.1.2-3.9.6-5.3,1.2.1,12.2.8,24.4,2,36.6.7,6.6-.1,13.3,2.2,19.8,1.9,5.2,5.3,6.7,10.2,5.9,4.9-.8,6.5-4.2,6.6-8.6,0-3.2,0-6.5,0-9.7h0ZM920.9,620c.4.6.8,1.1,1.2,1.6,1.9,1.9,5.2,2.8,9.8,2.8s3.5-.2,4.9-.5c.5-1.3,1-2.7,1.5-4h-17.4ZM962.6,627.9c-1.2-1.4-2.7-2.2-4.6-2.2s-1.6.2-2.6.5c2.7,3.8,5.3,7.5,8.1,11.1.6-1.1.8-2.3.8-3.6,0-2.5-.6-4.4-1.8-5.9h0ZM973.7,620.7v18.5c0,3.2,1,5.7,2.9,7.5,2,1.7,4.4,2.6,7.5,2.6s5.5-.9,7.5-2.6c.5-.4.9-.9,1.3-1.4-6.7-7.9-13.1-16.1-19.2-24.5ZM1026.3,566.5c-1.4-1.3-3.4-1.9-5.7-1.9s-.7,0-1.1,0l-2.3.2c-2.5.2-4.9.6-7.1,1.3-.3,5.9-.5,11.8-.6,17.7,1.4-.3,2.8-.6,4.4-.7l5-.5c3.8-.4,6.4-1.4,7.9-2.8.2-.2.3-.4.5-.6.2-.2.3-.4.4-.6,0,0,0-.1,0-.2.1-.2.2-.4.3-.6.1-.2.2-.5.3-.8h0c0-2.2.2-4.4.3-6.6h0c-.4-1.6-1.1-2.9-2.2-3.9h0ZM1030.3,637.2c-1.9-15.9-2.7-31.8-2.4-47.7-2.3,1-5,1.7-8.1,2h-.2s-5,.5-5,.5c-2.1.2-3.9.6-5.3,1.2.1,12.2.8,24.4,2,36.6.7,6.6-.1,13.3,2.2,19.8,1.9,5.2,5.3,6.7,10.2,5.9,4.9-.8,6.5-4.2,6.6-8.6,0-3.2,0-6.5,0-9.7h0ZM1492.1,598.7c-21.6-44.2-52.1-81.5-88.2-114.5-2.7-2.5-4.2-5.3-4.8-8.8-2.4-13.4-6.7-26.2-10.5-39.2-6.3-21.5-15.2-42-25.1-62-.8-1.7-2.3-3.4-.9-5.3,1.3-1.7,3.2-.2,4.8-.2,13.1.7,25.7,4,38.1,7.5,32.3,9.4,58.8,26.9,76.6,56.2,4.6,7.6,7.5,15.8,10.1,24.2,1.8,5.7,6.7,8.5,11.3,7.3,5.1-1.4,7.5-6.2,6.1-12.4-.3-1.3-.7-2.6-1.1-3.9-9.5-29.1-27.7-51.6-53-68.3-29.9-19.8-63.8-27.6-99.1-30.3-6.3-.5-10.1-2.6-13.3-7.8-13.5-21.6-30.8-39.8-51.1-55-24.2-18.1-51.4-28.5-81.8-28.8-24.4-.3-47.2,7.2-67.9,19.7-36.9,22-62,54.9-82.2,91.9-18.2,33.4-29.7,69.3-38.5,106.2-.8,3.4-2.4,5.8-4.9,8.1-21.2,19.1-40.3,40.1-57.1,63.2-3.3,4.5-6.4,9.2-9.6,13.8.8.4,1.5.8,2.2,1.2,4.5,2.7,8.4,6.1,11.6,10.2.4-.6.8-1.3,1.3-1.9h0c2.5-3.8,5.1-7.4,7.8-11.1,9.3-12.6,19.3-24.6,29.5-36.4,2.2-2.6,4.9-4.8,7.5-7.1,1-.9,2-2.1,3.5-1.4,1.5.7,1,2.4.9,3.6-1,10.2-2.2,20.5-3.1,30.7-.3,2.9-.5,5.7-.7,8.6,1.9-.4,3.9-.7,5.9-.8l2.3-.2c.6,0,1.2,0,1.8,0,3.6,0,6.4.9,8.5,2,.8-15.9,2.2-31.8,5.2-47.5,1-5.2,1.4-10.6,2.3-15.9.7-4.3,2.8-7.3,6-9.9,29.4-23.6,60.3-44.9,93.5-62.7,28.7-15.4,58.7-27.3,89.8-37,21-6.6,42.3-11.5,64-14.6,14.3-2,28.8-3.7,43.3-3.2,4.7.1,6.9,2.5,8.7,6.1,8.7,16.6,16.8,33.4,23,51.1,3.2,9.2,6.1,18.4,8.9,27.7.5,1.7,1.6,4.1-.1,5.4-2.1,1.4-3.3-1.1-4.7-2.2-21.2-16.7-44.1-30.8-67.5-44-13.8-7.8-28-14.7-42.4-21.3-3.8-1.7-6.9-1.7-10.2.7-3.2,2.3-3.6,5.6-3.2,9.2.4,3.7,3.3,5,6,6.4,10.3,5.3,20.9,10.2,31.2,15.6,17.1,8.9,33.6,18.8,49.5,29.7,15.3,10.4,29.8,21.8,44.5,33.1,5.4,4.2,7.4,9.5,8.4,15.5,5.8,36.9,8.4,74,6.9,111.2-1.1,28.3-4.6,56.3-10.4,84-6.7,32.3-16.7,63.4-30.7,93.3-3.1,6.6-6.6,12.9-9.9,19.3-1.5,2.9-3.8,4-7,4-15.1.2-30-1.8-45-3.6-14.1-1.7-27.8-4.7-41.6-7.8-1.9-.4-4.8-.1-4.9-2.8,0-2.2,2.7-2.5,4.3-3.2,27.1-11.1,52.8-24.8,77.8-40,11.2-6.8,22-14.4,32.8-21.8,6.8-4.7,7.9-8.9,4.4-13.7-3.8-5.2-9.4-5.8-15.6-1.2-25.7,19.1-53.2,35-81.9,49-16.8,8.2-34.2,15.2-51.9,21.1-3.2,1-5.9.3-8.9-.8-34.9-12.6-68.5-28.3-99.8-48.3-36.9-23.6-71.8-49.8-101.5-82.4-1.2-1.3-2.4-2.7-3.6-4-.5.5-1,1-1.4,1.4-3.6,3.1-8.3,4.8-13.4,4.8s-2.8-.1-4.2-.4c10.7,12.5,22.1,24.3,34.4,35.4,24.3,22.1,50.1,42.4,78.2,59.5,25.8,15.7,52.1,30.2,80.2,41.5,1.5.6,3.8,1,3.8,3,0,2.1-2.2,2.3-3.9,2.7-30.9,7.3-62.1,12.3-93.9,11.4-33.5-.9-66.4-6-95.9-22.8-28.9-16.5-48.9-40.3-55.9-73.8-1.9-9.1-2.2-18.2-2.2-30.5-.5-8.5.3-17.1,2.1-25.8-6.5-.4-12.4-1.8-17.7-4-3,15.5-4,31.4-2.5,47.8,2.4,26.6,12.1,50,29,70.3,25.2,30.2,59.2,45,96.7,52.3,27.1,5.3,54.3,6.1,82,3.2,27.5-2.8,54.3-7.9,80.7-15.5,8.4-2.4,16.5-4.2,25.7-1.2,32.4,10.5,65.8,16.1,99.8,18.4,1.7.1,3.7-.2,4.5,1.8.8,1.9-.8,3.2-1.8,4.5-9.7,12.3-19.8,24.3-31.9,34.4-31.4,26.1-66.3,39.6-107.6,29-5.4-1.4-10,1.5-11.5,6.7-1.2,4.4,1.9,9.4,6.9,10.8,10.2,2.8,20.4,4.7,28.4,4.5,15.9,0,28.8-2.4,41.3-6.3,21.1-6.6,39.3-18.1,56-32.6,16.5-14.5,30.5-30.9,42-49.5,1.6-2.5,3.6-3,6.2-3.3,16.1-1.8,32.2-3.3,47.9-7.5,27.8-7.3,53.1-18.8,74.2-38.8,22.1-21,35.1-46.8,38.5-76.7,4.3-38.1-4.7-74-21.3-108.1h0ZM1320.1,348.8c-35.4,1.6-70,8.8-103.7,19.3-46.8,14.6-90.7,36-131.8,62.8-11.3,7.4-22.8,14.6-33.2,23.4-1.1.9-2.2,2.5-3.9,1.6-1.5-.7-1.1-2.3-1-4.3,2.4-7.3,4.9-15.3,7.7-23.2,12.3-36.3,29.8-69.7,54.8-99,18.9-22.3,41.3-39.9,69.5-48.5,26.4-8,52.8-6.4,78.2,5.3,27.6,12.8,48.7,33,66.4,57.3,3,4.1,1.6,5.1-2.8,5.3h0ZM1418.4,797.7c-16.1,6.3-32.8,9.9-49.9,11.8-1.9.2-4.4,1.3-5.8-.9-1.2-1.9.6-3.6,1.4-5.2,16-31.9,27.1-65.5,35-100.2,11.2-49.2,13.4-99,11-149.1-.5-10.2-.8-20.6-3.5-30.6,0-.3-.2-.8-.2-1.1,0-2.6-1.5-6,1.3-7.3,2.8-1.3,3.9,2.3,5.5,4,22.1,22.4,40.8,47.4,55.9,75,16.1,29.5,27.7,62,26.7,94.1,1.5,52.2-30.1,91-77.4,109.7h0ZM1011.3,629.8c.7,6.6-.1,13.3,2.2,19.8,1.9,5.2,5.3,6.7,10.2,5.9,4.9-.8,6.5-4.2,6.6-8.6,0-3.2,0-6.5,0-9.7-1.9-15.9-2.7-31.8-2.4-47.7-2.3,1-5,1.7-8.1,2h-.2s-5,.5-5,.5c-2.1.2-3.9.6-5.3,1.2.1,12.2.8,24.4,2,36.6h0ZM1026.6,579.7c.2-.2.3-.4.5-.6.2-.2.3-.4.4-.6,0,0,0-.1,0-.2.1-.2.2-.4.3-.6.1-.2.2-.5.3-.8h0c0-2.2.2-4.4.3-6.6h0c-.4-1.6-1.1-2.9-2.2-3.9-1.4-1.3-3.4-1.9-5.7-1.9s-.7,0-1.1,0l-2.3.2c-2.5.2-4.9.6-7.1,1.3-.3,5.9-.5,11.8-.6,17.7,1.4-.3,2.8-.6,4.4-.7l5-.5c3.8-.4,6.4-1.4,7.9-2.8h0ZM984.1,649.2c3,0,5.5-.9,7.5-2.6.5-.4.9-.9,1.3-1.4-6.7-7.9-13.1-16.1-19.2-24.5v18.5c0,3.2,1,5.7,2.9,7.5,2,1.7,4.4,2.6,7.5,2.6ZM964.3,633.8c0-2.5-.6-4.4-1.8-5.9-1.2-1.4-2.7-2.2-4.6-2.2s-1.6.2-2.6.5c2.7,3.8,5.3,7.5,8.1,11.1.6-1.1.8-2.3.8-3.6h0ZM931.9,624.5c1.8,0,3.5-.2,4.9-.5.5-1.3,1-2.7,1.5-4h-17.4c.4.6.8,1.1,1.2,1.6,1.9,1.9,5.2,2.8,9.8,2.8ZM933.4,633.4c-.5,0-1,0-1.6,0-7,0-12.3-1.8-16-5.3-2,5.7-3.7,11.5-5.1,17.3,5.2,2.4,11.1,3.7,17.8,4,1.4-5.3,3-10.7,4.8-16ZM1030.3,637.2c-1.9-15.9-2.7-31.8-2.4-47.7-2.3,1-5,1.7-8.1,2h-.2s-5,.5-5,.5c-2.1.2-3.9.6-5.3,1.2.1,12.2.8,24.4,2,36.6.7,6.6-.1,13.3,2.2,19.8,1.9,5.2,5.3,6.7,10.2,5.9,4.9-.8,6.5-4.2,6.6-8.6,0-3.2,0-6.5,0-9.7h0ZM1026.3,566.5c-1.4-1.3-3.4-1.9-5.7-1.9s-.7,0-1.1,0l-2.3.2c-2.5.2-4.9.6-7.1,1.3-.3,5.9-.5,11.8-.6,17.7,1.4-.3,2.8-.6,4.4-.7l5-.5c3.8-.4,6.4-1.4,7.9-2.8.2-.2.3-.4.5-.6.2-.2.3-.4.4-.6,0,0,0-.1,0-.2.1-.2.2-.4.3-.6.1-.2.2-.5.3-.8h0c0-2.2.2-4.4.3-6.6h0c-.4-1.6-1.1-2.9-2.2-3.9h0ZM973.7,620.7v18.5c0,3.2,1,5.7,2.9,7.5,2,1.7,4.4,2.6,7.5,2.6s5.5-.9,7.5-2.6c.5-.4.9-.9,1.3-1.4-6.7-7.9-13.1-16.1-19.2-24.5ZM962.6,627.9c-1.2-1.4-2.7-2.2-4.6-2.2s-1.6.2-2.6.5c2.7,3.8,5.3,7.5,8.1,11.1.6-1.1.8-2.3.8-3.6,0-2.5-.6-4.4-1.8-5.9h0ZM920.9,620c.4.6.8,1.1,1.2,1.6,1.9,1.9,5.2,2.8,9.8,2.8s3.5-.2,4.9-.5c.5-1.3,1-2.7,1.5-4h-17.4ZM1026.3,566.5c-1.4-1.3-3.4-1.9-5.7-1.9s-.7,0-1.1,0l-2.3.2c-2.5.2-4.9.6-7.1,1.3-.3,5.9-.5,11.8-.6,17.7,1.4-.3,2.8-.6,4.4-.7l5-.5c3.8-.4,6.4-1.4,7.9-2.8.2-.2.3-.4.5-.6.2-.2.3-.4.4-.6,0,0,0-.1,0-.2.1-.2.2-.4.3-.6.1-.2.2-.5.3-.8h0c0-2.2.2-4.4.3-6.6h0c-.4-1.6-1.1-2.9-2.2-3.9h0ZM1030.3,637.2c-1.9-15.9-2.7-31.8-2.4-47.7-2.3,1-5,1.7-8.1,2h-.2s-5,.5-5,.5c-2.1.2-3.9.6-5.3,1.2.1,12.2.8,24.4,2,36.6.7,6.6-.1,13.3,2.2,19.8,1.9,5.2,5.3,6.7,10.2,5.9,4.9-.8,6.5-4.2,6.6-8.6,0-3.2,0-6.5,0-9.7h0ZM973.7,620.7v18.5c0,3.2,1,5.7,2.9,7.5,2,1.7,4.4,2.6,7.5,2.6s5.5-.9,7.5-2.6c.5-.4.9-.9,1.3-1.4-6.7-7.9-13.1-16.1-19.2-24.5ZM962.6,627.9c-1.2-1.4-2.7-2.2-4.6-2.2s-1.6.2-2.6.5c2.7,3.8,5.3,7.5,8.1,11.1.6-1.1.8-2.3.8-3.6,0-2.5-.6-4.4-1.8-5.9h0ZM920.9,620c.4.6.8,1.1,1.2,1.6,1.9,1.9,5.2,2.8,9.8,2.8s3.5-.2,4.9-.5c.5-1.3,1-2.7,1.5-4h-17.4ZM973.7,620.7v18.5c0,3.2,1,5.7,2.9,7.5,2,1.7,4.4,2.6,7.5,2.6s5.5-.9,7.5-2.6c.5-.4.9-.9,1.3-1.4-6.7-7.9-13.1-16.1-19.2-24.5ZM962.6,627.9c-1.2-1.4-2.7-2.2-4.6-2.2s-1.6.2-2.6.5c2.7,3.8,5.3,7.5,8.1,11.1.6-1.1.8-2.3.8-3.6,0-2.5-.6-4.4-1.8-5.9h0ZM920.9,620c.4.6.8,1.1,1.2,1.6,1.9,1.9,5.2,2.8,9.8,2.8s3.5-.2,4.9-.5c.5-1.3,1-2.7,1.5-4h-17.4ZM962.6,627.9c-1.2-1.4-2.7-2.2-4.6-2.2s-1.6.2-2.6.5c2.7,3.8,5.3,7.5,8.1,11.1.6-1.1.8-2.3.8-3.6,0-2.5-.6-4.4-1.8-5.9h0ZM920.9,620c.4.6.8,1.1,1.2,1.6,1.9,1.9,5.2,2.8,9.8,2.8s3.5-.2,4.9-.5c.5-1.3,1-2.7,1.5-4h-17.4ZM962.6,627.9c-1.2-1.4-2.7-2.2-4.6-2.2s-1.6.2-2.6.5c2.7,3.8,5.3,7.5,8.1,11.1.6-1.1.8-2.3.8-3.6,0-2.5-.6-4.4-1.8-5.9h0ZM920.9,620c.4.6.8,1.1,1.2,1.6,1.9,1.9,5.2,2.8,9.8,2.8s3.5-.2,4.9-.5c.5-1.3,1-2.7,1.5-4h-17.4ZM920.9,620c.4.6.8,1.1,1.2,1.6,1.9,1.9,5.2,2.8,9.8,2.8s3.5-.2,4.9-.5c.5-1.3,1-2.7,1.5-4h-17.4ZM962.6,627.9c-1.2-1.4-2.7-2.2-4.6-2.2s-1.6.2-2.6.5c2.7,3.8,5.3,7.5,8.1,11.1.6-1.1.8-2.3.8-3.6,0-2.5-.6-4.4-1.8-5.9h0ZM935.8,590.8c-.1-.2-.3-.3-.4-.5-.8-.9-2.2-2-5.1-2.2,0,.9,0,1.8,0,2.7h5.5ZM920.9,620c.4.6.8,1.1,1.2,1.6,1.9,1.9,5.2,2.8,9.8,2.8s3.5-.2,4.9-.5c.5-1.3,1-2.7,1.5-4h-17.4ZM962.6,627.9c-1.2-1.4-2.7-2.2-4.6-2.2s-1.6.2-2.6.5c2.7,3.8,5.3,7.5,8.1,11.1.6-1.1.8-2.3.8-3.6,0-2.5-.6-4.4-1.8-5.9h0ZM920.9,620c.4.6.8,1.1,1.2,1.6,1.9,1.9,5.2,2.8,9.8,2.8s3.5-.2,4.9-.5c.5-1.3,1-2.7,1.5-4h-17.4ZM962.6,627.9c-1.2-1.4-2.7-2.2-4.6-2.2s-1.6.2-2.6.5c2.7,3.8,5.3,7.5,8.1,11.1.6-1.1.8-2.3.8-3.6,0-2.5-.6-4.4-1.8-5.9h0ZM1030.3,637.2c-1.9-15.9-2.7-31.8-2.4-47.7-2.3,1-5,1.7-8.1,2h-.2s-5,.5-5,.5c-2.1.2-3.9.6-5.3,1.2.1,12.2.8,24.4,2,36.6.7,6.6-.1,13.3,2.2,19.8,1.9,5.2,5.3,6.7,10.2,5.9,4.9-.8,6.5-4.2,6.6-8.6,0-3.2,0-6.5,0-9.7h0ZM950.8,395.5c-5-1.6-8.1,2-10.8,4.9-15.3,16.1-25.7,35.1-30.8,56.6-5.3,21.9-4.8,43.8-.5,65.8,2.2,11.5,5.3,22.6,9.2,33.4,3.4-.7,7-1.1,10.8-1.1s5.8.2,8.6.7c-6.9-18.2-11.8-36.8-13-56.4-1.6-26.2,3.2-50.4,17.4-72.7,3.6-5.7,8.5-10.2,12.7-15.4,4.9-6.1,3.1-13.8-3.6-15.9h0ZM920.9,620c.4.6.8,1.1,1.2,1.6,1.9,1.9,5.2,2.8,9.8,2.8s3.5-.2,4.9-.5c.5-1.3,1-2.7,1.5-4h-17.4ZM962.6,627.9c-1.2-1.4-2.7-2.2-4.6-2.2s-1.6.2-2.6.5c2.7,3.8,5.3,7.5,8.1,11.1.6-1.1.8-2.3.8-3.6,0-2.5-.6-4.4-1.8-5.9h0ZM1030.3,637.2c-1.9-15.9-2.7-31.8-2.4-47.7-2.3,1-5,1.7-8.1,2h-.2s-5,.5-5,.5c-2.1.2-3.9.6-5.3,1.2.1,12.2.8,24.4,2,36.6.7,6.6-.1,13.3,2.2,19.8,1.9,5.2,5.3,6.7,10.2,5.9,4.9-.8,6.5-4.2,6.6-8.6,0-3.2,0-6.5,0-9.7h0Z"/>
    <g id="VPN">
      <path id="N" class="cls-4" d="M1367.1,537.7c2.2,2.3,3.3,5.3,3.3,9v90.9c0,3.8-1.1,6.8-3.3,9.2-2.2,2.3-5.1,3.5-8.7,3.5s-7-1.4-9.4-4.2l-54.3-69.5v61.1c0,3.8-1.1,6.8-3.2,9.2-2.1,2.3-4.9,3.5-8.5,3.5s-6.4-1.2-8.6-3.5c-2.2-2.3-3.2-5.4-3.2-9.2v-90.9c0-3.7,1.1-6.7,3.3-9s5.1-3.5,8.7-3.5,7.1,1.4,9.2,4.2l54.3,69v-60.8c0-3.7,1.1-6.7,3.2-9s5-3.5,8.4-3.5,6.4,1.2,8.7,3.5Z"/>
      <path id="P" class="cls-4" d="M1174.5,646.8c-2.3-2.3-3.4-5.3-3.4-9.2v-90.8c0-3.8,1-6.7,3.1-8.8,2.1-2,5-3.1,8.8-3.1h40.7c12.4,0,22.1,3.1,29,9.4,6.9,6.3,10.4,15,10.4,26.2s-3.5,20-10.4,26.2c-6.9,6.3-16.6,9.4-29,9.4h-27.2v31.3c0,3.9-1.1,7-3.4,9.2s-5.3,3.4-9.2,3.4-7-1.1-9.2-3.4h0ZM1220.4,587.2c12.6,0,19-5.5,19-16.4s-6.3-16.5-19-16.5h-24v32.9h24Z"/>
      <path id="V" class="cls-4" d="M1148.1,535.7c1.8-1.1,3.9-1.7,6.2-1.7,3.2,0,6.2,1.1,8.8,3.2s3.9,4.8,3.9,7.9-.4,3.2-1.1,4.9l-43.8,92.4c-1.2,2.5-3,4.4-5.3,5.8s-5,2-7.8,2-5.4-.7-7.8-2c-2.4-1.3-4.2-3.3-5.3-5.8l-43.8-92.4c-.8-1.5-1.1-3.1-1.1-4.7,0-3.2,1.3-5.9,4.1-8.1,2.7-2.2,5.7-3.2,9.1-3.2s4.3.6,6.2,1.7,3.3,2.8,4.3,5.1l34.7,75.8,34.7-75.8c1-2.3,2.4-4,4.2-5.1h0Z"/>
    </g>
    <g id="BRIGHTER">
      <path id="R" class="cls-2" d="M1026.3,566.5c1.7,1.5,2.5,3.6,2.5,6.5s-.7,5.2-2.2,6.7c-1.4,1.5-4.1,2.4-7.9,2.8l-5,.5c-6.6.7-11.4,2.9-14.5,6.7s-4.6,8.5-4.6,14.2v35.2c0,3.2-1,5.7-3,7.5s-4.5,2.6-7.5,2.6-5.5-.9-7.5-2.6-2.9-4.2-2.9-7.5v-64.8c0-3.1,1-5.5,2.9-7.2s4.4-2.5,7.3-2.5,5.2.8,7,2.4c1.8,1.6,2.7,3.9,2.7,7v6.7c2.1-4.9,5.3-8.7,9.5-11.4s8.8-4.2,14-4.5l2.3-.2c2.9-.2,5.2.4,6.9,1.8h0Z"/>
      <path id="E" class="cls-2" d="M962.6,627.9c1.2,1.5,1.8,3.4,1.8,5.9s-2.1,6.4-6.2,8.7c-3.8,2.1-8.1,3.8-12.9,5.1-4.8,1.3-9.4,1.9-13.7,1.9-13.2,0-23.6-3.8-31.3-11.4s-11.5-18-11.5-31.1,1.7-15.8,5-22.3c3.3-6.5,8.1-11.5,14.2-15.1,6.1-3.6,13-5.4,20.7-5.4s13.8,1.6,19.2,4.8c5.5,3.2,9.7,7.8,12.7,13.7,3,5.9,4.5,12.9,4.5,20.9s-2.1,7.2-6.4,7.2h-49.4c.7,7.7,2.8,13.4,6.5,17,3.7,3.6,9,5.4,16.1,5.4s6.7-.5,9.5-1.3c2.7-.9,5.8-2.1,9.3-3.7,3.3-1.8,5.8-2.7,7.4-2.7s3.4.7,4.6,2.2h0ZM915.4,584.4c-3.4,3.6-5.4,8.7-6.1,15.4h37.8c-.2-6.8-1.9-12-5-15.5-3.1-3.5-7.5-5.3-13.1-5.3s-10.2,1.8-13.6,5.4h0Z"/>
      <path id="T" class="cls-2" d="M890.7,641.2c0,2.7-1.1,4.7-3.3,6.1s-5.3,2-9.3,1.8l-4.5-.3c-18.8-1.3-28.1-11.4-28.1-30.1v-36.5h-8.4c-3,0-5.3-.7-7-2s-2.4-3.3-2.4-5.9.8-4.5,2.4-5.9c1.6-1.3,3.9-2,7-2h8.4v-15.4c0-3,1-5.4,2.8-7.2,1.9-1.8,4.5-2.7,7.7-2.7s5.6.9,7.5,2.7,2.8,4.2,2.8,7.2v15.4h14.2c3,0,5.3.7,7,2s2.4,3.3,2.4,5.9-.8,4.5-2.4,5.9c-1.6,1.3-3.9,2-7,2h-14.2v38c0,8.3,3.8,12.7,11.4,13.2l4.5.3c5.6.3,8.4,2.8,8.4,7.5h0Z"/>
      <path id="GH" class="cls-2" d="M799.5,564.3c-5.9,0-11.2,1.1-15.8,3.4s-8.3,5.6-11.1,10v-39c0-2.9-1-5.2-2.8-6.9-1.9-1.7-4.4-2.5-7.5-2.5s-5.7.9-7.6,2.7-2.9,4.1-2.9,7v39.7c-2.5-4.6-6-8.1-10.7-10.6-4.7-2.5-10-3.8-16.1-3.8s-13.5,1.7-19.1,5.1-9.9,8.2-13,14.4c-3.1,6.2-4.6,13.3-4.6,21.4s1.6,15.1,4.7,21.3,7.4,10.9,13,14.3c5.5,3.4,11.9,5.1,19,5.1s11.4-1.3,16.1-3.8c4.7-2.5,8.3-6,10.7-10.6v10.7c0,14.3-7.3,21.4-21.9,21.4s-7.8-.5-11-1.3c-3.2-.9-6.8-2.2-10.8-3.8-1.6-.7-3.1-1.3-4.5-1.8-1.5-.5-2.7-.7-3.7-.7-1.9,0-3.4.7-4.6,2.2-1.2,1.4-1.8,3.4-1.8,5.9s2.1,6.4,6.2,8.9c8.2,4.6,18.3,6.9,30.5,6.9s24.5-3.3,31.6-9.9c7-6.5,10.6-16,10.7-28.4,0,0,0,0,0,0,.1-.7.2-1.4.2-2.2v-37.3c0-6.4,1.8-11.4,5.4-15.2,3.6-3.8,8.5-5.7,14.5-5.7s8.9,1.4,11.3,4.1c2.4,2.7,3.6,7.1,3.6,13v41.2c0,3.1.9,5.6,2.8,7.4,1.9,1.8,4.5,2.7,7.7,2.7s5.8-.9,7.6-2.7c1.8-1.8,2.8-4.2,2.8-7.4v-41.2c0-22.4-9.6-33.7-28.8-33.7h0ZM746,623.1c-3.7,4.3-9,6.5-15.6,6.5s-11.8-2.2-15.6-6.5c-3.8-4.3-5.7-10.3-5.7-17.9s1.9-13.7,5.7-18.1c3.8-4.3,9-6.5,15.6-6.5s11.9,2.2,15.6,6.5c3.7,4.3,5.6,10.4,5.6,18.1s-1.9,13.6-5.6,17.9Z"/>
      <path id="I" class="cls-2" d="M663.6,546.7c-2.2-2.1-3.3-4.8-3.3-8.1s1.1-6,3.3-8c2.2-2,5.2-3,9-3s6.7,1,9,3c2.3,2,3.4,4.7,3.4,8s-1.1,6.1-3.3,8.1c-2.2,2.1-5.2,3.1-9,3.1s-6.8-1-9-3.1h0ZM665.2,646.6c-2-1.7-2.9-4.2-2.9-7.5v-64.6c0-3.2,1-5.7,2.9-7.4,2-1.7,4.4-2.5,7.5-2.5s5.5.8,7.5,2.5,3,4.1,3,7.4v64.6c0,3.2-1,5.7-3,7.5s-4.5,2.6-7.5,2.6-5.5-.9-7.5-2.6Z"/>
      <path id="R-2" class="cls-2" d="M655.3,566.5c1.7,1.5,2.5,3.6,2.5,6.5s-.7,5.2-2.2,6.7-4.1,2.4-7.9,2.8l-5,.5c-6.6.7-11.4,2.9-14.5,6.7s-4.6,8.5-4.6,14.2v35.2c0,3.2-1,5.7-3,7.5s-4.5,2.6-7.5,2.6-5.5-.9-7.5-2.6-2.9-4.2-2.9-7.5v-64.8c0-3.1,1-5.5,2.9-7.2s4.4-2.5,7.3-2.5,5.2.8,7,2.4,2.7,3.9,2.7,7v6.7c2.1-4.9,5.3-8.7,9.5-11.4s8.8-4.2,14-4.5l2.3-.2c2.9-.2,5.2.4,6.9,1.8h0Z"/>
      <path id="B" class="cls-2" d="M587.7,595c3.7,5,5.6,11.2,5.6,18.4s-3.6,17.9-10.8,23.6c-7.2,5.7-17.1,8.5-29.7,8.5h-43.2c-3.2,0-5.8-.9-7.6-2.7-1.8-1.8-2.8-4.3-2.8-7.5v-97.6c0-3.2.9-5.8,2.8-7.5s4.4-2.7,7.6-2.7h41.5c12.3,0,21.9,2.7,28.9,8.1,7,5.4,10.5,13,10.5,22.7s-1.7,11.7-4.9,16.2-7.8,7.9-13.6,10c6.8,1.9,12.1,5.4,15.8,10.4h0ZM520.3,577.2h27.3c14.8,0,22.3-5.5,22.3-16.6s-1.8-9.7-5.5-12.4-9.3-4-16.7-4h-27.3v33h0ZM567.5,624.6c3.6-2.8,5.4-7.1,5.4-13.1s-1.8-10.3-5.4-13.2c-3.6-2.9-9.3-4.3-17-4.3h-30.1v34.8h30.1c7.8,0,13.5-1.4,17.1-4.2h0Z"/>
    </g>
  </g>
</svg>