<svg width="1016" height="666" viewBox="0 0 1016 666" fill="none" xmlns="http://www.w3.org/2000/svg">
<path d="M531.1 380.2C529.2 364.3 528.4 348.4 528.7 332.5C526.4 333.5 523.7 334.2 520.6 334.5H520.5H520.4L515.4 335C513.3 335.2 511.5 335.6 510.1 336.2C510.2 348.4 510.9 360.6 512.1 372.8C512.8 379.4 512 386.1 514.3 392.6C516.2 397.8 519.6 399.3 524.5 398.5C529.4 397.7 531 394.4 531.1 389.9C531.1 386.7 531.1 383.5 531.1 380.2ZM421.7 363C422.1 363.6 422.5 364.1 422.9 364.6C424.8 366.5 428.1 367.5 432.7 367.5C434.5 367.5 436.2 367.3 437.6 367C438.1 365.7 438.6 364.3 439.1 363H421.7ZM463.4 370.9C462.2 369.5 460.7 368.7 458.8 368.7C458.1 368.7 457.2 368.9 456.2 369.2C458.9 373 461.5 376.7 464.3 380.3C464.9 379.2 465.1 378 465.1 376.7C465.1 374.3 464.6 372.4 463.4 370.9ZM531.1 380.2C529.2 364.3 528.4 348.4 528.7 332.5C526.4 333.5 523.7 334.2 520.6 334.5H520.5H520.4L515.4 335C513.3 335.2 511.5 335.6 510.1 336.2C510.2 348.4 510.9 360.6 512.1 372.8C512.8 379.4 512 386.1 514.3 392.6C516.2 397.8 519.6 399.3 524.5 398.5C529.4 397.7 531 394.4 531.1 389.9C531.1 386.7 531.1 383.5 531.1 380.2ZM421.7 363C422.1 363.6 422.5 364.1 422.9 364.6C424.8 366.5 428.1 367.5 432.7 367.5C434.5 367.5 436.2 367.3 437.6 367C438.1 365.7 438.6 364.3 439.1 363H421.7ZM463.4 370.9C462.2 369.5 460.7 368.7 458.8 368.7C458.1 368.7 457.2 368.9 456.2 369.2C458.9 373 461.5 376.7 464.3 380.3C464.9 379.2 465.1 378 465.1 376.7C465.1 374.3 464.6 372.4 463.4 370.9ZM421.7 363C422.1 363.6 422.5 364.1 422.9 364.6C424.8 366.5 428.1 367.5 432.7 367.5C434.5 367.5 436.2 367.3 437.6 367C438.1 365.7 438.6 364.3 439.1 363H421.7ZM463.4 370.9C462.2 369.5 460.7 368.7 458.8 368.7C458.1 368.7 457.2 368.9 456.2 369.2C458.9 373 461.5 376.7 464.3 380.3C464.9 379.2 465.1 378 465.1 376.7C465.1 374.3 464.6 372.4 463.4 370.9ZM421.7 363C422.1 363.6 422.5 364.1 422.9 364.6C424.8 366.5 428.1 367.5 432.7 367.5C434.5 367.5 436.2 367.3 437.6 367C438.1 365.7 438.6 364.3 439.1 363H421.7ZM459.2 341.4C454.9 334.8 455.4 329.4 459.3 323C459.3 322.9 459.4 322.8 459.4 322.8C456.6 318.4 452.9 314.8 448.5 312.2C447.5 311.6 446.4 311 445.3 310.5C445.1 310.6 444.8 310.6 444.5 310.6C443.4 310.6 442.7 310.1 442.2 309.3C438.3 308 433.9 307.3 429.2 307.3C426.6 307.3 424.2 307.5 421.8 307.9C423.7 312.3 425.7 316.7 427.9 321.1C428.1 321.4 428.2 321.8 428.4 322.1C428.8 322.1 429.3 322.1 429.8 322.1C435.4 322.1 439.7 323.9 442.9 327.4C446 330.9 447.7 336.1 447.9 342.9H428.4V343C426.6 346.7 424.9 350.4 423.3 354.1H459.5C462.5 354.1 464.4 352.9 465.3 350.5C463.2 347.5 461.2 344.5 459.2 341.4ZM463.4 370.9C462.2 369.5 460.7 368.7 458.8 368.7C458.1 368.7 457.2 368.9 456.2 369.2C458.9 373 461.5 376.7 464.3 380.3C464.9 379.2 465.1 378 465.1 376.7C465.1 374.3 464.6 372.4 463.4 370.9ZM421.7 363C422.1 363.6 422.5 364.1 422.9 364.6C424.8 366.5 428.1 367.5 432.7 367.5C434.5 367.5 436.2 367.3 437.6 367C438.1 365.7 438.6 364.3 439.1 363H421.7ZM463.4 370.9C462.2 369.5 460.7 368.7 458.8 368.7C458.1 368.7 457.2 368.9 456.2 369.2C458.9 373 461.5 376.7 464.3 380.3C464.9 379.2 465.1 378 465.1 376.7C465.1 374.3 464.6 372.4 463.4 370.9ZM421.7 363C422.1 363.6 422.5 364.1 422.9 364.6C424.8 366.5 428.1 367.5 432.7 367.5C434.5 367.5 436.2 367.3 437.6 367C438.1 365.7 438.6 364.3 439.1 363H421.7ZM463.4 370.9C462.2 369.5 460.7 368.7 458.8 368.7C458.1 368.7 457.2 368.9 456.2 369.2C458.9 373 461.5 376.7 464.3 380.3C464.9 379.2 465.1 378 465.1 376.7C465.1 374.3 464.6 372.4 463.4 370.9ZM474.5 363.7V382.2C474.5 385.4 475.5 387.9 477.4 389.6C479.4 391.3 481.8 392.2 484.8 392.2C487.8 392.2 490.3 391.3 492.3 389.6C492.8 389.2 493.2 388.7 493.6 388.2C487 380.2 480.6 372.1 474.5 363.7ZM421.7 363C422.1 363.6 422.5 364.1 422.9 364.6C424.8 366.5 428.1 367.5 432.7 367.5C434.5 367.5 436.2 367.3 437.6 367C438.1 365.7 438.6 364.3 439.1 363H421.7ZM463.4 370.9C462.2 369.5 460.7 368.7 458.8 368.7C458.1 368.7 457.2 368.9 456.2 369.2C458.9 373 461.5 376.7 464.3 380.3C464.9 379.2 465.1 378 465.1 376.7C465.1 374.3 464.6 372.4 463.4 370.9ZM474.5 363.7V382.2C474.5 385.4 475.5 387.9 477.4 389.6C479.4 391.3 481.8 392.2 484.8 392.2C487.8 392.2 490.3 391.3 492.3 389.6C492.8 389.2 493.2 388.7 493.6 388.2C487 380.2 480.6 372.1 474.5 363.7ZM527.1 309.5C525.7 308.2 523.7 307.6 521.4 307.6C521 307.6 520.7 307.6 520.3 307.6L518 307.8C515.5 308 513.1 308.4 510.9 309.1C510.6 315 510.4 320.9 510.3 326.8C511.7 326.5 513.1 326.2 514.7 326.1L519.7 325.6C523.5 325.2 526.1 324.2 527.6 322.8C527.8 322.6 527.9 322.4 528.1 322.2C528.3 322 528.4 321.8 528.5 321.6C528.5 321.5 528.6 321.5 528.6 321.4C528.7 321.2 528.8 321 528.9 320.8C529 320.6 529.1 320.3 529.2 320C529.3 317.8 529.4 315.6 529.5 313.4C529 311.7 528.2 310.5 527.1 309.5ZM531.1 380.2C529.2 364.3 528.4 348.4 528.7 332.5C526.4 333.5 523.7 334.2 520.6 334.5H520.5H520.4L515.4 335C513.3 335.2 511.5 335.6 510.1 336.2C510.2 348.4 510.9 360.6 512.1 372.8C512.8 379.4 512 386.1 514.3 392.6C516.2 397.8 519.6 399.3 524.5 398.5C529.4 397.7 531 394.4 531.1 389.9C531.1 386.7 531.1 383.5 531.1 380.2ZM421.7 363C422.1 363.6 422.5 364.1 422.9 364.6C424.8 366.5 428.1 367.5 432.7 367.5C434.5 367.5 436.2 367.3 437.6 367C438.1 365.7 438.6 364.3 439.1 363H421.7ZM463.4 370.9C462.2 369.5 460.7 368.7 458.8 368.7C458.1 368.7 457.2 368.9 456.2 369.2C458.9 373 461.5 376.7 464.3 380.3C464.9 379.2 465.1 378 465.1 376.7C465.1 374.3 464.6 372.4 463.4 370.9ZM474.5 363.7V382.2C474.5 385.4 475.5 387.9 477.4 389.6C479.4 391.3 481.8 392.2 484.8 392.2C487.8 392.2 490.3 391.3 492.3 389.6C492.8 389.2 493.2 388.7 493.6 388.2C487 380.2 480.6 372.1 474.5 363.7ZM527.1 309.5C525.7 308.2 523.7 307.6 521.4 307.6C521 307.6 520.7 307.6 520.3 307.6L518 307.8C515.5 308 513.1 308.4 510.9 309.1C510.6 315 510.4 320.9 510.3 326.8C511.7 326.5 513.1 326.2 514.7 326.1L519.7 325.6C523.5 325.2 526.1 324.2 527.6 322.8C527.8 322.6 527.9 322.4 528.1 322.2C528.3 322 528.4 321.8 528.5 321.6C528.5 321.5 528.6 321.5 528.6 321.4C528.7 321.2 528.8 321 528.9 320.8C529 320.6 529.1 320.3 529.2 320C529.3 317.8 529.4 315.6 529.5 313.4C529 311.7 528.2 310.5 527.1 309.5ZM531.1 380.2C529.2 364.3 528.4 348.4 528.7 332.5C526.4 333.5 523.7 334.2 520.6 334.5H520.5H520.4L515.4 335C513.3 335.2 511.5 335.6 510.1 336.2C510.2 348.4 510.9 360.6 512.1 372.8C512.8 379.4 512 386.1 514.3 392.6C516.2 397.8 519.6 399.3 524.5 398.5C529.4 397.7 531 394.4 531.1 389.9C531.1 386.7 531.1 383.5 531.1 380.2ZM421.7 363C422.1 363.6 422.5 364.1 422.9 364.6C424.8 366.5 428.1 367.5 432.7 367.5C434.5 367.5 436.2 367.3 437.6 367C438.1 365.7 438.6 364.3 439.1 363H421.7ZM463.4 370.9C462.2 369.5 460.7 368.7 458.8 368.7C458.1 368.7 457.2 368.9 456.2 369.2C458.9 373 461.5 376.7 464.3 380.3C464.9 379.2 465.1 378 465.1 376.7C465.1 374.3 464.6 372.4 463.4 370.9ZM474.5 363.7V382.2C474.5 385.4 475.5 387.9 477.4 389.6C479.4 391.3 481.8 392.2 484.8 392.2C487.8 392.2 490.3 391.3 492.3 389.6C492.8 389.2 493.2 388.7 493.6 388.2C487 380.2 480.6 372.1 474.5 363.7ZM527.1 309.5C525.7 308.2 523.7 307.6 521.4 307.6C521 307.6 520.7 307.6 520.3 307.6L518 307.8C515.5 308 513.1 308.4 510.9 309.1C510.6 315 510.4 320.9 510.3 326.8C511.7 326.5 513.1 326.2 514.7 326.1L519.7 325.6C523.5 325.2 526.1 324.2 527.6 322.8C527.8 322.6 527.9 322.4 528.1 322.2C528.3 322 528.4 321.8 528.5 321.6C528.5 321.5 528.6 321.5 528.6 321.4C528.7 321.2 528.8 321 528.9 320.8C529 320.6 529.1 320.3 529.2 320C529.3 317.8 529.4 315.6 529.5 313.4C529 311.7 528.2 310.5 527.1 309.5ZM531.1 380.2C529.2 364.3 528.4 348.4 528.7 332.5C526.4 333.5 523.7 334.2 520.6 334.5H520.5H520.4L515.4 335C513.3 335.2 511.5 335.6 510.1 336.2C510.2 348.4 510.9 360.6 512.1 372.8C512.8 379.4 512 386.1 514.3 392.6C516.2 397.8 519.6 399.3 524.5 398.5C529.4 397.7 531 394.4 531.1 389.9C531.1 386.7 531.1 383.5 531.1 380.2ZM992.9 341.7C971.3 297.5 940.8 260.2 904.7 227.2C902 224.8 900.5 221.9 899.9 218.4C897.5 205 893.2 192.2 889.4 179.2C883.1 157.7 874.2 137.3 864.3 117.2C863.5 115.5 862 113.8 863.4 111.9C864.7 110.2 866.6 111.7 868.2 111.7C881.3 112.4 893.9 115.6 906.3 119.3C938.6 128.6 965.1 146.2 982.9 175.5C987.5 183.1 990.4 191.3 993 199.7C994.8 205.4 999.7 208.2 1004.3 207C1009.4 205.6 1011.8 200.8 1010.4 194.6C1010.1 193.3 1009.7 192 1009.3 190.7C999.8 161.6 981.6 139.1 956.3 122.4C926.4 102.6 892.5 94.8 857.3 92.1C851 91.6 847.2 89.4 844 84.3C830.5 62.7 813.2 44.5001 792.9 29.2001C768.7 11.1 741.5 0.700031 711.1 0.400031C686.7 0.100031 663.9 7.60004 643.1 20.1C606.2 42.1 581.1 74.9 560.9 112C542.7 145.4 531.2 181.3 522.4 218.2C521.6 221.6 520 224 517.5 226.3C496.3 245.4 477.2 266.4 460.4 289.5C457.1 294 454 298.7 450.8 303.4C451.6 303.8 452.3 304.2 453 304.6C457.5 307.3 461.4 310.7 464.6 314.8C465 314.2 465.4 313.5 465.9 312.9C468.4 309.1 471 305.5 473.7 301.9C483 289.3 493 277.3 503.2 265.5C505.4 262.9 508.1 260.7 510.6 258.4C511.6 257.5 512.6 256.3 514.1 257C515.6 257.7 515.1 259.4 515 260.6C514 270.8 512.8 281.1 511.9 291.3C511.6 294.2 511.4 297 511.2 299.9C513.1 299.5 515.1 299.2 517.1 299.1L519.4 298.9C520 298.8 520.6 298.8 521.2 298.8C524.8 298.8 527.6 299.7 529.7 300.8C530.5 284.9 531.9 269 534.9 253.3C535.9 248.1 536.3 242.7 537.3 237.5C538 233.2 540.1 230.2 543.3 227.6C572.7 204 603.6 182.7 636.8 164.9C665.5 149.5 695.5 137.6 726.6 127.9C747.6 121.3 768.9 116.4 790.6 113.3C804.9 111.3 819.4 109.6 833.9 110.1C838.6 110.2 840.8 112.6 842.6 116.2C851.3 132.8 859.4 149.6 865.6 167.3C868.8 176.5 871.7 185.7 874.5 195C875 196.7 876.1 199.1 874.4 200.4C872.3 201.8 871.1 199.3 869.7 198.2C848.5 181.5 825.6 167.4 802.2 154.2C788.4 146.4 774.2 139.5 759.8 132.9C756 131.2 752.9 131.2 749.6 133.6C746.4 135.9 746 139.2 746.4 142.8C746.8 146.5 749.7 147.8 752.4 149.2C762.7 154.5 773.3 159.4 783.6 164.8C800.7 173.7 817.2 183.6 833.1 194.5C848.4 204.9 862.9 216.3 877.6 227.6C883 231.8 885 237.1 886 243.1C891.8 280 894.4 317.1 892.9 354.3C891.8 382.6 888.3 410.6 882.5 438.3C875.8 470.6 865.8 501.7 851.8 531.6C848.7 538.2 845.2 544.5 841.9 550.9C840.4 553.8 838 554.9 834.9 555C819.8 555.2 804.9 553.2 789.9 551.4C775.8 549.7 762.1 546.7 748.3 543.6C746.4 543.2 743.5 543.5 743.4 540.8C743.3 538.6 746.1 538.3 747.7 537.6C774.8 526.5 800.5 512.8 825.5 497.6C836.7 490.7 847.5 483.2 858.3 475.8C865.1 471.1 866.2 466.9 862.7 462.1C858.9 456.9 853.3 456.3 847.1 460.9C821.4 480 793.9 495.9 765.2 509.9C748.4 518.1 731 525.1 713.2 531C710 532 707.3 531.3 704.3 530.2C669.4 517.6 635.8 501.9 604.5 481.9C567.6 458.3 532.7 432.1 503 399.5C501.8 398.2 500.6 396.8 499.4 395.5C498.9 396 498.4 396.5 498 396.9C494.4 400 489.7 401.7 484.6 401.7C483.2 401.7 481.8 401.6 480.4 401.3C491.1 413.8 502.5 425.6 514.8 436.7C539.1 458.8 564.8 479.1 593 496.2C618.8 511.9 645.1 526.4 673.2 537.7C674.7 538.3 677 538.7 677 540.7C677 542.8 674.8 543 673.1 543.4C642.2 550.7 611 555.7 579.2 554.8C545.7 553.9 512.8 548.8 483.3 532C454.4 515.5 434.4 491.7 427.4 458.2C425.5 449.1 425.2 440 425.2 427.7C424.7 419.2 425.6 410.6 427.3 401.9C420.8 401.5 414.9 400.1 409.6 398C406.6 413.5 405.6 429.4 407.1 445.8C409.5 472.4 419.2 495.8 436.1 516.1C461.3 546.3 495.3 561.1 532.8 568.4C559.8 573.7 587.1 574.5 614.8 571.6C642.3 568.8 669.1 563.7 695.5 556.1C703.9 553.7 712 551.9 721.2 554.9C753.6 565.4 787 571 821 573.3C822.7 573.4 824.7 573.1 825.5 575.1C826.3 577 824.7 578.3 823.7 579.6C814 592 803.9 603.9 791.8 614C760.4 640.1 725.5 653.6 684.2 643.1C678.8 641.7 674.2 644.6 672.7 649.8C671.5 654.2 674.6 659.2 679.6 660.6C689.8 663.4 700 665.3 708 665.1C723.9 665.1 736.8 662.7 749.3 658.7C770.4 652.1 788.6 640.6 805.3 626.1C821.8 611.6 835.8 595.2 847.3 576.6C848.9 574.1 850.9 573.6 853.5 573.3C869.6 571.5 885.7 569.9 901.4 565.8C929.2 558.5 954.5 547 975.6 527C997.7 506 1010.7 480.2 1014.1 450.3C1018.6 411.7 1009.6 375.8 992.9 341.7ZM820.9 91.8C785.5 93.4 750.9 100.6 717.2 111.1C670.4 125.7 626.5 147.1 585.4 173.9C574.1 181.3 562.6 188.5 552.2 197.3C551.1 198.2 550 199.8 548.3 198.9C546.8 198.2 547.2 196.6 547.3 194.6C549.7 187.3 552.2 179.3 555 171.4C567.3 135.1 584.8 101.7 609.8 72.4C628.7 50.1 651.1 32.5 679.3 23.9C705.7 15.9 732.1 17.5001 757.5 29.2001C785.1 42.0001 806.2 62.2 823.9 86.5C826.6 90.5 825.2 91.6 820.9 91.8ZM919.2 540.7C903.1 547 886.4 550.6 869.3 552.5C867.4 552.7 864.9 553.8 863.5 551.6C862.3 549.7 864.1 548 864.9 546.4C880.9 514.5 892 480.9 899.9 446.2C911.1 397 913.3 347.2 910.9 297.1C910.4 286.9 910.1 276.5 907.4 266.5C907.3 266.1 907.2 265.7 907.2 265.4C907.3 262.8 905.7 259.4 908.5 258.1C911.3 256.8 912.4 260.4 914 262.1C936.1 284.5 954.8 309.5 969.9 337.1C986 366.6 997.6 399 996.6 431.2C998.1 483.2 966.6 522.1 919.2 540.7ZM512.1 372.8C512.8 379.4 512 386.1 514.3 392.6C516.2 397.8 519.6 399.3 524.5 398.5C529.4 397.7 531 394.4 531.1 389.9C531.1 386.7 531.1 383.4 531.1 380.2C529.2 364.3 528.4 348.4 528.7 332.5C526.4 333.5 523.7 334.2 520.6 334.5H520.5H520.4L515.4 335C513.3 335.2 511.5 335.6 510.1 336.2C510.3 348.4 510.9 360.6 512.1 372.8ZM527.4 322.7C527.6 322.5 527.7 322.3 527.9 322.1C528.1 321.9 528.2 321.7 528.3 321.5C528.3 321.4 528.4 321.4 528.4 321.3C528.5 321.1 528.6 320.9 528.7 320.7C528.8 320.5 528.9 320.2 529 319.9C529.1 317.7 529.2 315.5 529.3 313.3C528.9 311.7 528.2 310.4 527.1 309.5C525.7 308.2 523.7 307.6 521.4 307.6C521 307.6 520.7 307.6 520.3 307.6L518 307.8C515.5 308 513.1 308.4 510.9 309.1C510.6 315 510.4 320.9 510.3 326.8C511.7 326.5 513.1 326.2 514.7 326.1L519.7 325.6C523.3 325.1 526 324.2 527.4 322.7ZM484.9 392.2C487.9 392.2 490.4 391.3 492.4 389.6C492.9 389.2 493.3 388.7 493.7 388.2C487 380.3 480.6 372.1 474.5 363.7V382.2C474.5 385.4 475.5 387.9 477.4 389.6C479.4 391.3 481.9 392.2 484.9 392.2ZM465.1 376.8C465.1 374.3 464.5 372.4 463.3 370.9C462.1 369.5 460.6 368.7 458.7 368.7C458 368.7 457.1 368.9 456.1 369.2C458.8 373 461.4 376.7 464.2 380.3C464.9 379.3 465.1 378.1 465.1 376.8ZM432.7 367.5C434.5 367.5 436.2 367.3 437.6 367C438.1 365.7 438.6 364.3 439.1 363H421.7C422.1 363.6 422.5 364.1 422.9 364.6C424.8 366.5 428.1 367.5 432.7 367.5ZM434.2 376.4C433.7 376.4 433.2 376.4 432.6 376.4C425.6 376.4 420.3 374.6 416.6 371.1C414.6 376.8 412.9 382.6 411.5 388.4C416.7 390.8 422.6 392.1 429.3 392.4C430.8 387.1 432.4 381.8 434.2 376.4ZM531.1 380.2C529.2 364.3 528.4 348.4 528.7 332.5C526.4 333.5 523.7 334.2 520.6 334.5H520.5H520.4L515.4 335C513.3 335.2 511.5 335.6 510.1 336.2C510.2 348.4 510.9 360.6 512.1 372.8C512.8 379.4 512 386.1 514.3 392.6C516.2 397.8 519.6 399.3 524.5 398.5C529.4 397.7 531 394.4 531.1 389.9C531.1 386.7 531.1 383.5 531.1 380.2ZM527.1 309.5C525.7 308.2 523.7 307.6 521.4 307.6C521 307.6 520.7 307.6 520.3 307.6L518 307.8C515.5 308 513.1 308.4 510.9 309.1C510.6 315 510.4 320.9 510.3 326.8C511.7 326.5 513.1 326.2 514.7 326.1L519.7 325.6C523.5 325.2 526.1 324.2 527.6 322.8C527.8 322.6 527.9 322.4 528.1 322.2C528.3 322 528.4 321.8 528.5 321.6C528.5 321.5 528.6 321.5 528.6 321.4C528.7 321.2 528.8 321 528.9 320.8C529 320.6 529.1 320.3 529.2 320C529.3 317.8 529.4 315.6 529.5 313.4C529 311.7 528.2 310.5 527.1 309.5ZM474.5 363.7V382.2C474.5 385.4 475.5 387.9 477.4 389.6C479.4 391.3 481.8 392.2 484.8 392.2C487.8 392.2 490.3 391.3 492.3 389.6C492.8 389.2 493.2 388.7 493.6 388.2C487 380.2 480.6 372.1 474.5 363.7ZM463.4 370.9C462.2 369.5 460.7 368.7 458.8 368.7C458.1 368.7 457.2 368.9 456.2 369.2C458.9 373 461.5 376.7 464.3 380.3C464.9 379.2 465.1 378 465.1 376.7C465.1 374.3 464.6 372.4 463.4 370.9ZM421.7 363C422.1 363.6 422.5 364.1 422.9 364.6C424.8 366.5 428.1 367.5 432.7 367.5C434.5 367.5 436.2 367.3 437.6 367C438.1 365.7 438.6 364.3 439.1 363H421.7ZM527.1 309.5C525.7 308.2 523.7 307.6 521.4 307.6C521 307.6 520.7 307.6 520.3 307.6L518 307.8C515.5 308 513.1 308.4 510.9 309.1C510.6 315 510.4 320.9 510.3 326.8C511.7 326.5 513.1 326.2 514.7 326.1L519.7 325.6C523.5 325.2 526.1 324.2 527.6 322.8C527.8 322.6 527.9 322.4 528.1 322.2C528.3 322 528.4 321.8 528.5 321.6C528.5 321.5 528.6 321.5 528.6 321.4C528.7 321.2 528.8 321 528.9 320.8C529 320.6 529.1 320.3 529.2 320C529.3 317.8 529.4 315.6 529.5 313.4C529 311.7 528.2 310.5 527.1 309.5ZM531.1 380.2C529.2 364.3 528.4 348.4 528.7 332.5C526.4 333.5 523.7 334.2 520.6 334.5H520.5H520.4L515.4 335C513.3 335.2 511.5 335.6 510.1 336.2C510.2 348.4 510.9 360.6 512.1 372.8C512.8 379.4 512 386.1 514.3 392.6C516.2 397.8 519.6 399.3 524.5 398.5C529.4 397.7 531 394.4 531.1 389.9C531.1 386.7 531.1 383.5 531.1 380.2ZM474.5 363.7V382.2C474.5 385.4 475.5 387.9 477.4 389.6C479.4 391.3 481.8 392.2 484.8 392.2C487.8 392.2 490.3 391.3 492.3 389.6C492.8 389.2 493.2 388.7 493.6 388.2C487 380.2 480.6 372.1 474.5 363.7ZM463.4 370.9C462.2 369.5 460.7 368.7 458.8 368.7C458.1 368.7 457.2 368.9 456.2 369.2C458.9 373 461.5 376.7 464.3 380.3C464.9 379.2 465.1 378 465.1 376.7C465.1 374.3 464.6 372.4 463.4 370.9ZM421.7 363C422.1 363.6 422.5 364.1 422.9 364.6C424.8 366.5 428.1 367.5 432.7 367.5C434.5 367.5 436.2 367.3 437.6 367C438.1 365.7 438.6 364.3 439.1 363H421.7ZM474.5 363.7V382.2C474.5 385.4 475.5 387.9 477.4 389.6C479.4 391.3 481.8 392.2 484.8 392.2C487.8 392.2 490.3 391.3 492.3 389.6C492.8 389.2 493.2 388.7 493.6 388.2C487 380.2 480.6 372.1 474.5 363.7ZM463.4 370.9C462.2 369.5 460.7 368.7 458.8 368.7C458.1 368.7 457.2 368.9 456.2 369.2C458.9 373 461.5 376.7 464.3 380.3C464.9 379.2 465.1 378 465.1 376.7C465.1 374.3 464.6 372.4 463.4 370.9ZM421.7 363C422.1 363.6 422.5 364.1 422.9 364.6C424.8 366.5 428.1 367.5 432.7 367.5C434.5 367.5 436.2 367.3 437.6 367C438.1 365.7 438.6 364.3 439.1 363H421.7ZM463.4 370.9C462.2 369.5 460.7 368.7 458.8 368.7C458.1 368.7 457.2 368.9 456.2 369.2C458.9 373 461.5 376.7 464.3 380.3C464.9 379.2 465.1 378 465.1 376.7C465.1 374.3 464.6 372.4 463.4 370.9ZM421.7 363C422.1 363.6 422.5 364.1 422.9 364.6C424.8 366.5 428.1 367.5 432.7 367.5C434.5 367.5 436.2 367.3 437.6 367C438.1 365.7 438.6 364.3 439.1 363H421.7ZM463.4 370.9C462.2 369.5 460.7 368.7 458.8 368.7C458.1 368.7 457.2 368.9 456.2 369.2C458.9 373 461.5 376.7 464.3 380.3C464.9 379.2 465.1 378 465.1 376.7C465.1 374.3 464.6 372.4 463.4 370.9ZM421.7 363C422.1 363.6 422.5 364.1 422.9 364.6C424.8 366.5 428.1 367.5 432.7 367.5C434.5 367.5 436.2 367.3 437.6 367C438.1 365.7 438.6 364.3 439.1 363H421.7ZM421.7 363C422.1 363.6 422.5 364.1 422.9 364.6C424.8 366.5 428.1 367.5 432.7 367.5C434.5 367.5 436.2 367.3 437.6 367C438.1 365.7 438.6 364.3 439.1 363H421.7ZM463.4 370.9C462.2 369.5 460.7 368.7 458.8 368.7C458.1 368.7 457.2 368.9 456.2 369.2C458.9 373 461.5 376.7 464.3 380.3C464.9 379.2 465.1 378 465.1 376.7C465.1 374.3 464.6 372.4 463.4 370.9ZM436.6 333.8C436.5 333.6 436.3 333.5 436.2 333.3C435.4 332.4 434.1 331.3 431.1 331.1C431.2 332 431.2 332.9 431.1 333.8H436.6ZM421.7 363C422.1 363.6 422.5 364.1 422.9 364.6C424.8 366.5 428.1 367.5 432.7 367.5C434.5 367.5 436.2 367.3 437.6 367C438.1 365.7 438.6 364.3 439.1 363H421.7ZM463.4 370.9C462.2 369.5 460.7 368.7 458.8 368.7C458.1 368.7 457.2 368.9 456.2 369.2C458.9 373 461.5 376.7 464.3 380.3C464.9 379.2 465.1 378 465.1 376.7C465.1 374.3 464.6 372.4 463.4 370.9ZM421.7 363C422.1 363.6 422.5 364.1 422.9 364.6C424.8 366.5 428.1 367.5 432.7 367.5C434.5 367.5 436.2 367.3 437.6 367C438.1 365.7 438.6 364.3 439.1 363H421.7ZM463.4 370.9C462.2 369.5 460.7 368.7 458.8 368.7C458.1 368.7 457.2 368.9 456.2 369.2C458.9 373 461.5 376.7 464.3 380.3C464.9 379.2 465.1 378 465.1 376.7C465.1 374.3 464.6 372.4 463.4 370.9ZM531.1 380.2C529.2 364.3 528.4 348.4 528.7 332.5C526.4 333.5 523.7 334.2 520.6 334.5H520.5H520.4L515.4 335C513.3 335.2 511.5 335.6 510.1 336.2C510.2 348.4 510.9 360.6 512.1 372.8C512.8 379.4 512 386.1 514.3 392.6C516.2 397.8 519.6 399.3 524.5 398.5C529.4 397.7 531 394.4 531.1 389.9C531.1 386.7 531.1 383.5 531.1 380.2ZM451.6 138.5C446.6 136.9 443.5 140.5 440.8 143.4C425.5 159.5 415.2 178.5 410 200C404.7 221.9 405.2 243.8 409.5 265.9C411.7 277.4 414.8 288.5 418.7 299.3C422.1 298.6 425.7 298.2 429.5 298.2C432.5 298.2 435.3 298.4 438.1 298.9C431.2 280.7 426.3 262.1 425.1 242.5C423.5 216.3 428.3 192.1 442.5 169.8C446.1 164.1 451 159.6 455.2 154.4C460 148.3 458.2 140.6 451.6 138.5ZM421.7 363C422.1 363.6 422.5 364.1 422.9 364.6C424.8 366.5 428.1 367.5 432.7 367.5C434.5 367.5 436.2 367.3 437.6 367C438.1 365.7 438.6 364.3 439.1 363H421.7ZM463.4 370.9C462.2 369.5 460.7 368.7 458.8 368.7C458.1 368.7 457.2 368.9 456.2 369.2C458.9 373 461.5 376.7 464.3 380.3C464.9 379.2 465.1 378 465.1 376.7C465.1 374.3 464.6 372.4 463.4 370.9ZM531.1 380.2C529.2 364.3 528.4 348.4 528.7 332.5C526.4 333.5 523.7 334.2 520.6 334.5H520.5H520.4L515.4 335C513.3 335.2 511.5 335.6 510.1 336.2C510.2 348.4 510.9 360.6 512.1 372.8C512.8 379.4 512 386.1 514.3 392.6C516.2 397.8 519.6 399.3 524.5 398.5C529.4 397.7 531 394.4 531.1 389.9C531.1 386.7 531.1 383.5 531.1 380.2Z" fill="#F9CBCC"/>
<path d="M867.9 280.6C870.1 282.9 871.2 285.9 871.2 289.6V380.5C871.2 384.3 870.1 387.3 867.9 389.7C865.7 392 862.8 393.2 859.2 393.2C855.3 393.2 852.2 391.8 849.8 389L795.5 319.5V380.6C795.5 384.4 794.4 387.4 792.3 389.8C790.2 392.1 787.4 393.3 783.8 393.3C780.2 393.3 777.4 392.1 775.2 389.8C773 387.5 772 384.4 772 380.6V289.7C772 286 773.1 283 775.3 280.7C777.5 278.4 780.4 277.2 784 277.2C788 277.2 791.1 278.6 793.2 281.4L847.5 350.4V289.6C847.5 285.9 848.6 282.9 850.7 280.6C852.9 278.3 855.7 277.1 859.1 277.1C862.8 277.2 865.7 278.3 867.9 280.6Z" fill="#223983"/>
<path d="M675.3 389.8C673 387.5 671.9 384.5 671.9 380.6V289.9C671.9 286.1 672.9 283.2 675 281.1C677.1 279 680 278 683.8 278H724.5C736.9 278 746.6 281.1 753.5 287.4C760.4 293.7 763.9 302.4 763.9 313.7C763.9 324.9 760.4 333.7 753.5 340C746.6 346.3 736.9 349.4 724.5 349.4H697.3V380.7C697.3 384.6 696.2 387.7 693.9 389.9C691.6 392.2 688.6 393.3 684.7 393.3C680.7 393.2 677.6 392.1 675.3 389.8ZM721.2 330.2C733.8 330.2 740.2 324.7 740.2 313.8C740.2 302.8 733.9 297.3 721.2 297.3H697.2V330.2H721.2Z" fill="#223983"/>
<path d="M648.9 278.7C650.7 277.6 652.8 277 655.1 277C658.3 277 661.3 278.1 663.9 280.2C666.5 282.4 667.8 285 667.8 288.1C667.8 289.7 667.4 291.3 666.7 293L622.9 385.4C621.7 387.9 619.9 389.8 617.6 391.2C615.2 392.5 612.6 393.2 609.8 393.2C607 393.2 604.4 392.5 602 391.2C599.6 389.9 597.8 387.9 596.7 385.4L552.8 293C552 291.5 551.7 289.9 551.7 288.3C551.7 285.1 553 282.4 555.8 280.2C558.5 278 561.5 277 564.9 277C567.2 277 569.2 277.6 571.1 278.7C573 279.8 574.4 281.5 575.4 283.8L610.1 359.6L644.8 283.8C645.7 281.5 647.1 279.8 648.9 278.7Z" fill="#223983"/>
<path d="M527.1 309.5C528.8 311 529.6 313.1 529.6 316C529.6 319 528.9 321.2 527.4 322.7C526 324.2 523.3 325.1 519.5 325.5L514.5 326C507.9 326.7 503.1 328.9 500 332.7C496.9 336.5 495.4 341.2 495.4 346.9V382.1C495.4 385.3 494.4 387.8 492.4 389.5C490.4 391.2 487.9 392.1 484.9 392.1C481.9 392.1 479.4 391.2 477.5 389.5C475.5 387.8 474.6 385.3 474.6 382.1V317.3C474.6 314.2 475.6 311.8 477.5 310.1C479.5 308.4 481.9 307.6 484.8 307.6C487.7 307.6 490 308.4 491.8 310C493.6 311.6 494.5 313.9 494.5 316.9V323.6C496.6 318.7 499.8 314.9 504 312.2C508.2 309.5 512.8 308 518 307.7L520.3 307.5C523.1 307.4 525.4 308.1 527.1 309.5Z" fill="#EB5D18"/>
<path d="M463.4 370.9C464.6 372.4 465.2 374.3 465.2 376.8C465.2 380.3 463.1 383.2 459 385.5C455.2 387.6 450.9 389.3 446.1 390.6C441.3 391.9 436.7 392.5 432.4 392.5C419.2 392.5 408.8 388.7 401.1 381.1C393.4 373.5 389.5 363.1 389.5 350C389.5 341.6 391.2 334.2 394.5 327.7C397.8 321.2 402.6 316.2 408.6 312.6C414.7 309 421.6 307.2 429.3 307.2C436.7 307.2 443.1 308.8 448.6 312.1C454.1 315.3 458.3 319.9 461.3 325.8C464.3 331.7 465.8 338.7 465.8 346.7C465.8 351.5 463.7 353.9 459.4 353.9H410C410.7 361.6 412.8 367.3 416.5 370.9C420.2 374.5 425.5 376.3 432.6 376.3C436.2 376.3 439.3 375.9 442.1 375C444.8 374.1 447.9 372.9 451.4 371.3C454.7 369.5 457.2 368.6 458.8 368.6C460.7 368.8 462.2 369.5 463.4 370.9ZM416.2 327.4C412.8 331 410.8 336.1 410.1 342.8H447.9C447.7 336 446 330.8 442.9 327.3C439.8 323.8 435.4 322 429.8 322C424.1 322.1 419.6 323.8 416.2 327.4Z" fill="#EB5D18"/>
<path d="M391.5 384.2C391.5 386.9 390.4 388.9 388.2 390.3C386 391.7 382.9 392.3 378.9 392.1L374.4 391.8C355.7 390.5 346.3 380.4 346.3 361.7V325.2H337.9C334.9 325.2 332.6 324.5 331 323.2C329.4 321.9 328.6 319.9 328.6 317.3C328.6 314.7 329.4 312.8 331 311.4C332.6 310.1 334.9 309.4 337.9 309.4H346.3V294C346.3 291 347.2 288.6 349.1 286.8C351 285 353.6 284.1 356.8 284.1C359.9 284.1 362.4 285 364.3 286.8C366.2 288.6 367.1 291 367.1 294V309.4H381.3C384.3 309.4 386.6 310.1 388.2 311.4C389.8 312.7 390.6 314.7 390.6 317.3C390.6 319.9 389.8 321.8 388.2 323.2C386.6 324.5 384.3 325.2 381.3 325.2H367.1V363.2C367.1 371.5 370.9 375.9 378.5 376.4L383 376.7C388.7 377 391.5 379.5 391.5 384.2Z" fill="#EB5D18"/>
<path d="M300.3 307.3C294.4 307.3 289.1 308.4 284.5 310.7C279.9 313 276.1 316.3 273.4 320.7V281.7C273.4 278.8 272.5 276.5 270.6 274.8C268.7 273.1 266.2 272.3 263.1 272.3C260 272.3 257.4 273.2 255.5 275C253.6 276.8 252.6 279.1 252.6 282V321.7C250.1 317.1 246.6 313.6 241.9 311.1C237.2 308.6 231.9 307.3 225.8 307.3C218.7 307.3 212.3 309 206.7 312.4C201.1 315.8 196.8 320.6 193.7 326.8C190.6 333 189.1 340.1 189.1 348.2C189.1 356.2 190.7 363.3 193.8 369.5C196.9 375.6 201.2 380.4 206.8 383.8C212.3 387.2 218.7 388.9 225.8 388.9C231.8 388.9 237.2 387.6 241.9 385.1C246.6 382.6 250.2 379.1 252.6 374.5V385.2C252.6 399.5 245.3 406.6 230.7 406.6C226.6 406.6 222.9 406.2 219.7 405.3C216.5 404.4 212.9 403.1 208.9 401.4C207.3 400.7 205.8 400.1 204.4 399.6C202.9 399.1 201.7 398.9 200.7 398.9C198.8 398.9 197.3 399.6 196.1 401.1C194.9 402.5 194.4 404.5 194.4 407C194.4 410.4 196.5 413.4 200.6 415.9C208.7 420.5 218.9 422.8 231.1 422.8C245.1 422.8 255.6 419.5 262.7 412.9C269.7 406.4 273.3 396.9 273.4 384.5C273.4 384.5 273.4 384.5 273.4 384.4C273.5 383.7 273.6 383 273.6 382.2V344.9C273.6 338.5 275.4 333.5 279 329.7C282.6 325.9 287.5 324 293.5 324C298.6 324 302.4 325.4 304.8 328.1C307.2 330.8 308.4 335.2 308.4 341.1V382.3C308.4 385.4 309.3 387.9 311.2 389.7C313.1 391.5 315.6 392.4 318.9 392.4C322.1 392.4 324.7 391.5 326.5 389.7C328.3 387.9 329.3 385.5 329.3 382.3V341C329.1 318.5 319.5 307.3 300.3 307.3ZM246.8 366.1C243.1 370.5 237.9 372.6 231.2 372.6C224.6 372.6 219.4 370.4 215.6 366.1C211.8 361.7 209.9 355.8 209.9 348.2C209.9 340.5 211.8 334.5 215.6 330.1C219.4 325.7 224.6 323.6 231.2 323.6C237.9 323.6 243.1 325.8 246.8 330.1C250.5 334.5 252.4 340.5 252.4 348.2C252.4 355.8 250.5 361.7 246.8 366.1Z" fill="#EB5D18"/>
<path d="M164.4 289.7C162.2 287.6 161.1 284.9 161.1 281.6C161.1 278.3 162.2 275.6 164.4 273.6C166.6 271.6 169.6 270.6 173.4 270.6C177.1 270.6 180.1 271.6 182.4 273.6C184.7 275.6 185.8 278.3 185.8 281.6C185.8 284.9 184.7 287.7 182.5 289.7C180.3 291.8 177.3 292.8 173.5 292.8C169.6 292.8 166.6 291.7 164.4 289.7ZM166 389.6C164 387.9 163.1 385.4 163.1 382.2V317.6C163.1 314.4 164.1 311.9 166 310.2C168 308.5 170.4 307.7 173.5 307.7C176.5 307.7 179 308.5 181 310.2C183 311.9 184 314.3 184 317.6V382.2C184 385.4 183 387.9 181 389.6C179 391.3 176.5 392.2 173.5 392.2C170.4 392.2 167.9 391.3 166 389.6Z" fill="#EB5D18"/>
<path d="M156.1 309.5C157.8 311 158.6 313.1 158.6 316C158.6 319 157.9 321.2 156.4 322.7C154.9 324.2 152.3 325.1 148.5 325.5L143.5 326C136.9 326.7 132.1 328.9 129 332.7C125.9 336.5 124.4 341.2 124.4 346.9V382.1C124.4 385.3 123.4 387.8 121.4 389.5C119.4 391.2 116.9 392.1 113.9 392.1C110.9 392.1 108.4 391.2 106.4 389.5C104.4 387.8 103.5 385.3 103.5 382.1V317.3C103.5 314.2 104.5 311.8 106.4 310.1C108.4 308.4 110.8 307.6 113.7 307.6C116.6 307.6 118.9 308.4 120.7 310C122.5 311.6 123.4 313.9 123.4 316.9V323.6C125.5 318.7 128.7 314.9 132.9 312.2C137.1 309.5 141.7 308 146.9 307.7L149.2 307.5C152.2 307.4 154.4 308.1 156.1 309.5Z" fill="#EB5D18"/>
<path d="M88.5 338C92.2 343 94.1 349.2 94.1 356.4C94.1 366.4 90.5 374.3 83.3 380C76.1 385.7 66.2 388.5 53.6 388.5H10.4C7.19999 388.5 4.59999 387.6 2.79999 385.8C0.999988 384 0 381.5 0 378.3V280.7C0 277.5 0.899988 275 2.79999 273.2C4.59999 271.4 7.19999 270.5 10.4 270.5H51.9C64.2 270.5 73.8 273.2 80.8 278.6C87.8 284 91.3 291.6 91.3 301.3C91.3 307.6 89.7 313 86.4 317.5C83.1 322.1 78.6 325.4 72.8 327.5C79.4 329.5 84.7 332.9 88.5 338ZM21.1 320.2H48.4C63.2 320.2 70.7 314.7 70.7 303.6C70.7 298 68.9 293.9 65.2 291.2C61.5 288.5 55.9 287.2 48.5 287.2H21.2V320.2H21.1ZM68.3 367.6C71.9 364.8 73.7 360.5 73.7 354.5C73.7 348.6 71.9 344.2 68.3 341.3C64.7 338.4 59 336.9 51.3 336.9H21.2V371.7H51.3C59 371.8 64.7 370.4 68.3 367.6Z" fill="#EB5D18"/>
</svg>
