<svg width="1016" height="665" viewBox="0 0 1016 665" fill="none" xmlns="http://www.w3.org/2000/svg">
<path d="M531.1 379.809C529.2 363.909 528.4 348.009 528.7 332.109C526.4 333.109 523.7 333.809 520.6 334.109H520.5H520.4L515.4 334.609C513.3 334.809 511.5 335.209 510.1 335.809C510.2 348.009 510.9 360.209 512.1 372.409C512.8 379.009 512 385.709 514.3 392.209C516.2 397.409 519.6 398.909 524.5 398.109C529.4 397.309 531 394.009 531.1 389.509C531.1 386.309 531.1 383.009 531.1 379.809ZM421.7 362.609C422.1 363.209 422.5 363.709 422.9 364.209C424.8 366.109 428.1 367.109 432.7 367.109C434.5 367.109 436.2 366.909 437.6 366.609C438.1 365.309 438.6 363.909 439.1 362.609H421.7ZM463.4 370.509C462.2 369.109 460.7 368.309 458.8 368.309C458.1 368.309 457.2 368.509 456.2 368.809C458.9 372.609 461.5 376.309 464.3 379.909C464.9 378.809 465.1 377.609 465.1 376.309C465.1 373.909 464.6 372.009 463.4 370.509ZM531.1 379.809C529.2 363.909 528.4 348.009 528.7 332.109C526.4 333.109 523.7 333.809 520.6 334.109H520.5H520.4L515.4 334.609C513.3 334.809 511.5 335.209 510.1 335.809C510.2 348.009 510.9 360.209 512.1 372.409C512.8 379.009 512 385.709 514.3 392.209C516.2 397.409 519.6 398.909 524.5 398.109C529.4 397.309 531 394.009 531.1 389.509C531.1 386.309 531.1 383.009 531.1 379.809ZM421.7 362.609C422.1 363.209 422.5 363.709 422.9 364.209C424.8 366.109 428.1 367.109 432.7 367.109C434.5 367.109 436.2 366.909 437.6 366.609C438.1 365.309 438.6 363.909 439.1 362.609H421.7ZM463.4 370.509C462.2 369.109 460.7 368.309 458.8 368.309C458.1 368.309 457.2 368.509 456.2 368.809C458.9 372.609 461.5 376.309 464.3 379.909C464.9 378.809 465.1 377.609 465.1 376.309C465.1 373.909 464.6 372.009 463.4 370.509ZM421.7 362.609C422.1 363.209 422.5 363.709 422.9 364.209C424.8 366.109 428.1 367.109 432.7 367.109C434.5 367.109 436.2 366.909 437.6 366.609C438.1 365.309 438.6 363.909 439.1 362.609H421.7ZM463.4 370.509C462.2 369.109 460.7 368.309 458.8 368.309C458.1 368.309 457.2 368.509 456.2 368.809C458.9 372.609 461.5 376.309 464.3 379.909C464.9 378.809 465.1 377.609 465.1 376.309C465.1 373.909 464.6 372.009 463.4 370.509ZM421.7 362.609C422.1 363.209 422.5 363.709 422.9 364.209C424.8 366.109 428.1 367.109 432.7 367.109C434.5 367.109 436.2 366.909 437.6 366.609C438.1 365.309 438.6 363.909 439.1 362.609H421.7ZM459.2 341.009C454.9 334.409 455.4 329.009 459.3 322.609C459.3 322.509 459.4 322.409 459.4 322.409C456.6 318.009 452.9 314.409 448.5 311.809C447.5 311.209 446.4 310.609 445.3 310.109C445.1 310.209 444.8 310.209 444.5 310.209C443.4 310.209 442.7 309.709 442.2 308.909C438.3 307.609 433.9 306.909 429.2 306.909C426.6 306.909 424.2 307.109 421.8 307.509C423.7 311.909 425.7 316.309 427.9 320.709C428.1 321.009 428.2 321.409 428.4 321.709C428.8 321.709 429.3 321.709 429.8 321.709C435.4 321.709 439.7 323.509 442.9 327.009C446 330.509 447.7 335.709 447.9 342.509H428.4V342.609C426.6 346.309 424.9 350.009 423.3 353.709H459.5C462.5 353.709 464.4 352.509 465.3 350.109C463.2 347.109 461.2 344.009 459.2 341.009ZM463.4 370.509C462.2 369.109 460.7 368.309 458.8 368.309C458.1 368.309 457.2 368.509 456.2 368.809C458.9 372.609 461.5 376.309 464.3 379.909C464.9 378.809 465.1 377.609 465.1 376.309C465.1 373.909 464.6 372.009 463.4 370.509ZM421.7 362.609C422.1 363.209 422.5 363.709 422.9 364.209C424.8 366.109 428.1 367.109 432.7 367.109C434.5 367.109 436.2 366.909 437.6 366.609C438.1 365.309 438.6 363.909 439.1 362.609H421.7ZM463.4 370.509C462.2 369.109 460.7 368.309 458.8 368.309C458.1 368.309 457.2 368.509 456.2 368.809C458.9 372.609 461.5 376.309 464.3 379.909C464.9 378.809 465.1 377.609 465.1 376.309C465.1 373.909 464.6 372.009 463.4 370.509ZM421.7 362.609C422.1 363.209 422.5 363.709 422.9 364.209C424.8 366.109 428.1 367.109 432.7 367.109C434.5 367.109 436.2 366.909 437.6 366.609C438.1 365.309 438.6 363.909 439.1 362.609H421.7ZM463.4 370.509C462.2 369.109 460.7 368.309 458.8 368.309C458.1 368.309 457.2 368.509 456.2 368.809C458.9 372.609 461.5 376.309 464.3 379.909C464.9 378.809 465.1 377.609 465.1 376.309C465.1 373.909 464.6 372.009 463.4 370.509ZM474.5 363.309V381.809C474.5 385.009 475.5 387.509 477.4 389.209C479.4 390.909 481.8 391.809 484.8 391.809C487.8 391.809 490.3 390.909 492.3 389.209C492.8 388.809 493.2 388.309 493.6 387.809C487 379.809 480.6 371.609 474.5 363.309ZM421.7 362.609C422.1 363.209 422.5 363.709 422.9 364.209C424.8 366.109 428.1 367.109 432.7 367.109C434.5 367.109 436.2 366.909 437.6 366.609C438.1 365.309 438.6 363.909 439.1 362.609H421.7ZM463.4 370.509C462.2 369.109 460.7 368.309 458.8 368.309C458.1 368.309 457.2 368.509 456.2 368.809C458.9 372.609 461.5 376.309 464.3 379.909C464.9 378.809 465.1 377.609 465.1 376.309C465.1 373.909 464.6 372.009 463.4 370.509ZM474.5 363.309V381.809C474.5 385.009 475.5 387.509 477.4 389.209C479.4 390.909 481.8 391.809 484.8 391.809C487.8 391.809 490.3 390.909 492.3 389.209C492.8 388.809 493.2 388.309 493.6 387.809C487 379.809 480.6 371.609 474.5 363.309ZM527.1 309.109C525.7 307.809 523.7 307.209 521.4 307.209C521 307.209 520.7 307.209 520.3 307.209L518 307.409C515.5 307.609 513.1 308.009 510.9 308.709C510.6 314.609 510.4 320.509 510.3 326.409C511.7 326.109 513.1 325.809 514.7 325.709L519.7 325.209C523.5 324.809 526.1 323.809 527.6 322.409C527.8 322.209 527.9 322.009 528.1 321.809C528.3 321.609 528.4 321.409 528.5 321.209C528.5 321.109 528.6 321.109 528.6 321.009C528.7 320.809 528.8 320.609 528.9 320.409C529 320.209 529.1 319.909 529.2 319.609C529.3 317.409 529.4 315.209 529.5 313.009C529 311.309 528.2 310.009 527.1 309.109ZM531.1 379.809C529.2 363.909 528.4 348.009 528.7 332.109C526.4 333.109 523.7 333.809 520.6 334.109H520.5H520.4L515.4 334.609C513.3 334.809 511.5 335.209 510.1 335.809C510.2 348.009 510.9 360.209 512.1 372.409C512.8 379.009 512 385.709 514.3 392.209C516.2 397.409 519.6 398.909 524.5 398.109C529.4 397.309 531 394.009 531.1 389.509C531.1 386.309 531.1 383.009 531.1 379.809ZM421.7 362.609C422.1 363.209 422.5 363.709 422.9 364.209C424.8 366.109 428.1 367.109 432.7 367.109C434.5 367.109 436.2 366.909 437.6 366.609C438.1 365.309 438.6 363.909 439.1 362.609H421.7ZM463.4 370.509C462.2 369.109 460.7 368.309 458.8 368.309C458.1 368.309 457.2 368.509 456.2 368.809C458.9 372.609 461.5 376.309 464.3 379.909C464.9 378.809 465.1 377.609 465.1 376.309C465.1 373.909 464.6 372.009 463.4 370.509ZM474.5 363.309V381.809C474.5 385.009 475.5 387.509 477.4 389.209C479.4 390.909 481.8 391.809 484.8 391.809C487.8 391.809 490.3 390.909 492.3 389.209C492.8 388.809 493.2 388.309 493.6 387.809C487 379.809 480.6 371.609 474.5 363.309ZM527.1 309.109C525.7 307.809 523.7 307.209 521.4 307.209C521 307.209 520.7 307.209 520.3 307.209L518 307.409C515.5 307.609 513.1 308.009 510.9 308.709C510.6 314.609 510.4 320.509 510.3 326.409C511.7 326.109 513.1 325.809 514.7 325.709L519.7 325.209C523.5 324.809 526.1 323.809 527.6 322.409C527.8 322.209 527.9 322.009 528.1 321.809C528.3 321.609 528.4 321.409 528.5 321.209C528.5 321.109 528.6 321.109 528.6 321.009C528.7 320.809 528.8 320.609 528.9 320.409C529 320.209 529.1 319.909 529.2 319.609C529.3 317.409 529.4 315.209 529.5 313.009C529 311.309 528.2 310.009 527.1 309.109ZM531.1 379.809C529.2 363.909 528.4 348.009 528.7 332.109C526.4 333.109 523.7 333.809 520.6 334.109H520.5H520.4L515.4 334.609C513.3 334.809 511.5 335.209 510.1 335.809C510.2 348.009 510.9 360.209 512.1 372.409C512.8 379.009 512 385.709 514.3 392.209C516.2 397.409 519.6 398.909 524.5 398.109C529.4 397.309 531 394.009 531.1 389.509C531.1 386.309 531.1 383.009 531.1 379.809ZM421.7 362.609C422.1 363.209 422.5 363.709 422.9 364.209C424.8 366.109 428.1 367.109 432.7 367.109C434.5 367.109 436.2 366.909 437.6 366.609C438.1 365.309 438.6 363.909 439.1 362.609H421.7ZM463.4 370.509C462.2 369.109 460.7 368.309 458.8 368.309C458.1 368.309 457.2 368.509 456.2 368.809C458.9 372.609 461.5 376.309 464.3 379.909C464.9 378.809 465.1 377.609 465.1 376.309C465.1 373.909 464.6 372.009 463.4 370.509ZM474.5 363.309V381.809C474.5 385.009 475.5 387.509 477.4 389.209C479.4 390.909 481.8 391.809 484.8 391.809C487.8 391.809 490.3 390.909 492.3 389.209C492.8 388.809 493.2 388.309 493.6 387.809C487 379.809 480.6 371.609 474.5 363.309ZM527.1 309.109C525.7 307.809 523.7 307.209 521.4 307.209C521 307.209 520.7 307.209 520.3 307.209L518 307.409C515.5 307.609 513.1 308.009 510.9 308.709C510.6 314.609 510.4 320.509 510.3 326.409C511.7 326.109 513.1 325.809 514.7 325.709L519.7 325.209C523.5 324.809 526.1 323.809 527.6 322.409C527.8 322.209 527.9 322.009 528.1 321.809C528.3 321.609 528.4 321.409 528.5 321.209C528.5 321.109 528.6 321.109 528.6 321.009C528.7 320.809 528.8 320.609 528.9 320.409C529 320.209 529.1 319.909 529.2 319.609C529.3 317.409 529.4 315.209 529.5 313.009C529 311.309 528.2 310.009 527.1 309.109ZM531.1 379.809C529.2 363.909 528.4 348.009 528.7 332.109C526.4 333.109 523.7 333.809 520.6 334.109H520.5H520.4L515.4 334.609C513.3 334.809 511.5 335.209 510.1 335.809C510.2 348.009 510.9 360.209 512.1 372.409C512.8 379.009 512 385.709 514.3 392.209C516.2 397.409 519.6 398.909 524.5 398.109C529.4 397.309 531 394.009 531.1 389.509C531.1 386.309 531.1 383.009 531.1 379.809ZM992.9 341.309C971.3 297.109 940.8 259.809 904.7 226.809C902 224.409 900.5 221.509 899.9 218.009C897.5 204.609 893.2 191.809 889.4 178.809C883.1 157.309 874.2 136.909 864.3 116.809C863.5 115.109 862 113.409 863.4 111.509C864.7 109.809 866.6 111.309 868.2 111.309C881.3 112.009 893.9 115.209 906.3 118.909C938.6 128.209 965.1 145.809 982.9 175.109C987.5 182.709 990.4 190.909 993 199.309C994.8 205.009 999.7 207.809 1004.3 206.609C1009.4 205.209 1011.8 200.409 1010.4 194.209C1010.1 192.909 1009.7 191.609 1009.3 190.309C999.8 161.209 981.6 138.709 956.3 122.009C926.4 102.209 892.5 94.4086 857.3 91.7086C851 91.2086 847.2 89.0087 844 83.9087C830.5 62.3087 813.2 44.1087 792.9 28.8087C768.7 10.7087 741.5 0.308674 711.1 0.00867392C686.7 -0.291326 663.9 7.20863 643.1 19.7086C606.2 41.7086 581.1 74.5087 560.9 111.609C542.7 145.009 531.2 180.909 522.4 217.809C521.6 221.209 520 223.609 517.5 225.909C496.3 245.009 477.2 266.009 460.4 289.109C457.1 293.609 454 298.309 450.8 303.009C451.6 303.409 452.3 303.809 453 304.209C457.5 306.909 461.4 310.309 464.6 314.409C465 313.809 465.4 313.109 465.9 312.509C468.4 308.709 471 305.109 473.7 301.509C483 288.909 493 276.909 503.2 265.109C505.4 262.509 508.1 260.309 510.6 258.009C511.6 257.109 512.6 255.909 514.1 256.609C515.6 257.309 515.1 259.009 515 260.209C514 270.409 512.8 280.709 511.9 290.909C511.6 293.809 511.4 296.609 511.2 299.509C513.1 299.109 515.1 298.809 517.1 298.709L519.4 298.509C520 298.409 520.6 298.409 521.2 298.409C524.8 298.409 527.6 299.309 529.7 300.409C530.5 284.509 531.9 268.609 534.9 252.909C535.9 247.709 536.3 242.309 537.3 237.109C538 232.809 540.1 229.809 543.3 227.209C572.7 203.609 603.6 182.309 636.8 164.509C665.5 149.109 695.5 137.209 726.6 127.509C747.6 120.909 768.9 116.009 790.6 112.909C804.9 110.909 819.4 109.209 833.9 109.709C838.6 109.809 840.8 112.209 842.6 115.809C851.3 132.409 859.4 149.209 865.6 166.909C868.8 176.109 871.7 185.309 874.5 194.609C875 196.309 876.1 198.709 874.4 200.009C872.3 201.409 871.1 198.909 869.7 197.809C848.5 181.109 825.6 167.009 802.2 153.809C788.4 146.009 774.2 139.109 759.8 132.509C756 130.809 752.9 130.809 749.6 133.209C746.4 135.509 746 138.809 746.4 142.409C746.8 146.109 749.7 147.409 752.4 148.809C762.7 154.109 773.3 159.009 783.6 164.409C800.7 173.309 817.2 183.209 833.1 194.109C848.4 204.509 862.9 215.909 877.6 227.209C883 231.409 885 236.709 886 242.709C891.8 279.609 894.4 316.709 892.9 353.909C891.8 382.209 888.3 410.209 882.5 437.909C875.8 470.209 865.8 501.309 851.8 531.209C848.7 537.809 845.2 544.109 841.9 550.509C840.4 553.409 838 554.509 834.9 554.609C819.8 554.809 804.9 552.809 789.9 551.009C775.8 549.309 762.1 546.309 748.3 543.209C746.4 542.809 743.5 543.109 743.4 540.409C743.3 538.209 746.1 537.909 747.7 537.209C774.8 526.109 800.5 512.409 825.5 497.209C836.7 490.309 847.5 482.809 858.3 475.409C865.1 470.709 866.2 466.509 862.7 461.709C858.9 456.509 853.3 455.909 847.1 460.509C821.4 479.609 793.9 495.509 765.2 509.509C748.4 517.709 731 524.709 713.2 530.609C710 531.609 707.3 530.909 704.3 529.809C669.4 517.209 635.8 501.509 604.5 481.509C567.6 457.909 532.7 431.709 503 399.109C501.8 397.809 500.6 396.409 499.4 395.109C498.9 395.609 498.4 396.109 498 396.509C494.4 399.609 489.7 401.309 484.6 401.309C483.2 401.309 481.8 401.209 480.4 400.909C491.1 413.409 502.5 425.209 514.8 436.309C539.1 458.409 564.8 478.709 593 495.809C618.8 511.509 645.1 526.009 673.2 537.309C674.7 537.909 677 538.309 677 540.309C677 542.409 674.8 542.609 673.1 543.009C642.2 550.309 611 555.309 579.2 554.409C545.7 553.509 512.8 548.409 483.3 531.609C454.4 515.109 434.4 491.309 427.4 457.809C425.5 448.709 425.2 439.609 425.2 427.309C424.7 418.809 425.6 410.209 427.3 401.509C420.8 401.109 414.9 399.709 409.6 397.609C406.6 413.109 405.6 429.009 407.1 445.409C409.5 472.009 419.2 495.409 436.1 515.709C461.3 545.909 495.3 560.709 532.8 568.009C559.8 573.309 587.1 574.109 614.8 571.209C642.3 568.409 669.1 563.309 695.5 555.709C703.9 553.309 712 551.509 721.2 554.509C753.6 565.009 787 570.609 821 572.909C822.7 573.009 824.7 572.709 825.5 574.709C826.3 576.609 824.7 577.909 823.7 579.209C814 591.609 803.9 603.509 791.8 613.609C760.4 639.709 725.5 653.209 684.2 642.709C678.8 641.309 674.2 644.209 672.7 649.409C671.5 653.809 674.6 658.809 679.6 660.209C689.8 663.009 700 664.909 708 664.709C723.9 664.709 736.8 662.309 749.3 658.309C770.4 651.709 788.6 640.209 805.3 625.709C821.8 611.209 835.8 594.809 847.3 576.209C848.9 573.709 850.9 573.209 853.5 572.909C869.6 571.109 885.7 569.509 901.4 565.409C929.2 558.109 954.5 546.609 975.6 526.609C997.7 505.609 1010.7 479.809 1014.1 449.909C1018.6 411.309 1009.6 375.309 992.9 341.309ZM820.9 91.3087C785.5 92.9087 750.9 100.109 717.2 110.609C670.4 125.209 626.5 146.609 585.4 173.409C574.1 180.809 562.6 188.009 552.2 196.809C551.1 197.709 550 199.309 548.3 198.409C546.8 197.709 547.2 196.109 547.3 194.109C549.7 186.809 552.2 178.809 555 170.909C567.3 134.609 584.8 101.209 609.8 71.9087C628.7 49.6087 651.1 32.0087 679.3 23.4087C705.7 15.4087 732.1 17.0086 757.5 28.7086C785.1 41.5086 806.2 61.7087 823.9 86.0087C826.6 90.1087 825.2 91.1087 820.9 91.3087ZM919.2 540.309C903.1 546.609 886.4 550.209 869.3 552.109C867.4 552.309 864.9 553.409 863.5 551.209C862.3 549.309 864.1 547.609 864.9 546.009C880.9 514.109 892 480.509 899.9 445.809C911.1 396.609 913.3 346.809 910.9 296.709C910.4 286.509 910.1 276.109 907.4 266.109C907.3 265.709 907.2 265.309 907.2 265.009C907.3 262.409 905.7 259.009 908.5 257.709C911.3 256.409 912.4 260.009 914 261.709C936.1 284.109 954.8 309.109 969.9 336.709C986 366.209 997.6 398.609 996.6 430.809C998.1 482.809 966.6 521.709 919.2 540.309ZM512.1 372.409C512.8 379.009 512 385.709 514.3 392.209C516.2 397.409 519.6 398.909 524.5 398.109C529.4 397.309 531 394.009 531.1 389.509C531.1 386.309 531.1 383.009 531.1 379.809C529.2 363.909 528.4 348.009 528.7 332.109C526.4 333.109 523.7 333.809 520.6 334.109H520.5H520.4L515.4 334.609C513.3 334.809 511.5 335.209 510.1 335.809C510.3 348.009 510.9 360.209 512.1 372.409ZM527.4 322.309C527.6 322.109 527.7 321.909 527.9 321.709C528.1 321.509 528.2 321.309 528.3 321.109C528.3 321.009 528.4 321.009 528.4 320.909C528.5 320.709 528.6 320.509 528.7 320.309C528.8 320.109 528.9 319.809 529 319.509C529.1 317.309 529.2 315.109 529.3 312.909C528.9 311.309 528.2 310.009 527.1 309.109C525.7 307.809 523.7 307.209 521.4 307.209C521 307.209 520.7 307.209 520.3 307.209L518 307.409C515.5 307.609 513.1 308.009 510.9 308.709C510.6 314.609 510.4 320.509 510.3 326.409C511.7 326.109 513.1 325.809 514.7 325.709L519.7 325.209C523.3 324.709 526 323.709 527.4 322.309ZM484.9 391.809C487.9 391.809 490.4 390.909 492.4 389.209C492.9 388.809 493.3 388.309 493.7 387.809C487 379.909 480.6 371.709 474.5 363.309V381.809C474.5 385.009 475.5 387.509 477.4 389.209C479.4 390.909 481.9 391.809 484.9 391.809ZM465.1 376.409C465.1 373.909 464.5 372.009 463.3 370.509C462.1 369.109 460.6 368.309 458.7 368.309C458 368.309 457.1 368.509 456.1 368.809C458.8 372.609 461.4 376.309 464.2 379.909C464.9 378.909 465.1 377.609 465.1 376.409ZM432.7 367.009C434.5 367.009 436.2 366.809 437.6 366.509C438.1 365.209 438.6 363.809 439.1 362.509H421.7C422.1 363.109 422.5 363.609 422.9 364.109C424.8 366.109 428.1 367.009 432.7 367.009ZM434.2 376.009C433.7 376.009 433.2 376.009 432.6 376.009C425.6 376.009 420.3 374.209 416.6 370.709C414.6 376.409 412.9 382.209 411.5 388.009C416.7 390.409 422.6 391.709 429.3 392.009C430.8 386.709 432.4 381.409 434.2 376.009ZM531.1 379.809C529.2 363.909 528.4 348.009 528.7 332.109C526.4 333.109 523.7 333.809 520.6 334.109H520.5H520.4L515.4 334.609C513.3 334.809 511.5 335.209 510.1 335.809C510.2 348.009 510.9 360.209 512.1 372.409C512.8 379.009 512 385.709 514.3 392.209C516.2 397.409 519.6 398.909 524.5 398.109C529.4 397.309 531 394.009 531.1 389.509C531.1 386.309 531.1 383.009 531.1 379.809ZM527.1 309.109C525.7 307.809 523.7 307.209 521.4 307.209C521 307.209 520.7 307.209 520.3 307.209L518 307.409C515.5 307.609 513.1 308.009 510.9 308.709C510.6 314.609 510.4 320.509 510.3 326.409C511.7 326.109 513.1 325.809 514.7 325.709L519.7 325.209C523.5 324.809 526.1 323.809 527.6 322.409C527.8 322.209 527.9 322.009 528.1 321.809C528.3 321.609 528.4 321.409 528.5 321.209C528.5 321.109 528.6 321.109 528.6 321.009C528.7 320.809 528.8 320.609 528.9 320.409C529 320.209 529.1 319.909 529.2 319.609C529.3 317.409 529.4 315.209 529.5 313.009C529 311.309 528.2 310.009 527.1 309.109ZM474.5 363.309V381.809C474.5 385.009 475.5 387.509 477.4 389.209C479.4 390.909 481.8 391.809 484.8 391.809C487.8 391.809 490.3 390.909 492.3 389.209C492.8 388.809 493.2 388.309 493.6 387.809C487 379.809 480.6 371.609 474.5 363.309ZM463.4 370.509C462.2 369.109 460.7 368.309 458.8 368.309C458.1 368.309 457.2 368.509 456.2 368.809C458.9 372.609 461.5 376.309 464.3 379.909C464.9 378.809 465.1 377.609 465.1 376.309C465.1 373.909 464.6 372.009 463.4 370.509ZM421.7 362.609C422.1 363.209 422.5 363.709 422.9 364.209C424.8 366.109 428.1 367.109 432.7 367.109C434.5 367.109 436.2 366.909 437.6 366.609C438.1 365.309 438.6 363.909 439.1 362.609H421.7ZM527.1 309.109C525.7 307.809 523.7 307.209 521.4 307.209C521 307.209 520.7 307.209 520.3 307.209L518 307.409C515.5 307.609 513.1 308.009 510.9 308.709C510.6 314.609 510.4 320.509 510.3 326.409C511.7 326.109 513.1 325.809 514.7 325.709L519.7 325.209C523.5 324.809 526.1 323.809 527.6 322.409C527.8 322.209 527.9 322.009 528.1 321.809C528.3 321.609 528.4 321.409 528.5 321.209C528.5 321.109 528.6 321.109 528.6 321.009C528.7 320.809 528.8 320.609 528.9 320.409C529 320.209 529.1 319.909 529.2 319.609C529.3 317.409 529.4 315.209 529.5 313.009C529 311.309 528.2 310.009 527.1 309.109ZM531.1 379.809C529.2 363.909 528.4 348.009 528.7 332.109C526.4 333.109 523.7 333.809 520.6 334.109H520.5H520.4L515.4 334.609C513.3 334.809 511.5 335.209 510.1 335.809C510.2 348.009 510.9 360.209 512.1 372.409C512.8 379.009 512 385.709 514.3 392.209C516.2 397.409 519.6 398.909 524.5 398.109C529.4 397.309 531 394.009 531.1 389.509C531.1 386.309 531.1 383.009 531.1 379.809ZM474.5 363.309V381.809C474.5 385.009 475.5 387.509 477.4 389.209C479.4 390.909 481.8 391.809 484.8 391.809C487.8 391.809 490.3 390.909 492.3 389.209C492.8 388.809 493.2 388.309 493.6 387.809C487 379.809 480.6 371.609 474.5 363.309ZM463.4 370.509C462.2 369.109 460.7 368.309 458.8 368.309C458.1 368.309 457.2 368.509 456.2 368.809C458.9 372.609 461.5 376.309 464.3 379.909C464.9 378.809 465.1 377.609 465.1 376.309C465.1 373.909 464.6 372.009 463.4 370.509ZM421.7 362.609C422.1 363.209 422.5 363.709 422.9 364.209C424.8 366.109 428.1 367.109 432.7 367.109C434.5 367.109 436.2 366.909 437.6 366.609C438.1 365.309 438.6 363.909 439.1 362.609H421.7ZM474.5 363.309V381.809C474.5 385.009 475.5 387.509 477.4 389.209C479.4 390.909 481.8 391.809 484.8 391.809C487.8 391.809 490.3 390.909 492.3 389.209C492.8 388.809 493.2 388.309 493.6 387.809C487 379.809 480.6 371.609 474.5 363.309ZM463.4 370.509C462.2 369.109 460.7 368.309 458.8 368.309C458.1 368.309 457.2 368.509 456.2 368.809C458.9 372.609 461.5 376.309 464.3 379.909C464.9 378.809 465.1 377.609 465.1 376.309C465.1 373.909 464.6 372.009 463.4 370.509ZM421.7 362.609C422.1 363.209 422.5 363.709 422.9 364.209C424.8 366.109 428.1 367.109 432.7 367.109C434.5 367.109 436.2 366.909 437.6 366.609C438.1 365.309 438.6 363.909 439.1 362.609H421.7ZM463.4 370.509C462.2 369.109 460.7 368.309 458.8 368.309C458.1 368.309 457.2 368.509 456.2 368.809C458.9 372.609 461.5 376.309 464.3 379.909C464.9 378.809 465.1 377.609 465.1 376.309C465.1 373.909 464.6 372.009 463.4 370.509ZM421.7 362.609C422.1 363.209 422.5 363.709 422.9 364.209C424.8 366.109 428.1 367.109 432.7 367.109C434.5 367.109 436.2 366.909 437.6 366.609C438.1 365.309 438.6 363.909 439.1 362.609H421.7ZM463.4 370.509C462.2 369.109 460.7 368.309 458.8 368.309C458.1 368.309 457.2 368.509 456.2 368.809C458.9 372.609 461.5 376.309 464.3 379.909C464.9 378.809 465.1 377.609 465.1 376.309C465.1 373.909 464.6 372.009 463.4 370.509ZM421.7 362.609C422.1 363.209 422.5 363.709 422.9 364.209C424.8 366.109 428.1 367.109 432.7 367.109C434.5 367.109 436.2 366.909 437.6 366.609C438.1 365.309 438.6 363.909 439.1 362.609H421.7ZM421.7 362.609C422.1 363.209 422.5 363.709 422.9 364.209C424.8 366.109 428.1 367.109 432.7 367.109C434.5 367.109 436.2 366.909 437.6 366.609C438.1 365.309 438.6 363.909 439.1 362.609H421.7ZM463.4 370.509C462.2 369.109 460.7 368.309 458.8 368.309C458.1 368.309 457.2 368.509 456.2 368.809C458.9 372.609 461.5 376.309 464.3 379.909C464.9 378.809 465.1 377.609 465.1 376.309C465.1 373.909 464.6 372.009 463.4 370.509ZM436.6 333.409C436.5 333.209 436.3 333.109 436.2 332.909C435.4 332.009 434.1 330.909 431.1 330.709C431.2 331.609 431.2 332.509 431.1 333.409H436.6ZM421.7 362.609C422.1 363.209 422.5 363.709 422.9 364.209C424.8 366.109 428.1 367.109 432.7 367.109C434.5 367.109 436.2 366.909 437.6 366.609C438.1 365.309 438.6 363.909 439.1 362.609H421.7ZM463.4 370.509C462.2 369.109 460.7 368.309 458.8 368.309C458.1 368.309 457.2 368.509 456.2 368.809C458.9 372.609 461.5 376.309 464.3 379.909C464.9 378.809 465.1 377.609 465.1 376.309C465.1 373.909 464.6 372.009 463.4 370.509ZM421.7 362.609C422.1 363.209 422.5 363.709 422.9 364.209C424.8 366.109 428.1 367.109 432.7 367.109C434.5 367.109 436.2 366.909 437.6 366.609C438.1 365.309 438.6 363.909 439.1 362.609H421.7ZM463.4 370.509C462.2 369.109 460.7 368.309 458.8 368.309C458.1 368.309 457.2 368.509 456.2 368.809C458.9 372.609 461.5 376.309 464.3 379.909C464.9 378.809 465.1 377.609 465.1 376.309C465.1 373.909 464.6 372.009 463.4 370.509ZM531.1 379.809C529.2 363.909 528.4 348.009 528.7 332.109C526.4 333.109 523.7 333.809 520.6 334.109H520.5H520.4L515.4 334.609C513.3 334.809 511.5 335.209 510.1 335.809C510.2 348.009 510.9 360.209 512.1 372.409C512.8 379.009 512 385.709 514.3 392.209C516.2 397.409 519.6 398.909 524.5 398.109C529.4 397.309 531 394.009 531.1 389.509C531.1 386.309 531.1 383.009 531.1 379.809ZM451.6 138.109C446.6 136.509 443.5 140.109 440.8 143.009C425.5 159.109 415.2 178.109 410 199.609C404.7 221.509 405.2 243.409 409.5 265.509C411.7 277.009 414.8 288.109 418.7 298.909C422.1 298.209 425.7 297.809 429.5 297.809C432.5 297.809 435.3 298.009 438.1 298.509C431.2 280.309 426.3 261.709 425.1 242.109C423.5 215.909 428.3 191.709 442.5 169.409C446.1 163.709 451 159.209 455.2 154.009C460 147.909 458.2 140.209 451.6 138.109ZM421.7 362.609C422.1 363.209 422.5 363.709 422.9 364.209C424.8 366.109 428.1 367.109 432.7 367.109C434.5 367.109 436.2 366.909 437.6 366.609C438.1 365.309 438.6 363.909 439.1 362.609H421.7ZM463.4 370.509C462.2 369.109 460.7 368.309 458.8 368.309C458.1 368.309 457.2 368.509 456.2 368.809C458.9 372.609 461.5 376.309 464.3 379.909C464.9 378.809 465.1 377.609 465.1 376.309C465.1 373.909 464.6 372.009 463.4 370.509ZM531.1 379.809C529.2 363.909 528.4 348.009 528.7 332.109C526.4 333.109 523.7 333.809 520.6 334.109H520.5H520.4L515.4 334.609C513.3 334.809 511.5 335.209 510.1 335.809C510.2 348.009 510.9 360.209 512.1 372.409C512.8 379.009 512 385.709 514.3 392.209C516.2 397.409 519.6 398.909 524.5 398.109C529.4 397.309 531 394.009 531.1 389.509C531.1 386.309 531.1 383.009 531.1 379.809Z" fill="#F9CBCC"/>
<path d="M867.9 280.209C870.1 282.509 871.2 285.509 871.2 289.209V380.109C871.2 383.909 870.1 386.909 867.9 389.309C865.7 391.609 862.8 392.809 859.2 392.809C855.3 392.809 852.2 391.409 849.8 388.609L795.5 319.109V380.209C795.5 384.009 794.4 387.009 792.3 389.409C790.2 391.709 787.4 392.909 783.8 392.909C780.2 392.909 777.4 391.709 775.2 389.409C773 387.109 772 384.009 772 380.209V289.309C772 285.609 773.1 282.609 775.3 280.309C777.5 278.009 780.4 276.809 784 276.809C788 276.809 791.1 278.209 793.2 281.009L847.5 350.009V289.209C847.5 285.509 848.6 282.509 850.7 280.209C852.9 277.909 855.7 276.709 859.1 276.709C862.8 276.709 865.7 277.909 867.9 280.209Z" fill="white"/>
<path d="M675.3 389.409C673 387.109 671.9 384.109 671.9 380.209V289.509C671.9 285.709 672.9 282.809 675 280.709C677.1 278.609 680 277.609 683.8 277.609H724.5C736.9 277.609 746.6 280.709 753.5 287.009C760.4 293.309 763.9 302.009 763.9 313.309C763.9 324.509 760.4 333.309 753.5 339.609C746.6 345.909 736.9 349.009 724.5 349.009H697.3V380.309C697.3 384.209 696.2 387.309 693.9 389.509C691.6 391.809 688.6 392.909 684.7 392.909C680.7 392.809 677.6 391.609 675.3 389.409ZM721.2 329.709C733.8 329.709 740.2 324.209 740.2 313.309C740.2 302.309 733.9 296.809 721.2 296.809H697.2V329.709H721.2Z" fill="white"/>
<path d="M648.9 278.309C650.7 277.209 652.8 276.609 655.1 276.609C658.3 276.609 661.3 277.709 663.9 279.809C666.5 282.009 667.8 284.609 667.8 287.709C667.8 289.309 667.4 290.909 666.7 292.609L622.9 385.009C621.7 387.509 619.9 389.409 617.6 390.809C615.2 392.109 612.6 392.809 609.8 392.809C607 392.809 604.4 392.109 602 390.809C599.6 389.509 597.8 387.509 596.7 385.009L552.9 292.609C552.1 291.109 551.8 289.509 551.8 287.909C551.8 284.709 553.1 282.009 555.9 279.809C558.6 277.609 561.6 276.609 565 276.609C567.3 276.609 569.3 277.209 571.2 278.309C573.1 279.409 574.5 281.109 575.5 283.409L610.2 359.209L644.9 283.409C645.7 281.109 647.1 279.409 648.9 278.309Z" fill="white"/>
<path d="M527.1 309.109C528.8 310.609 529.6 312.709 529.6 315.609C529.6 318.609 528.9 320.809 527.4 322.309C526 323.809 523.3 324.709 519.5 325.109L514.5 325.609C507.9 326.309 503.1 328.509 500 332.309C496.9 336.109 495.4 340.809 495.4 346.509V381.709C495.4 384.909 494.4 387.409 492.4 389.109C490.4 390.809 487.9 391.709 484.9 391.709C481.9 391.709 479.4 390.809 477.5 389.109C475.5 387.409 474.6 384.909 474.6 381.709V316.909C474.6 313.809 475.6 311.409 477.5 309.709C479.5 308.009 481.9 307.209 484.8 307.209C487.7 307.209 490 308.009 491.8 309.609C493.6 311.209 494.5 313.509 494.5 316.509V323.209C496.6 318.309 499.8 314.509 504 311.809C508.2 309.109 512.8 307.609 518 307.309L520.3 307.109C523.1 307.009 525.4 307.609 527.1 309.109Z" fill="#EB5D18"/>
<path d="M463.4 370.509C464.6 372.009 465.2 373.909 465.2 376.409C465.2 379.909 463.1 382.809 459 385.109C455.2 387.209 450.9 388.909 446.1 390.209C441.3 391.509 436.7 392.109 432.4 392.109C419.2 392.109 408.8 388.309 401.1 380.709C393.4 373.109 389.5 362.709 389.5 349.609C389.5 341.209 391.2 333.809 394.5 327.309C397.8 320.809 402.6 315.809 408.6 312.209C414.7 308.609 421.6 306.809 429.3 306.809C436.7 306.809 443.1 308.409 448.6 311.709C454.1 314.909 458.3 319.509 461.3 325.409C464.3 331.309 465.8 338.309 465.8 346.309C465.8 351.109 463.7 353.509 459.4 353.509H410C410.7 361.209 412.8 366.909 416.5 370.509C420.2 374.109 425.5 375.909 432.6 375.909C436.2 375.909 439.3 375.509 442.1 374.609C444.8 373.709 447.9 372.509 451.4 370.909C454.7 369.109 457.2 368.209 458.8 368.209C460.7 368.309 462.2 369.109 463.4 370.509ZM416.2 327.009C412.8 330.609 410.8 335.709 410.1 342.409H447.9C447.7 335.609 446 330.409 442.9 326.909C439.8 323.409 435.4 321.609 429.8 321.609C424.1 321.609 419.6 323.409 416.2 327.009Z" fill="#EB5D18"/>
<path d="M391.5 383.709C391.5 386.409 390.4 388.409 388.2 389.809C386 391.209 382.9 391.809 378.9 391.609L374.4 391.309C355.7 390.009 346.3 379.909 346.3 361.209V324.709H337.9C334.9 324.709 332.6 324.009 331 322.709C329.4 321.409 328.6 319.409 328.6 316.809C328.6 314.209 329.4 312.309 331 310.909C332.6 309.609 334.9 308.909 337.9 308.909H346.3V293.509C346.3 290.509 347.2 288.109 349.1 286.309C351 284.509 353.6 283.609 356.8 283.609C359.9 283.609 362.4 284.509 364.3 286.309C366.2 288.109 367.1 290.509 367.1 293.509V308.909H381.3C384.3 308.909 386.6 309.609 388.2 310.909C389.8 312.209 390.6 314.209 390.6 316.809C390.6 319.409 389.8 321.309 388.2 322.709C386.6 324.009 384.3 324.709 381.3 324.709H367.1V362.709C367.1 371.009 370.9 375.409 378.5 375.909L383 376.209C388.7 376.509 391.5 379.109 391.5 383.709Z" fill="#EB5D18"/>
<path d="M300.3 306.909C294.4 306.909 289.1 308.009 284.5 310.309C279.9 312.609 276.1 315.909 273.4 320.309V281.309C273.4 278.409 272.5 276.109 270.6 274.409C268.7 272.709 266.2 271.909 263.1 271.909C260 271.909 257.4 272.809 255.5 274.609C253.6 276.409 252.6 278.709 252.6 281.609V321.309C250.1 316.709 246.6 313.209 241.9 310.709C237.2 308.209 231.9 306.909 225.8 306.909C218.7 306.909 212.3 308.609 206.7 312.009C201.1 315.409 196.8 320.209 193.7 326.409C190.6 332.609 189.1 339.709 189.1 347.809C189.1 355.809 190.7 362.909 193.8 369.109C196.9 375.209 201.2 380.009 206.8 383.409C212.3 386.809 218.7 388.509 225.8 388.509C231.8 388.509 237.2 387.209 241.9 384.709C246.6 382.209 250.2 378.709 252.6 374.109V384.809C252.6 399.109 245.3 406.209 230.7 406.209C226.6 406.209 222.9 405.809 219.7 404.909C216.5 404.009 212.9 402.709 208.9 401.009C207.3 400.309 205.8 399.709 204.4 399.209C202.9 398.709 201.7 398.509 200.7 398.509C198.8 398.509 197.3 399.209 196.1 400.709C194.9 402.109 194.4 404.109 194.4 406.609C194.4 410.009 196.5 413.009 200.6 415.509C208.7 420.109 218.9 422.409 231.1 422.409C245.1 422.409 255.6 419.109 262.7 412.509C269.7 406.009 273.3 396.509 273.4 384.109C273.4 384.109 273.4 384.109 273.4 384.009C273.5 383.309 273.6 382.609 273.6 381.809V344.509C273.6 338.109 275.4 333.109 279 329.309C282.6 325.509 287.5 323.609 293.5 323.609C298.6 323.609 302.4 325.009 304.8 327.709C307.2 330.409 308.4 334.809 308.4 340.709V381.909C308.4 385.009 309.3 387.509 311.2 389.309C313.1 391.109 315.6 392.009 318.9 392.009C322.1 392.009 324.7 391.109 326.5 389.309C328.3 387.509 329.3 385.109 329.3 381.909V340.709C329.1 318.109 319.5 306.909 300.3 306.909ZM246.8 365.709C243.1 370.109 237.9 372.209 231.2 372.209C224.6 372.209 219.4 370.009 215.6 365.709C211.8 361.309 209.9 355.409 209.9 347.809C209.9 340.109 211.8 334.109 215.6 329.709C219.4 325.309 224.6 323.209 231.2 323.209C237.9 323.209 243.1 325.409 246.8 329.709C250.5 334.109 252.4 340.109 252.4 347.809C252.4 355.309 250.5 361.309 246.8 365.709Z" fill="#EB5D18"/>
<path d="M164.4 289.209C162.2 287.109 161.1 284.409 161.1 281.109C161.1 277.809 162.2 275.109 164.4 273.109C166.6 271.109 169.6 270.109 173.4 270.109C177.1 270.109 180.1 271.109 182.4 273.109C184.7 275.109 185.8 277.809 185.8 281.109C185.8 284.409 184.7 287.209 182.5 289.209C180.3 291.309 177.3 292.309 173.5 292.309C169.6 292.309 166.6 291.309 164.4 289.209ZM166 389.209C164 387.509 163.1 385.009 163.1 381.809V317.209C163.1 314.009 164.1 311.509 166 309.809C168 308.109 170.4 307.309 173.5 307.309C176.5 307.309 179 308.109 181 309.809C183 311.509 184 313.909 184 317.209V381.809C184 385.009 183 387.509 181 389.209C179 390.909 176.5 391.809 173.5 391.809C170.4 391.809 167.9 390.909 166 389.209Z" fill="#EB5D18"/>
<path d="M156.1 309.109C157.8 310.609 158.6 312.709 158.6 315.609C158.6 318.609 157.9 320.809 156.4 322.309C154.9 323.809 152.3 324.709 148.5 325.109L143.5 325.609C136.9 326.309 132.1 328.509 129 332.309C125.9 336.109 124.4 340.809 124.4 346.509V381.709C124.4 384.909 123.4 387.409 121.4 389.109C119.4 390.809 116.9 391.709 113.9 391.709C110.9 391.709 108.4 390.809 106.4 389.109C104.4 387.409 103.5 384.909 103.5 381.709V316.909C103.5 313.809 104.5 311.409 106.4 309.709C108.4 308.009 110.8 307.209 113.7 307.209C116.6 307.209 118.9 308.009 120.7 309.609C122.5 311.209 123.4 313.509 123.4 316.509V323.209C125.5 318.309 128.7 314.509 132.9 311.809C137.1 309.109 141.7 307.609 146.9 307.309L149.2 307.109C152.2 307.009 154.4 307.609 156.1 309.109Z" fill="#EB5D18"/>
<path d="M88.5 337.509C92.2 342.509 94.1 348.709 94.1 355.909C94.1 365.909 90.5 373.809 83.3 379.509C76.1 385.209 66.2 388.009 53.6 388.009H10.4C7.19999 388.009 4.59999 387.109 2.79999 385.309C0.999988 383.509 0 381.009 0 377.809V280.209C0 277.009 0.899988 274.509 2.79999 272.709C4.59999 270.909 7.19999 270.009 10.4 270.009H51.9C64.2 270.009 73.8 272.709 80.8 278.109C87.8 283.509 91.3 291.109 91.3 300.809C91.3 307.109 89.7 312.509 86.4 317.009C83.1 321.609 78.6 324.909 72.8 327.009C79.4 329.109 84.7 332.509 88.5 337.509ZM21.1 319.809H48.4C63.2 319.809 70.7 314.309 70.7 303.209C70.7 297.609 68.9 293.509 65.2 290.809C61.5 288.109 55.9 286.809 48.5 286.809H21.2V319.809H21.1ZM68.3 367.209C71.9 364.409 73.7 360.109 73.7 354.109C73.7 348.209 71.9 343.809 68.3 340.909C64.7 338.009 59 336.509 51.3 336.509H21.2V371.309H51.3C59 371.409 64.7 370.009 68.3 367.209Z" fill="#EB5D18"/>
</svg>
