<svg width="1016" height="665" viewBox="0 0 1016 665" fill="none" xmlns="http://www.w3.org/2000/svg">
<path d="M531.1 379.909C529.2 364.009 528.4 348.109 528.7 332.209C526.4 333.209 523.7 333.909 520.6 334.209H520.5H520.4L515.4 334.709C513.3 334.909 511.5 335.309 510.1 335.909C510.2 348.109 510.9 360.309 512.1 372.509C512.8 379.109 512 385.809 514.3 392.309C516.2 397.509 519.6 399.009 524.5 398.209C529.4 397.409 531 394.109 531.1 389.609C531.1 386.409 531.1 383.109 531.1 379.909ZM421.7 362.709C422.1 363.309 422.5 363.809 422.9 364.309C424.8 366.209 428.1 367.209 432.7 367.209C434.5 367.209 436.2 367.009 437.6 366.709C438.1 365.409 438.6 364.109 439.1 362.709H421.7ZM463.4 370.609C462.2 369.209 460.7 368.409 458.8 368.409C458.1 368.409 457.2 368.609 456.2 368.909C458.9 372.709 461.5 376.409 464.3 380.009C464.9 378.909 465.1 377.709 465.1 376.409C465.1 374.009 464.6 372.009 463.4 370.609ZM531.1 379.909C529.2 364.009 528.4 348.109 528.7 332.209C526.4 333.209 523.7 333.909 520.6 334.209H520.5H520.4L515.4 334.709C513.3 334.909 511.5 335.309 510.1 335.909C510.2 348.109 510.9 360.309 512.1 372.509C512.8 379.109 512 385.809 514.3 392.309C516.2 397.509 519.6 399.009 524.5 398.209C529.4 397.409 531 394.109 531.1 389.609C531.1 386.409 531.1 383.109 531.1 379.909ZM421.7 362.709C422.1 363.309 422.5 363.809 422.9 364.309C424.8 366.209 428.1 367.209 432.7 367.209C434.5 367.209 436.2 367.009 437.6 366.709C438.1 365.409 438.6 364.109 439.1 362.709H421.7ZM463.4 370.609C462.2 369.209 460.7 368.409 458.8 368.409C458.1 368.409 457.2 368.609 456.2 368.909C458.9 372.709 461.5 376.409 464.3 380.009C464.9 378.909 465.1 377.709 465.1 376.409C465.1 374.009 464.6 372.009 463.4 370.609ZM421.7 362.709C422.1 363.309 422.5 363.809 422.9 364.309C424.8 366.209 428.1 367.209 432.7 367.209C434.5 367.209 436.2 367.009 437.6 366.709C438.1 365.409 438.6 364.109 439.1 362.709H421.7ZM463.4 370.609C462.2 369.209 460.7 368.409 458.8 368.409C458.1 368.409 457.2 368.609 456.2 368.909C458.9 372.709 461.5 376.409 464.3 380.009C464.9 378.909 465.1 377.709 465.1 376.409C465.1 374.009 464.6 372.009 463.4 370.609ZM421.7 362.709C422.1 363.309 422.5 363.809 422.9 364.309C424.8 366.209 428.1 367.209 432.7 367.209C434.5 367.209 436.2 367.009 437.6 366.709C438.1 365.409 438.6 364.109 439.1 362.709H421.7ZM459.2 341.109C454.9 334.509 455.4 329.109 459.3 322.709C459.3 322.609 459.4 322.509 459.4 322.509C456.6 318.109 452.9 314.509 448.5 311.909C447.5 311.309 446.4 310.709 445.3 310.209C445.1 310.309 444.8 310.309 444.5 310.309C443.4 310.309 442.7 309.809 442.2 309.009C438.3 307.709 433.9 307.009 429.2 307.009C426.6 307.009 424.2 307.209 421.8 307.609C423.7 312.009 425.7 316.409 427.9 320.809C428.1 321.109 428.2 321.509 428.4 321.809C428.8 321.809 429.3 321.809 429.8 321.809C435.4 321.809 439.7 323.609 442.9 327.109C446 330.609 447.7 335.809 447.9 342.609H428.4V342.709C426.6 346.409 424.9 350.109 423.3 353.809H459.5C462.5 353.809 464.4 352.609 465.3 350.209C463.2 347.109 461.2 344.109 459.2 341.109ZM463.4 370.609C462.2 369.209 460.7 368.409 458.8 368.409C458.1 368.409 457.2 368.609 456.2 368.909C458.9 372.709 461.5 376.409 464.3 380.009C464.9 378.909 465.1 377.709 465.1 376.409C465.1 374.009 464.6 372.009 463.4 370.609ZM421.7 362.709C422.1 363.309 422.5 363.809 422.9 364.309C424.8 366.209 428.1 367.209 432.7 367.209C434.5 367.209 436.2 367.009 437.6 366.709C438.1 365.409 438.6 364.109 439.1 362.709H421.7ZM463.4 370.609C462.2 369.209 460.7 368.409 458.8 368.409C458.1 368.409 457.2 368.609 456.2 368.909C458.9 372.709 461.5 376.409 464.3 380.009C464.9 378.909 465.1 377.709 465.1 376.409C465.1 374.009 464.6 372.009 463.4 370.609ZM421.7 362.709C422.1 363.309 422.5 363.809 422.9 364.309C424.8 366.209 428.1 367.209 432.7 367.209C434.5 367.209 436.2 367.009 437.6 366.709C438.1 365.409 438.6 364.109 439.1 362.709H421.7ZM463.4 370.609C462.2 369.209 460.7 368.409 458.8 368.409C458.1 368.409 457.2 368.609 456.2 368.909C458.9 372.709 461.5 376.409 464.3 380.009C464.9 378.909 465.1 377.709 465.1 376.409C465.1 374.009 464.6 372.009 463.4 370.609ZM474.5 363.309V381.809C474.5 385.009 475.5 387.509 477.4 389.209C479.4 390.909 481.8 391.809 484.8 391.809C487.8 391.809 490.3 390.909 492.3 389.209C492.8 388.809 493.2 388.309 493.6 387.809C487 379.909 480.6 371.709 474.5 363.309ZM421.7 362.709C422.1 363.309 422.5 363.809 422.9 364.309C424.8 366.209 428.1 367.209 432.7 367.209C434.5 367.209 436.2 367.009 437.6 366.709C438.1 365.409 438.6 364.109 439.1 362.709H421.7ZM463.4 370.609C462.2 369.209 460.7 368.409 458.8 368.409C458.1 368.409 457.2 368.609 456.2 368.909C458.9 372.709 461.5 376.409 464.3 380.009C464.9 378.909 465.1 377.709 465.1 376.409C465.1 374.009 464.6 372.009 463.4 370.609ZM474.5 363.309V381.809C474.5 385.009 475.5 387.509 477.4 389.209C479.4 390.909 481.8 391.809 484.8 391.809C487.8 391.809 490.3 390.909 492.3 389.209C492.8 388.809 493.2 388.309 493.6 387.809C487 379.909 480.6 371.709 474.5 363.309ZM527.1 309.109C525.7 307.809 523.7 307.209 521.4 307.209C521 307.209 520.7 307.209 520.3 307.209L518 307.409C515.5 307.609 513.1 308.009 510.9 308.709C510.6 314.609 510.4 320.509 510.3 326.409C511.7 326.109 513.1 325.809 514.7 325.709L519.7 325.209C523.5 324.809 526.1 323.809 527.6 322.409C527.8 322.209 527.9 322.009 528.1 321.809C528.3 321.609 528.4 321.409 528.5 321.209C528.5 321.109 528.6 321.109 528.6 321.009C528.7 320.809 528.8 320.609 528.9 320.409C529 320.209 529.1 319.909 529.2 319.609C529.3 317.409 529.4 315.209 529.5 313.009C529 311.409 528.2 310.109 527.1 309.109ZM531.1 379.909C529.2 364.009 528.4 348.109 528.7 332.209C526.4 333.209 523.7 333.909 520.6 334.209H520.5H520.4L515.4 334.709C513.3 334.909 511.5 335.309 510.1 335.909C510.2 348.109 510.9 360.309 512.1 372.509C512.8 379.109 512 385.809 514.3 392.309C516.2 397.509 519.6 399.009 524.5 398.209C529.4 397.409 531 394.109 531.1 389.609C531.1 386.409 531.1 383.109 531.1 379.909ZM421.7 362.709C422.1 363.309 422.5 363.809 422.9 364.309C424.8 366.209 428.1 367.209 432.7 367.209C434.5 367.209 436.2 367.009 437.6 366.709C438.1 365.409 438.6 364.109 439.1 362.709H421.7ZM463.4 370.609C462.2 369.209 460.7 368.409 458.8 368.409C458.1 368.409 457.2 368.609 456.2 368.909C458.9 372.709 461.5 376.409 464.3 380.009C464.9 378.909 465.1 377.709 465.1 376.409C465.1 374.009 464.6 372.009 463.4 370.609ZM474.5 363.309V381.809C474.5 385.009 475.5 387.509 477.4 389.209C479.4 390.909 481.8 391.809 484.8 391.809C487.8 391.809 490.3 390.909 492.3 389.209C492.8 388.809 493.2 388.309 493.6 387.809C487 379.909 480.6 371.709 474.5 363.309ZM527.1 309.109C525.7 307.809 523.7 307.209 521.4 307.209C521 307.209 520.7 307.209 520.3 307.209L518 307.409C515.5 307.609 513.1 308.009 510.9 308.709C510.6 314.609 510.4 320.509 510.3 326.409C511.7 326.109 513.1 325.809 514.7 325.709L519.7 325.209C523.5 324.809 526.1 323.809 527.6 322.409C527.8 322.209 527.9 322.009 528.1 321.809C528.3 321.609 528.4 321.409 528.5 321.209C528.5 321.109 528.6 321.109 528.6 321.009C528.7 320.809 528.8 320.609 528.9 320.409C529 320.209 529.1 319.909 529.2 319.609C529.3 317.409 529.4 315.209 529.5 313.009C529 311.409 528.2 310.109 527.1 309.109ZM531.1 379.909C529.2 364.009 528.4 348.109 528.7 332.209C526.4 333.209 523.7 333.909 520.6 334.209H520.5H520.4L515.4 334.709C513.3 334.909 511.5 335.309 510.1 335.909C510.2 348.109 510.9 360.309 512.1 372.509C512.8 379.109 512 385.809 514.3 392.309C516.2 397.509 519.6 399.009 524.5 398.209C529.4 397.409 531 394.109 531.1 389.609C531.1 386.409 531.1 383.109 531.1 379.909ZM421.7 362.709C422.1 363.309 422.5 363.809 422.9 364.309C424.8 366.209 428.1 367.209 432.7 367.209C434.5 367.209 436.2 367.009 437.6 366.709C438.1 365.409 438.6 364.109 439.1 362.709H421.7ZM463.4 370.609C462.2 369.209 460.7 368.409 458.8 368.409C458.1 368.409 457.2 368.609 456.2 368.909C458.9 372.709 461.5 376.409 464.3 380.009C464.9 378.909 465.1 377.709 465.1 376.409C465.1 374.009 464.6 372.009 463.4 370.609ZM474.5 363.309V381.809C474.5 385.009 475.5 387.509 477.4 389.209C479.4 390.909 481.8 391.809 484.8 391.809C487.8 391.809 490.3 390.909 492.3 389.209C492.8 388.809 493.2 388.309 493.6 387.809C487 379.909 480.6 371.709 474.5 363.309ZM527.1 309.109C525.7 307.809 523.7 307.209 521.4 307.209C521 307.209 520.7 307.209 520.3 307.209L518 307.409C515.5 307.609 513.1 308.009 510.9 308.709C510.6 314.609 510.4 320.509 510.3 326.409C511.7 326.109 513.1 325.809 514.7 325.709L519.7 325.209C523.5 324.809 526.1 323.809 527.6 322.409C527.8 322.209 527.9 322.009 528.1 321.809C528.3 321.609 528.4 321.409 528.5 321.209C528.5 321.109 528.6 321.109 528.6 321.009C528.7 320.809 528.8 320.609 528.9 320.409C529 320.209 529.1 319.909 529.2 319.609C529.3 317.409 529.4 315.209 529.5 313.009C529 311.409 528.2 310.109 527.1 309.109ZM531.1 379.909C529.2 364.009 528.4 348.109 528.7 332.209C526.4 333.209 523.7 333.909 520.6 334.209H520.5H520.4L515.4 334.709C513.3 334.909 511.5 335.309 510.1 335.909C510.2 348.109 510.9 360.309 512.1 372.509C512.8 379.109 512 385.809 514.3 392.309C516.2 397.509 519.6 399.009 524.5 398.209C529.4 397.409 531 394.109 531.1 389.609C531.1 386.409 531.1 383.109 531.1 379.909ZM992.9 341.309C971.3 297.109 940.8 259.809 904.7 226.809C902 224.409 900.5 221.509 899.9 218.009C897.5 204.609 893.2 191.809 889.4 178.809C883.1 157.309 874.2 136.909 864.3 116.809C863.5 115.109 862 113.409 863.4 111.509C864.7 109.809 866.6 111.309 868.2 111.309C881.3 112.009 893.9 115.209 906.3 118.909C938.6 128.209 965.1 145.809 982.9 175.109C987.5 182.709 990.4 190.909 993 199.309C994.8 205.009 999.7 207.809 1004.3 206.609C1009.4 205.209 1011.8 200.409 1010.4 194.209C1010.1 192.909 1009.7 191.609 1009.3 190.309C999.8 161.209 981.6 138.709 956.3 122.009C926.4 102.209 892.5 94.4086 857.3 91.7086C851 91.2086 847.2 89.1086 844 83.9086C830.5 62.3086 813.2 44.1087 792.9 28.8087C768.7 10.7087 741.5 0.308674 711.1 0.00867392C686.7 -0.291326 663.9 7.20863 643.1 19.7086C606.2 41.7086 581.1 74.6088 560.9 111.609C542.7 145.009 531.2 180.909 522.4 217.809C521.6 221.209 520 223.609 517.5 225.909C496.3 245.009 477.2 266.009 460.4 289.109C457.1 293.609 454 298.309 450.8 303.009C451.6 303.409 452.3 303.809 453 304.209C457.5 306.909 461.4 310.309 464.6 314.409C465 313.809 465.4 313.109 465.9 312.509C468.4 308.709 471 305.109 473.7 301.509C483 288.909 493 276.909 503.2 265.109C505.4 262.509 508.1 260.309 510.6 258.009C511.6 257.109 512.6 255.909 514.1 256.609C515.6 257.309 515.1 259.009 515 260.209C514 270.409 512.8 280.709 511.9 290.909C511.6 293.809 511.4 296.609 511.2 299.509C513.1 299.109 515.1 298.809 517.1 298.709L519.4 298.509C520 298.409 520.6 298.409 521.2 298.409C524.8 298.409 527.6 299.309 529.7 300.409C530.5 284.509 531.9 268.609 534.9 252.909C535.9 247.709 536.3 242.309 537.3 237.109C538 232.809 540.1 229.809 543.3 227.209C572.7 203.609 603.6 182.309 636.8 164.509C665.5 149.109 695.5 137.209 726.6 127.509C747.6 120.909 768.9 116.009 790.6 112.909C804.9 110.909 819.4 109.209 833.9 109.709C838.6 109.809 840.8 112.209 842.6 115.809C851.3 132.409 859.4 149.209 865.6 166.909C868.8 176.109 871.7 185.309 874.5 194.609C875 196.309 876.1 198.709 874.4 200.009C872.3 201.409 871.1 198.909 869.7 197.809C848.5 181.109 825.6 167.009 802.2 153.809C788.4 146.009 774.2 139.109 759.8 132.509C756 130.809 752.9 130.809 749.6 133.209C746.4 135.509 746 138.809 746.4 142.409C746.8 146.109 749.7 147.409 752.4 148.809C762.7 154.109 773.3 159.009 783.6 164.409C800.7 173.309 817.2 183.209 833.1 194.109C848.4 204.509 862.9 215.909 877.6 227.209C883 231.409 885 236.709 886 242.709C891.8 279.609 894.4 316.709 892.9 353.909C891.8 382.209 888.3 410.209 882.5 437.909C875.8 470.209 865.8 501.309 851.8 531.209C848.7 537.809 845.2 544.109 841.9 550.509C840.4 553.409 838 554.509 834.9 554.609C819.8 554.809 804.9 552.809 789.9 551.009C775.8 549.309 762.1 546.309 748.3 543.209C746.4 542.809 743.5 543.109 743.4 540.409C743.3 538.209 746.1 537.909 747.7 537.209C774.8 526.109 800.5 512.409 825.5 497.209C836.7 490.309 847.5 482.809 858.3 475.409C865.1 470.709 866.2 466.509 862.7 461.709C858.9 456.509 853.3 455.909 847.1 460.509C821.4 479.609 793.9 495.509 765.2 509.509C748.4 517.709 731 524.709 713.2 530.609C710 531.609 707.3 530.909 704.3 529.809C669.4 517.209 635.8 501.509 604.5 481.509C567.6 457.909 532.7 431.709 503 399.109C501.8 397.809 500.6 396.409 499.4 395.109C498.9 395.609 498.4 396.109 498 396.509C494.4 399.609 489.7 401.309 484.6 401.309C483.2 401.309 481.8 401.209 480.4 400.909C491.1 413.409 502.5 425.209 514.8 436.309C539.1 458.409 564.8 478.709 593 495.809C618.8 511.509 645.1 526.009 673.2 537.309C674.7 537.909 677 538.309 677 540.309C677 542.409 674.8 542.609 673.1 543.009C642.2 550.309 611 555.309 579.2 554.409C545.7 553.509 512.8 548.409 483.3 531.609C454.4 515.109 434.4 491.309 427.4 457.809C425.5 448.709 425.2 439.609 425.2 427.309C424.7 418.809 425.6 410.209 427.3 401.509C420.8 401.109 414.9 399.709 409.6 397.609C406.6 413.109 405.6 429.009 407.1 445.409C409.5 472.009 419.2 495.409 436.1 515.709C461.3 545.909 495.3 560.709 532.8 568.009C559.8 573.309 587.1 574.109 614.8 571.209C642.3 568.409 669.1 563.309 695.5 555.709C703.9 553.309 712 551.509 721.2 554.509C753.6 565.009 787 570.609 821 572.909C822.7 573.009 824.7 572.709 825.5 574.709C826.3 576.609 824.7 577.909 823.7 579.209C814 591.609 803.9 603.509 791.8 613.609C760.4 639.709 725.5 653.209 684.2 642.709C678.8 641.309 674.2 644.209 672.7 649.409C671.5 653.809 674.6 658.809 679.6 660.209C689.8 663.009 700 664.909 708 664.709C723.9 664.709 736.8 662.309 749.3 658.309C770.4 651.709 788.6 640.209 805.3 625.709C821.8 611.309 835.8 594.809 847.3 576.209C848.9 573.709 850.9 573.209 853.5 572.909C869.6 571.109 885.7 569.509 901.4 565.409C929.2 558.109 954.5 546.609 975.6 526.609C997.7 505.609 1010.7 479.809 1014.1 449.909C1018.6 411.309 1009.6 375.409 992.9 341.309ZM820.9 91.4086C785.5 93.0086 750.9 100.209 717.2 110.709C670.4 125.309 626.5 146.709 585.4 173.509C574.1 180.909 562.6 188.109 552.2 196.909C551.1 197.809 550 199.409 548.3 198.509C546.8 197.809 547.2 196.209 547.3 194.209C549.7 186.909 552.2 178.909 555 171.009C567.3 134.709 584.8 101.309 609.8 71.9086C628.7 49.6086 651.1 32.0086 679.3 23.4086C705.7 15.4086 732.1 17.0086 757.5 28.7086C785.1 41.5086 806.2 61.7087 823.9 86.0087C826.6 90.2087 825.2 91.2086 820.9 91.4086ZM919.2 540.409C903.1 546.709 886.4 550.309 869.3 552.209C867.4 552.409 864.9 553.509 863.5 551.309C862.3 549.409 864.1 547.709 864.9 546.109C880.9 514.209 892 480.609 899.9 445.909C911.1 396.709 913.3 346.909 910.9 296.809C910.4 286.709 910.1 276.209 907.4 266.209C907.3 265.809 907.2 265.409 907.2 265.109C907.3 262.509 905.7 259.109 908.5 257.809C911.3 256.509 912.4 260.109 914 261.809C936.1 284.209 954.8 309.209 969.9 336.809C986 366.309 997.6 398.709 996.6 430.909C998.1 482.909 966.6 521.709 919.2 540.409ZM512.1 372.509C512.8 379.109 512 385.809 514.3 392.309C516.2 397.509 519.6 399.009 524.5 398.209C529.4 397.409 531 394.109 531.1 389.609C531.1 386.409 531.1 383.109 531.1 379.909C529.2 364.009 528.4 348.109 528.7 332.209C526.4 333.209 523.7 333.909 520.6 334.209H520.5H520.4L515.4 334.709C513.3 334.909 511.5 335.309 510.1 335.909C510.3 348.109 510.9 360.309 512.1 372.509ZM527.4 322.409C527.6 322.209 527.7 322.009 527.9 321.809C528.1 321.609 528.2 321.409 528.3 321.209C528.3 321.109 528.4 321.109 528.4 321.009C528.5 320.809 528.6 320.609 528.7 320.409C528.8 320.209 528.9 319.909 529 319.609C529.1 317.409 529.2 315.209 529.3 313.009C528.9 311.409 528.2 310.109 527.1 309.209C525.7 307.909 523.7 307.309 521.4 307.309C521 307.309 520.7 307.309 520.3 307.309L518 307.509C515.5 307.709 513.1 308.109 510.9 308.809C510.6 314.709 510.4 320.609 510.3 326.509C511.7 326.209 513.1 325.909 514.7 325.809L519.7 325.309C523.3 324.809 526 323.809 527.4 322.409ZM484.9 391.909C487.9 391.909 490.4 391.009 492.4 389.309C492.9 388.909 493.3 388.409 493.7 387.909C487 380.009 480.6 371.809 474.5 363.409V381.909C474.5 385.109 475.5 387.609 477.4 389.309C479.4 391.009 481.9 391.909 484.9 391.909ZM465.1 376.409C465.1 374.009 464.5 372.009 463.3 370.509C462.1 369.109 460.6 368.309 458.7 368.309C458 368.309 457.1 368.509 456.1 368.809C458.8 372.609 461.4 376.309 464.2 379.909C464.9 378.909 465.1 377.709 465.1 376.409ZM432.7 367.109C434.5 367.109 436.2 366.909 437.6 366.609C438.1 365.309 438.6 364.009 439.1 362.609H421.7C422.1 363.209 422.5 363.709 422.9 364.209C424.8 366.209 428.1 367.109 432.7 367.109ZM434.2 376.109C433.7 376.109 433.2 376.109 432.6 376.109C425.6 376.109 420.3 374.309 416.6 370.809C414.6 376.509 412.9 382.309 411.5 388.109C416.7 390.509 422.6 391.809 429.3 392.109C430.8 386.809 432.4 381.409 434.2 376.109ZM531.1 379.909C529.2 364.009 528.4 348.109 528.7 332.209C526.4 333.209 523.7 333.909 520.6 334.209H520.5H520.4L515.4 334.709C513.3 334.909 511.5 335.309 510.1 335.909C510.2 348.109 510.9 360.309 512.1 372.509C512.8 379.109 512 385.809 514.3 392.309C516.2 397.509 519.6 399.009 524.5 398.209C529.4 397.409 531 394.109 531.1 389.609C531.1 386.409 531.1 383.109 531.1 379.909ZM527.1 309.109C525.7 307.809 523.7 307.209 521.4 307.209C521 307.209 520.7 307.209 520.3 307.209L518 307.409C515.5 307.609 513.1 308.009 510.9 308.709C510.6 314.609 510.4 320.509 510.3 326.409C511.7 326.109 513.1 325.809 514.7 325.709L519.7 325.209C523.5 324.809 526.1 323.809 527.6 322.409C527.8 322.209 527.9 322.009 528.1 321.809C528.3 321.609 528.4 321.409 528.5 321.209C528.5 321.109 528.6 321.109 528.6 321.009C528.7 320.809 528.8 320.609 528.9 320.409C529 320.209 529.1 319.909 529.2 319.609C529.3 317.409 529.4 315.209 529.5 313.009C529 311.409 528.2 310.109 527.1 309.109ZM474.5 363.309V381.809C474.5 385.009 475.5 387.509 477.4 389.209C479.4 390.909 481.8 391.809 484.8 391.809C487.8 391.809 490.3 390.909 492.3 389.209C492.8 388.809 493.2 388.309 493.6 387.809C487 379.909 480.6 371.709 474.5 363.309ZM463.4 370.609C462.2 369.209 460.7 368.409 458.8 368.409C458.1 368.409 457.2 368.609 456.2 368.909C458.9 372.709 461.5 376.409 464.3 380.009C464.9 378.909 465.1 377.709 465.1 376.409C465.1 374.009 464.6 372.009 463.4 370.609ZM421.7 362.709C422.1 363.309 422.5 363.809 422.9 364.309C424.8 366.209 428.1 367.209 432.7 367.209C434.5 367.209 436.2 367.009 437.6 366.709C438.1 365.409 438.6 364.109 439.1 362.709H421.7ZM527.1 309.109C525.7 307.809 523.7 307.209 521.4 307.209C521 307.209 520.7 307.209 520.3 307.209L518 307.409C515.5 307.609 513.1 308.009 510.9 308.709C510.6 314.609 510.4 320.509 510.3 326.409C511.7 326.109 513.1 325.809 514.7 325.709L519.7 325.209C523.5 324.809 526.1 323.809 527.6 322.409C527.8 322.209 527.9 322.009 528.1 321.809C528.3 321.609 528.4 321.409 528.5 321.209C528.5 321.109 528.6 321.109 528.6 321.009C528.7 320.809 528.8 320.609 528.9 320.409C529 320.209 529.1 319.909 529.2 319.609C529.3 317.409 529.4 315.209 529.5 313.009C529 311.409 528.2 310.109 527.1 309.109ZM531.1 379.909C529.2 364.009 528.4 348.109 528.7 332.209C526.4 333.209 523.7 333.909 520.6 334.209H520.5H520.4L515.4 334.709C513.3 334.909 511.5 335.309 510.1 335.909C510.2 348.109 510.9 360.309 512.1 372.509C512.8 379.109 512 385.809 514.3 392.309C516.2 397.509 519.6 399.009 524.5 398.209C529.4 397.409 531 394.109 531.1 389.609C531.1 386.409 531.1 383.109 531.1 379.909ZM474.5 363.309V381.809C474.5 385.009 475.5 387.509 477.4 389.209C479.4 390.909 481.8 391.809 484.8 391.809C487.8 391.809 490.3 390.909 492.3 389.209C492.8 388.809 493.2 388.309 493.6 387.809C487 379.909 480.6 371.709 474.5 363.309ZM463.4 370.609C462.2 369.209 460.7 368.409 458.8 368.409C458.1 368.409 457.2 368.609 456.2 368.909C458.9 372.709 461.5 376.409 464.3 380.009C464.9 378.909 465.1 377.709 465.1 376.409C465.1 374.009 464.6 372.009 463.4 370.609ZM421.7 362.709C422.1 363.309 422.5 363.809 422.9 364.309C424.8 366.209 428.1 367.209 432.7 367.209C434.5 367.209 436.2 367.009 437.6 366.709C438.1 365.409 438.6 364.109 439.1 362.709H421.7ZM474.5 363.309V381.809C474.5 385.009 475.5 387.509 477.4 389.209C479.4 390.909 481.8 391.809 484.8 391.809C487.8 391.809 490.3 390.909 492.3 389.209C492.8 388.809 493.2 388.309 493.6 387.809C487 379.909 480.6 371.709 474.5 363.309ZM463.4 370.609C462.2 369.209 460.7 368.409 458.8 368.409C458.1 368.409 457.2 368.609 456.2 368.909C458.9 372.709 461.5 376.409 464.3 380.009C464.9 378.909 465.1 377.709 465.1 376.409C465.1 374.009 464.6 372.009 463.4 370.609ZM421.7 362.709C422.1 363.309 422.5 363.809 422.9 364.309C424.8 366.209 428.1 367.209 432.7 367.209C434.5 367.209 436.2 367.009 437.6 366.709C438.1 365.409 438.6 364.109 439.1 362.709H421.7ZM463.4 370.609C462.2 369.209 460.7 368.409 458.8 368.409C458.1 368.409 457.2 368.609 456.2 368.909C458.9 372.709 461.5 376.409 464.3 380.009C464.9 378.909 465.1 377.709 465.1 376.409C465.1 374.009 464.6 372.009 463.4 370.609ZM421.7 362.709C422.1 363.309 422.5 363.809 422.9 364.309C424.8 366.209 428.1 367.209 432.7 367.209C434.5 367.209 436.2 367.009 437.6 366.709C438.1 365.409 438.6 364.109 439.1 362.709H421.7ZM463.4 370.609C462.2 369.209 460.7 368.409 458.8 368.409C458.1 368.409 457.2 368.609 456.2 368.909C458.9 372.709 461.5 376.409 464.3 380.009C464.9 378.909 465.1 377.709 465.1 376.409C465.1 374.009 464.6 372.009 463.4 370.609ZM421.7 362.709C422.1 363.309 422.5 363.809 422.9 364.309C424.8 366.209 428.1 367.209 432.7 367.209C434.5 367.209 436.2 367.009 437.6 366.709C438.1 365.409 438.6 364.109 439.1 362.709H421.7ZM421.7 362.709C422.1 363.309 422.5 363.809 422.9 364.309C424.8 366.209 428.1 367.209 432.7 367.209C434.5 367.209 436.2 367.009 437.6 366.709C438.1 365.409 438.6 364.109 439.1 362.709H421.7ZM463.4 370.609C462.2 369.209 460.7 368.409 458.8 368.409C458.1 368.409 457.2 368.609 456.2 368.909C458.9 372.709 461.5 376.409 464.3 380.009C464.9 378.909 465.1 377.709 465.1 376.409C465.1 374.009 464.6 372.009 463.4 370.609ZM436.6 333.509C436.5 333.309 436.3 333.209 436.2 333.009C435.4 332.109 434.1 331.009 431.1 330.809C431.2 331.709 431.2 332.609 431.1 333.509H436.6ZM421.7 362.709C422.1 363.309 422.5 363.809 422.9 364.309C424.8 366.209 428.1 367.209 432.7 367.209C434.5 367.209 436.2 367.009 437.6 366.709C438.1 365.409 438.6 364.109 439.1 362.709H421.7ZM463.4 370.609C462.2 369.209 460.7 368.409 458.8 368.409C458.1 368.409 457.2 368.609 456.2 368.909C458.9 372.709 461.5 376.409 464.3 380.009C464.9 378.909 465.1 377.709 465.1 376.409C465.1 374.009 464.6 372.009 463.4 370.609ZM421.7 362.709C422.1 363.309 422.5 363.809 422.9 364.309C424.8 366.209 428.1 367.209 432.7 367.209C434.5 367.209 436.2 367.009 437.6 366.709C438.1 365.409 438.6 364.109 439.1 362.709H421.7ZM463.4 370.609C462.2 369.209 460.7 368.409 458.8 368.409C458.1 368.409 457.2 368.609 456.2 368.909C458.9 372.709 461.5 376.409 464.3 380.009C464.9 378.909 465.1 377.709 465.1 376.409C465.1 374.009 464.6 372.009 463.4 370.609ZM531.1 379.909C529.2 364.009 528.4 348.109 528.7 332.209C526.4 333.209 523.7 333.909 520.6 334.209H520.5H520.4L515.4 334.709C513.3 334.909 511.5 335.309 510.1 335.909C510.2 348.109 510.9 360.309 512.1 372.509C512.8 379.109 512 385.809 514.3 392.309C516.2 397.509 519.6 399.009 524.5 398.209C529.4 397.409 531 394.109 531.1 389.609C531.1 386.409 531.1 383.109 531.1 379.909ZM451.6 138.209C446.6 136.609 443.5 140.209 440.8 143.109C425.5 159.209 415.2 178.209 410 199.709C404.7 221.609 405.2 243.509 409.5 265.609C411.7 277.109 414.8 288.209 418.7 299.009C422.1 298.309 425.7 297.909 429.5 297.909C432.5 297.909 435.3 298.109 438.1 298.609C431.2 280.409 426.3 261.809 425.1 242.209C423.5 216.009 428.3 191.809 442.5 169.509C446.1 163.809 451 159.309 455.2 154.109C460 148.009 458.2 140.309 451.6 138.209ZM421.7 362.709C422.1 363.309 422.5 363.809 422.9 364.309C424.8 366.209 428.1 367.209 432.7 367.209C434.5 367.209 436.2 367.009 437.6 366.709C438.1 365.409 438.6 364.109 439.1 362.709H421.7ZM463.4 370.609C462.2 369.209 460.7 368.409 458.8 368.409C458.1 368.409 457.2 368.609 456.2 368.909C458.9 372.709 461.5 376.409 464.3 380.009C464.9 378.909 465.1 377.709 465.1 376.409C465.1 374.009 464.6 372.009 463.4 370.609ZM531.1 379.909C529.2 364.009 528.4 348.109 528.7 332.209C526.4 333.209 523.7 333.909 520.6 334.209H520.5H520.4L515.4 334.709C513.3 334.909 511.5 335.309 510.1 335.909C510.2 348.109 510.9 360.309 512.1 372.509C512.8 379.109 512 385.809 514.3 392.309C516.2 397.509 519.6 399.009 524.5 398.209C529.4 397.409 531 394.109 531.1 389.609C531.1 386.409 531.1 383.109 531.1 379.909Z" fill="#E9E9E9"/>
<path d="M867.9 280.309C870.1 282.609 871.2 285.609 871.2 289.309V380.209C871.2 384.009 870.1 387.009 867.9 389.409C865.7 391.709 862.8 392.909 859.2 392.909C855.3 392.909 852.2 391.509 849.8 388.709L795.5 319.209V380.309C795.5 384.109 794.4 387.109 792.3 389.509C790.2 391.809 787.4 393.009 783.8 393.009C780.2 393.009 777.4 391.809 775.2 389.509C773 387.209 772 384.109 772 380.309V289.409C772 285.709 773.1 282.709 775.3 280.409C777.5 278.109 780.4 276.909 784 276.909C788 276.909 791.1 278.309 793.2 281.109L847.5 350.109V289.309C847.5 285.609 848.6 282.609 850.7 280.309C852.9 278.009 855.7 276.809 859.1 276.809C862.8 276.809 865.7 278.009 867.9 280.309Z" fill="white"/>
<path d="M675.3 389.409C673 387.109 671.9 384.109 671.9 380.209V289.509C671.9 285.709 672.9 282.809 675 280.709C677.1 278.609 680 277.609 683.8 277.609H724.5C736.9 277.609 746.6 280.709 753.5 287.009C760.4 293.309 763.9 302.009 763.9 313.309C763.9 324.509 760.4 333.309 753.5 339.609C746.6 345.909 736.9 349.009 724.5 349.009H697.3V380.309C697.3 384.209 696.2 387.309 693.9 389.509C691.6 391.809 688.6 392.909 684.7 392.909C680.7 392.809 677.6 391.709 675.3 389.409ZM721.2 329.809C733.8 329.809 740.2 324.309 740.2 313.409C740.2 302.409 733.9 296.909 721.2 296.909H697.2V329.809H721.2Z" fill="white"/>
<path d="M648.9 278.309C650.7 277.209 652.8 276.609 655.1 276.609C658.3 276.609 661.3 277.709 663.9 279.809C666.5 282.009 667.8 284.609 667.8 287.709C667.8 289.309 667.4 290.909 666.7 292.609L622.9 385.009C621.7 387.509 619.9 389.409 617.6 390.809C615.2 392.109 612.6 392.809 609.8 392.809C607 392.809 604.4 392.109 602 390.809C599.6 389.509 597.8 387.509 596.7 385.009L552.9 292.609C552.1 291.109 551.8 289.509 551.8 287.909C551.8 284.709 553.1 282.009 555.9 279.809C558.6 277.609 561.6 276.609 565 276.609C567.3 276.609 569.3 277.209 571.2 278.309C573.1 279.409 574.5 281.109 575.5 283.409L610.2 359.209L644.9 283.409C645.7 281.209 647.1 279.509 648.9 278.309Z" fill="white"/>
<path d="M527.1 309.109C528.8 310.609 529.6 312.709 529.6 315.609C529.6 318.609 528.9 320.809 527.4 322.309C526 323.809 523.3 324.709 519.5 325.109L514.5 325.609C507.9 326.309 503.1 328.509 500 332.309C496.9 336.109 495.4 340.809 495.4 346.509V381.709C495.4 384.909 494.4 387.409 492.4 389.109C490.4 390.809 487.9 391.709 484.9 391.709C481.9 391.709 479.4 390.809 477.5 389.109C475.5 387.409 474.6 384.909 474.6 381.709V316.909C474.6 313.809 475.6 311.409 477.5 309.709C479.5 308.009 481.9 307.209 484.8 307.209C487.7 307.209 490 308.009 491.8 309.609C493.6 311.209 494.5 313.509 494.5 316.509V323.209C496.6 318.309 499.8 314.509 504 311.809C508.2 309.109 512.8 307.609 518 307.309L520.3 307.109C523.1 307.109 525.4 307.709 527.1 309.109Z" fill="#B9B9BB"/>
<path d="M463.4 370.609C464.6 372.109 465.2 374.009 465.2 376.509C465.2 380.009 463.1 382.909 459 385.209C455.2 387.309 450.9 389.009 446.1 390.309C441.3 391.609 436.7 392.209 432.4 392.209C419.2 392.209 408.8 388.409 401.1 380.809C393.4 373.209 389.5 362.809 389.5 349.709C389.5 341.309 391.2 333.909 394.5 327.409C397.8 320.909 402.6 315.909 408.6 312.309C414.7 308.709 421.6 306.909 429.3 306.909C436.7 306.909 443.1 308.509 448.6 311.809C454.1 315.009 458.3 319.609 461.3 325.509C464.3 331.409 465.8 338.409 465.8 346.409C465.8 351.209 463.7 353.609 459.4 353.609H410C410.7 361.309 412.8 367.009 416.5 370.609C420.2 374.209 425.5 376.009 432.6 376.009C436.2 376.009 439.3 375.609 442.1 374.709C444.8 373.809 447.9 372.609 451.4 371.009C454.7 369.209 457.2 368.309 458.8 368.309C460.7 368.409 462.2 369.109 463.4 370.609ZM416.2 327.109C412.8 330.709 410.8 335.809 410.1 342.509H447.9C447.7 335.709 446 330.509 442.9 327.009C439.8 323.509 435.4 321.709 429.8 321.709C424.1 321.709 419.6 323.509 416.2 327.109Z" fill="#B9B9BB"/>
<path d="M391.5 383.809C391.5 386.509 390.4 388.509 388.2 389.909C386 391.309 382.9 391.909 378.9 391.709L374.4 391.409C355.7 390.109 346.3 380.009 346.3 361.309V324.809H337.9C334.9 324.809 332.6 324.109 331 322.809C329.4 321.509 328.6 319.509 328.6 316.909C328.6 314.309 329.4 312.409 331 311.009C332.6 309.709 334.9 309.009 337.9 309.009H346.3V293.609C346.3 290.609 347.2 288.209 349.1 286.409C351 284.609 353.6 283.709 356.8 283.709C359.9 283.709 362.4 284.609 364.3 286.409C366.2 288.209 367.1 290.609 367.1 293.609V309.009H381.3C384.3 309.009 386.6 309.709 388.2 311.009C389.8 312.309 390.6 314.309 390.6 316.909C390.6 319.509 389.8 321.409 388.2 322.809C386.6 324.109 384.3 324.809 381.3 324.809H367.1V362.809C367.1 371.109 370.9 375.509 378.5 376.009L383 376.309C388.7 376.609 391.5 379.109 391.5 383.809Z" fill="#B9B9BB"/>
<path d="M300.3 307.009C294.4 307.009 289.1 308.109 284.5 310.409C279.9 312.709 276.1 316.009 273.4 320.409V281.409C273.4 278.509 272.5 276.209 270.6 274.509C268.7 272.809 266.2 272.009 263.1 272.009C260 272.009 257.4 272.909 255.5 274.709C253.5 276.509 252.6 278.809 252.6 281.709V321.409C250.1 316.809 246.6 313.309 241.9 310.809C237.2 308.309 231.9 307.009 225.8 307.009C218.7 307.009 212.3 308.709 206.7 312.109C201.1 315.509 196.8 320.309 193.7 326.509C190.6 332.709 189.1 339.809 189.1 347.909C189.1 356.009 190.7 363.009 193.8 369.209C196.9 375.309 201.2 380.109 206.8 383.509C212.3 386.909 218.7 388.609 225.8 388.609C231.8 388.609 237.2 387.309 241.9 384.809C246.6 382.309 250.2 378.809 252.6 374.209V384.909C252.6 399.209 245.3 406.309 230.7 406.309C226.6 406.309 222.9 405.909 219.7 405.009C216.5 404.109 212.9 402.809 208.9 401.109C207.3 400.409 205.8 399.809 204.4 399.309C202.9 398.809 201.7 398.609 200.7 398.609C198.8 398.609 197.3 399.309 196.1 400.809C194.9 402.209 194.4 404.209 194.4 406.709C194.4 410.109 196.5 413.109 200.6 415.609C208.7 420.209 218.9 422.509 231.1 422.509C245.1 422.509 255.6 419.209 262.7 412.609C269.7 406.109 273.3 396.609 273.4 384.209C273.4 384.209 273.4 384.209 273.4 384.109C273.5 383.409 273.6 382.709 273.6 381.909V344.509C273.6 338.109 275.4 333.109 279 329.309C282.6 325.509 287.5 323.609 293.5 323.609C298.6 323.609 302.4 325.009 304.8 327.709C307.2 330.409 308.4 334.809 308.4 340.709V381.909C308.4 385.009 309.3 387.509 311.2 389.309C313.1 391.109 315.6 392.009 318.9 392.009C322.1 392.009 324.7 391.109 326.5 389.309C328.3 387.509 329.3 385.109 329.3 381.909V340.709C329.1 318.209 319.5 307.009 300.3 307.009ZM246.8 365.709C243.1 370.109 237.9 372.209 231.2 372.209C224.6 372.209 219.4 370.009 215.6 365.709C211.8 361.309 209.9 355.409 209.9 347.809C209.9 340.109 211.8 334.109 215.6 329.709C219.4 325.309 224.6 323.209 231.2 323.209C237.9 323.209 243.1 325.409 246.8 329.709C250.5 334.109 252.4 340.109 252.4 347.809C252.4 355.409 250.5 361.409 246.8 365.709Z" fill="#B9B9BB"/>
<path d="M164.4 289.309C162.2 287.209 161.1 284.509 161.1 281.209C161.1 277.909 162.2 275.209 164.4 273.209C166.6 271.209 169.6 270.209 173.4 270.209C177.1 270.209 180.1 271.209 182.4 273.209C184.7 275.209 185.8 277.909 185.8 281.209C185.8 284.509 184.7 287.309 182.5 289.309C180.3 291.409 177.3 292.409 173.5 292.409C169.6 292.409 166.6 291.409 164.4 289.309ZM166 389.309C164 387.609 163.1 385.109 163.1 381.909V317.309C163.1 314.109 164.1 311.609 166 309.909C168 308.209 170.4 307.409 173.5 307.409C176.5 307.409 179 308.209 181 309.909C183 311.609 184 314.009 184 317.309V381.909C184 385.109 183 387.609 181 389.309C179 391.009 176.5 391.909 173.5 391.909C170.4 391.809 167.9 391.009 166 389.309Z" fill="#B9B9BB"/>
<path d="M156.1 309.109C157.8 310.609 158.6 312.709 158.6 315.609C158.6 318.609 157.9 320.809 156.4 322.309C154.9 323.809 152.3 324.709 148.5 325.109L143.5 325.609C136.9 326.309 132.1 328.509 129 332.309C125.9 336.109 124.4 340.809 124.4 346.509V381.709C124.4 384.909 123.4 387.409 121.4 389.109C119.4 390.809 116.9 391.709 113.9 391.709C110.9 391.709 108.4 390.809 106.4 389.109C104.4 387.409 103.5 384.909 103.5 381.709V316.909C103.5 313.809 104.5 311.409 106.4 309.709C108.4 308.009 110.8 307.209 113.7 307.209C116.6 307.209 118.9 308.009 120.7 309.609C122.5 311.209 123.4 313.509 123.4 316.509V323.209C125.5 318.309 128.7 314.509 132.9 311.809C137.1 309.109 141.7 307.609 146.9 307.309L149.2 307.109C152.2 307.109 154.4 307.709 156.1 309.109Z" fill="#B9B9BB"/>
<path d="M88.5 337.609C92.2 342.609 94.1 348.809 94.1 356.009C94.1 366.009 90.5 373.909 83.3 379.609C76.1 385.309 66.2 388.109 53.6 388.109H10.4C7.19999 388.109 4.59999 387.209 2.79999 385.409C0.999988 383.609 0 381.109 0 377.909V280.309C0 277.109 0.899988 274.609 2.79999 272.809C4.59999 271.009 7.19999 270.109 10.4 270.109H51.9C64.2 270.109 73.8 272.809 80.8 278.209C87.8 283.609 91.3 291.209 91.3 300.909C91.3 307.209 89.7 312.609 86.4 317.109C83.1 321.709 78.6 325.009 72.8 327.109C79.4 329.109 84.7 332.609 88.5 337.609ZM21.1 319.909H48.4C63.2 319.909 70.7 314.409 70.7 303.309C70.7 297.709 68.9 293.609 65.2 290.909C61.5 288.209 55.9 286.909 48.5 286.909H21.2V319.909H21.1ZM68.3 367.209C71.9 364.409 73.7 360.109 73.7 354.109C73.7 348.209 71.9 343.809 68.3 340.909C64.7 338.009 59 336.509 51.3 336.509H21.2V371.309H51.3C59 371.409 64.7 370.009 68.3 367.209Z" fill="#B9B9BB"/>
</svg>
